<svg width="3129px" height="1115px"
 viewBox="0.00 0.00 2347.08 836.00" xmlns="http://www.w3.org/2000/svg" xmlns:xlink="http://www.w3.org/1999/xlink">
<g id="graph0" class="graph" transform="scale(1.0 1.0) rotate(0) translate(4 832)">
<title>%0</title>
<polygon fill="#ffffff" stroke="transparent" points="-4,4 -4,-832 2343.0766,-832 2343.0766,4 -4,4"/>
<!-- 3 -->
<g id="node1" class="node">
<title>3</title>
<ellipse fill="none" stroke="#000000" cx="70.8429" cy="-594" rx="70.6862" ry="18"/>
<text text-anchor="middle" x="70.8429" y="-589.8" font-family="Times,serif" font-size="14.00" fill="#000000">modifier public</text>
</g>
<!-- 2 -->
<g id="node2" class="node">
<title>2</title>
<ellipse fill="none" stroke="#000000" cx="100.8429" cy="-666" rx="48.0897" ry="18"/>
<text text-anchor="middle" x="100.8429" y="-661.8" font-family="Times,serif" font-size="14.00" fill="#000000">modifiers</text>
</g>
<!-- 2&#45;&gt;3 -->
<g id="edge1" class="edge">
<title>2&#45;&gt;3</title>
<path fill="none" stroke="#000000" d="M93.4272,-648.2022C90.0632,-640.1287 86.0086,-630.3976 82.2688,-621.422"/>
<polygon fill="#000000" stroke="#000000" points="85.4587,-619.9777 78.3817,-612.0931 78.9972,-622.6701 85.4587,-619.9777"/>
</g>
<!-- 9 -->
<g id="node3" class="node">
<title>9</title>
<ellipse fill="none" stroke="#000000" cx="123.8429" cy="-522" rx="40.049" ry="18"/>
<text text-anchor="middle" x="123.8429" y="-517.8" font-family="Times,serif" font-size="14.00" fill="#000000">type int</text>
</g>
<!-- 8 -->
<g id="node4" class="node">
<title>8</title>
<ellipse fill="none" stroke="#000000" cx="214.8429" cy="-450" rx="73.532" ry="18"/>
<text text-anchor="middle" x="214.8429" y="-445.8" font-family="Times,serif" font-size="14.00" fill="#000000">modifier private</text>
</g>
<!-- 7 -->
<g id="node5" class="node">
<title>7</title>
<ellipse fill="none" stroke="#000000" cx="229.8429" cy="-522" rx="48.0897" ry="18"/>
<text text-anchor="middle" x="229.8429" y="-517.8" font-family="Times,serif" font-size="14.00" fill="#000000">modifiers</text>
</g>
<!-- 7&#45;&gt;8 -->
<g id="edge2" class="edge">
<title>7&#45;&gt;8</title>
<path fill="none" stroke="#000000" d="M226.0578,-503.8314C224.4535,-496.131 222.5459,-486.9743 220.7631,-478.4166"/>
<polygon fill="#000000" stroke="#000000" points="224.1451,-477.4892 218.679,-468.4133 217.2922,-478.9169 224.1451,-477.4892"/>
</g>
<!-- 6 -->
<g id="node6" class="node">
<title>6</title>
<ellipse fill="none" stroke="#000000" cx="229.8429" cy="-594" rx="69.5351" ry="18"/>
<text text-anchor="middle" x="229.8429" y="-589.8" font-family="Times,serif" font-size="14.00" fill="#000000">field classField</text>
</g>
<!-- 6&#45;&gt;9 -->
<g id="edge3" class="edge">
<title>6&#45;&gt;9</title>
<path fill="none" stroke="#000000" d="M204.9906,-577.1192C189.9144,-566.8787 170.5575,-553.7306 154.5305,-542.8444"/>
<polygon fill="#000000" stroke="#000000" points="156.2564,-539.7857 146.0176,-537.062 152.3232,-545.5762 156.2564,-539.7857"/>
</g>
<!-- 6&#45;&gt;7 -->
<g id="edge4" class="edge">
<title>6&#45;&gt;7</title>
<path fill="none" stroke="#000000" d="M229.8429,-575.8314C229.8429,-568.131 229.8429,-558.9743 229.8429,-550.4166"/>
<polygon fill="#000000" stroke="#000000" points="233.343,-550.4132 229.8429,-540.4133 226.343,-550.4133 233.343,-550.4132"/>
</g>
<!-- 4 -->
<g id="node7" class="node">
<title>4</title>
<ellipse fill="none" stroke="#000000" cx="229.8429" cy="-666" rx="32.4788" ry="18"/>
<text text-anchor="middle" x="229.8429" y="-661.8" font-family="Times,serif" font-size="14.00" fill="#000000">fields</text>
</g>
<!-- 4&#45;&gt;6 -->
<g id="edge5" class="edge">
<title>4&#45;&gt;6</title>
<path fill="none" stroke="#000000" d="M229.8429,-647.8314C229.8429,-640.131 229.8429,-630.9743 229.8429,-622.4166"/>
<polygon fill="#000000" stroke="#000000" points="233.343,-622.4132 229.8429,-612.4133 226.343,-622.4133 233.343,-622.4132"/>
</g>
<!-- 14 -->
<g id="node8" class="node">
<title>14</title>
<ellipse fill="none" stroke="#000000" cx="388.8429" cy="-522" rx="47.4956" ry="18"/>
<text text-anchor="middle" x="388.8429" y="-517.8" font-family="Times,serif" font-size="14.00" fill="#000000">type void</text>
</g>
<!-- 12 -->
<g id="node9" class="node">
<title>12</title>
<ellipse fill="none" stroke="#000000" cx="376.8429" cy="-450" rx="70.6862" ry="18"/>
<text text-anchor="middle" x="376.8429" y="-445.8" font-family="Times,serif" font-size="14.00" fill="#000000">modifier public</text>
</g>
<!-- 13 -->
<g id="node10" class="node">
<title>13</title>
<ellipse fill="none" stroke="#000000" cx="532.8429" cy="-450" rx="67.1671" ry="18"/>
<text text-anchor="middle" x="532.8429" y="-445.8" font-family="Times,serif" font-size="14.00" fill="#000000">modifier static</text>
</g>
<!-- 11 -->
<g id="node11" class="node">
<title>11</title>
<ellipse fill="none" stroke="#000000" cx="501.8429" cy="-522" rx="48.0897" ry="18"/>
<text text-anchor="middle" x="501.8429" y="-517.8" font-family="Times,serif" font-size="14.00" fill="#000000">modifiers</text>
</g>
<!-- 11&#45;&gt;12 -->
<g id="edge6" class="edge">
<title>11&#45;&gt;12</title>
<path fill="none" stroke="#000000" d="M475.6388,-506.9064C457.8834,-496.6793 434.1473,-483.0073 414.391,-471.6277"/>
<polygon fill="#000000" stroke="#000000" points="416.0418,-468.5395 405.6296,-466.5811 412.5479,-474.6052 416.0418,-468.5395"/>
</g>
<!-- 11&#45;&gt;13 -->
<g id="edge7" class="edge">
<title>11&#45;&gt;13</title>
<path fill="none" stroke="#000000" d="M509.5059,-504.2022C512.982,-496.1287 517.1717,-486.3976 521.0362,-477.422"/>
<polygon fill="#000000" stroke="#000000" points="524.3129,-478.6621 525.0528,-468.0931 517.8835,-475.8938 524.3129,-478.6621"/>
</g>
<!-- 17 -->
<g id="node12" class="node">
<title>17</title>
<ellipse fill="none" stroke="#000000" cx="587.8429" cy="-378" rx="40.049" ry="18"/>
<text text-anchor="middle" x="587.8429" y="-373.8" font-family="Times,serif" font-size="14.00" fill="#000000">type int</text>
</g>
<!-- 20 -->
<g id="node13" class="node">
<title>20</title>
<ellipse fill="none" stroke="#000000" cx="628.8429" cy="-234" rx="38.8249" ry="18"/>
<text text-anchor="middle" x="628.8429" y="-229.8" font-family="Times,serif" font-size="14.00" fill="#000000">const 8</text>
</g>
<!-- 22 -->
<g id="node14" class="node">
<title>22</title>
<ellipse fill="none" stroke="#000000" cx="686.8429" cy="-162" rx="38.8249" ry="18"/>
<text text-anchor="middle" x="686.8429" y="-157.8" font-family="Times,serif" font-size="14.00" fill="#000000">const 5</text>
</g>
<!-- 23 -->
<g id="node15" class="node">
<title>23</title>
<ellipse fill="none" stroke="#000000" cx="786.8429" cy="-162" rx="43.4812" ry="18"/>
<text text-anchor="middle" x="786.8429" y="-157.8" font-family="Times,serif" font-size="14.00" fill="#000000">const 10</text>
</g>
<!-- 21 -->
<g id="node16" class="node">
<title>21</title>
<ellipse fill="none" stroke="#000000" cx="736.8429" cy="-234" rx="51.1369" ry="18"/>
<text text-anchor="middle" x="736.8429" y="-229.8" font-family="Times,serif" font-size="14.00" fill="#000000">operator +</text>
</g>
<!-- 21&#45;&gt;22 -->
<g id="edge8" class="edge">
<title>21&#45;&gt;22</title>
<path fill="none" stroke="#000000" d="M724.4834,-216.2022C718.5053,-207.5938 711.2187,-197.1011 704.6546,-187.6488"/>
<polygon fill="#000000" stroke="#000000" points="707.4666,-185.5619 698.8878,-179.3446 701.717,-189.5547 707.4666,-185.5619"/>
</g>
<!-- 21&#45;&gt;23 -->
<g id="edge9" class="edge">
<title>21&#45;&gt;23</title>
<path fill="none" stroke="#000000" d="M749.2025,-216.2022C755.1805,-207.5938 762.4672,-197.1011 769.0313,-187.6488"/>
<polygon fill="#000000" stroke="#000000" points="771.9689,-189.5547 774.7981,-179.3446 766.2193,-185.5619 771.9689,-189.5547"/>
</g>
<!-- 19 -->
<g id="node17" class="node">
<title>19</title>
<ellipse fill="none" stroke="#000000" cx="708.8429" cy="-306" rx="51.1369" ry="18"/>
<text text-anchor="middle" x="708.8429" y="-301.8" font-family="Times,serif" font-size="14.00" fill="#000000">operator +</text>
</g>
<!-- 19&#45;&gt;20 -->
<g id="edge10" class="edge">
<title>19&#45;&gt;20</title>
<path fill="none" stroke="#000000" d="M689.884,-288.937C679.2973,-279.4089 665.9615,-267.4067 654.4572,-257.0529"/>
<polygon fill="#000000" stroke="#000000" points="656.616,-254.287 646.8417,-250.1989 651.9332,-259.4901 656.616,-254.287"/>
</g>
<!-- 19&#45;&gt;21 -->
<g id="edge11" class="edge">
<title>19&#45;&gt;21</title>
<path fill="none" stroke="#000000" d="M715.9085,-287.8314C719.016,-279.8406 722.7333,-270.2819 726.1674,-261.4514"/>
<polygon fill="#000000" stroke="#000000" points="729.5141,-262.502 729.8766,-251.9134 722.9901,-259.9649 729.5141,-262.502"/>
</g>
<!-- 18 -->
<g id="node18" class="node">
<title>18</title>
<ellipse fill="none" stroke="#000000" cx="708.8429" cy="-378" rx="62.192" ry="18"/>
<text text-anchor="middle" x="708.8429" y="-373.8" font-family="Times,serif" font-size="14.00" fill="#000000">assignment =</text>
</g>
<!-- 18&#45;&gt;19 -->
<g id="edge12" class="edge">
<title>18&#45;&gt;19</title>
<path fill="none" stroke="#000000" d="M708.8429,-359.8314C708.8429,-352.131 708.8429,-342.9743 708.8429,-334.4166"/>
<polygon fill="#000000" stroke="#000000" points="712.343,-334.4132 708.8429,-324.4133 705.343,-334.4133 712.343,-334.4132"/>
</g>
<!-- 16 -->
<g id="node19" class="node">
<title>16</title>
<ellipse fill="none" stroke="#000000" cx="708.8429" cy="-450" rx="90.8685" ry="18"/>
<text text-anchor="middle" x="708.8429" y="-445.8" font-family="Times,serif" font-size="14.00" fill="#000000">declare variable sum</text>
</g>
<!-- 16&#45;&gt;17 -->
<g id="edge13" class="edge">
<title>16&#45;&gt;17</title>
<path fill="none" stroke="#000000" d="M679.8604,-432.7542C662.0756,-422.1715 639.2495,-408.589 620.7813,-397.5997"/>
<polygon fill="#000000" stroke="#000000" points="622.4898,-394.5436 612.1063,-392.4377 618.9102,-400.5592 622.4898,-394.5436"/>
</g>
<!-- 16&#45;&gt;18 -->
<g id="edge14" class="edge">
<title>16&#45;&gt;18</title>
<path fill="none" stroke="#000000" d="M708.8429,-431.8314C708.8429,-424.131 708.8429,-414.9743 708.8429,-406.4166"/>
<polygon fill="#000000" stroke="#000000" points="712.343,-406.4132 708.8429,-396.4133 705.343,-406.4133 712.343,-406.4132"/>
</g>
<!-- 25 -->
<g id="node20" class="node">
<title>25</title>
<ellipse fill="none" stroke="#000000" cx="849.8429" cy="-378" rx="60.7927" ry="18"/>
<text text-anchor="middle" x="849.8429" y="-373.8" font-family="Times,serif" font-size="14.00" fill="#000000">variable sum</text>
</g>
<!-- 27 -->
<g id="node21" class="node">
<title>27</title>
<ellipse fill="none" stroke="#000000" cx="849.8429" cy="-306" rx="60.7927" ry="18"/>
<text text-anchor="middle" x="849.8429" y="-301.8" font-family="Times,serif" font-size="14.00" fill="#000000">variable sum</text>
</g>
<!-- 29 -->
<g id="node22" class="node">
<title>29</title>
<ellipse fill="none" stroke="#000000" cx="871.8429" cy="-234" rx="38.8249" ry="18"/>
<text text-anchor="middle" x="871.8429" y="-229.8" font-family="Times,serif" font-size="14.00" fill="#000000">const 3</text>
</g>
<!-- 31 -->
<g id="node23" class="node">
<title>31</title>
<ellipse fill="none" stroke="#000000" cx="971.8429" cy="-162" rx="38.8249" ry="18"/>
<text text-anchor="middle" x="971.8429" y="-157.8" font-family="Times,serif" font-size="14.00" fill="#000000">const 5</text>
</g>
<!-- 33 -->
<g id="node24" class="node">
<title>33</title>
<ellipse fill="none" stroke="#000000" cx="1021.8429" cy="-90" rx="60.7927" ry="18"/>
<text text-anchor="middle" x="1021.8429" y="-85.8" font-family="Times,serif" font-size="14.00" fill="#000000">variable sum</text>
</g>
<!-- 34 -->
<g id="node25" class="node">
<title>34</title>
<ellipse fill="none" stroke="#000000" cx="1138.8429" cy="-90" rx="38.8249" ry="18"/>
<text text-anchor="middle" x="1138.8429" y="-85.8" font-family="Times,serif" font-size="14.00" fill="#000000">const 6</text>
</g>
<!-- 32 -->
<g id="node26" class="node">
<title>32</title>
<ellipse fill="none" stroke="#000000" cx="1079.8429" cy="-162" rx="51.1369" ry="18"/>
<text text-anchor="middle" x="1079.8429" y="-157.8" font-family="Times,serif" font-size="14.00" fill="#000000">operator +</text>
</g>
<!-- 32&#45;&gt;33 -->
<g id="edge15" class="edge">
<title>32&#45;&gt;33</title>
<path fill="none" stroke="#000000" d="M1065.8027,-144.5708C1058.7309,-135.7919 1050.0246,-124.9841 1042.2309,-115.3093"/>
<polygon fill="#000000" stroke="#000000" points="1044.9538,-113.1101 1035.9548,-107.5182 1039.5025,-117.5015 1044.9538,-113.1101"/>
</g>
<!-- 32&#45;&gt;34 -->
<g id="edge16" class="edge">
<title>32&#45;&gt;34</title>
<path fill="none" stroke="#000000" d="M1094.1252,-144.5708C1101.3723,-135.7269 1110.3067,-124.8239 1118.2794,-115.0945"/>
<polygon fill="#000000" stroke="#000000" points="1121.0611,-117.2219 1124.6922,-107.2687 1115.6468,-112.7851 1121.0611,-117.2219"/>
</g>
<!-- 30 -->
<g id="node27" class="node">
<title>30</title>
<ellipse fill="none" stroke="#000000" cx="979.8429" cy="-234" rx="51.1369" ry="18"/>
<text text-anchor="middle" x="979.8429" y="-229.8" font-family="Times,serif" font-size="14.00" fill="#000000">operator +</text>
</g>
<!-- 30&#45;&gt;31 -->
<g id="edge17" class="edge">
<title>30&#45;&gt;31</title>
<path fill="none" stroke="#000000" d="M977.8242,-215.8314C976.9686,-208.131 975.9512,-198.9743 975.0003,-190.4166"/>
<polygon fill="#000000" stroke="#000000" points="978.4718,-189.9656 973.8889,-180.4133 971.5147,-190.7386 978.4718,-189.9656"/>
</g>
<!-- 30&#45;&gt;32 -->
<g id="edge18" class="edge">
<title>30&#45;&gt;32</title>
<path fill="none" stroke="#000000" d="M1002.5345,-217.6621C1016.2151,-207.812 1033.8303,-195.1291 1048.7899,-184.3582"/>
<polygon fill="#000000" stroke="#000000" points="1051.1709,-186.9567 1057.2412,-178.2733 1047.0807,-181.276 1051.1709,-186.9567"/>
</g>
<!-- 28 -->
<g id="node28" class="node">
<title>28</title>
<ellipse fill="none" stroke="#000000" cx="979.8429" cy="-306" rx="51.1369" ry="18"/>
<text text-anchor="middle" x="979.8429" y="-301.8" font-family="Times,serif" font-size="14.00" fill="#000000">operator +</text>
</g>
<!-- 28&#45;&gt;29 -->
<g id="edge19" class="edge">
<title>28&#45;&gt;29</title>
<path fill="none" stroke="#000000" d="M955.8742,-290.0209C940.2101,-279.5781 919.6026,-265.8398 902.7156,-254.5818"/>
<polygon fill="#000000" stroke="#000000" points="904.5318,-251.5861 894.2698,-248.9512 900.6488,-257.4105 904.5318,-251.5861"/>
</g>
<!-- 28&#45;&gt;30 -->
<g id="edge20" class="edge">
<title>28&#45;&gt;30</title>
<path fill="none" stroke="#000000" d="M979.8429,-287.8314C979.8429,-280.131 979.8429,-270.9743 979.8429,-262.4166"/>
<polygon fill="#000000" stroke="#000000" points="983.343,-262.4132 979.8429,-252.4133 976.343,-262.4133 983.343,-262.4132"/>
</g>
<!-- 26 -->
<g id="node29" class="node">
<title>26</title>
<ellipse fill="none" stroke="#000000" cx="979.8429" cy="-378" rx="51.1369" ry="18"/>
<text text-anchor="middle" x="979.8429" y="-373.8" font-family="Times,serif" font-size="14.00" fill="#000000">operator +</text>
</g>
<!-- 26&#45;&gt;27 -->
<g id="edge21" class="edge">
<title>26&#45;&gt;27</title>
<path fill="none" stroke="#000000" d="M952.2733,-362.7307C933.4452,-352.3028 908.2612,-338.3547 887.5765,-326.8986"/>
<polygon fill="#000000" stroke="#000000" points="889.1681,-323.7792 878.7244,-321.9959 885.7766,-329.9027 889.1681,-323.7792"/>
</g>
<!-- 26&#45;&gt;28 -->
<g id="edge22" class="edge">
<title>26&#45;&gt;28</title>
<path fill="none" stroke="#000000" d="M979.8429,-359.8314C979.8429,-352.131 979.8429,-342.9743 979.8429,-334.4166"/>
<polygon fill="#000000" stroke="#000000" points="983.343,-334.4132 979.8429,-324.4133 976.343,-334.4133 983.343,-334.4132"/>
</g>
<!-- 24 -->
<g id="node30" class="node">
<title>24</title>
<ellipse fill="none" stroke="#000000" cx="879.8429" cy="-450" rx="62.192" ry="18"/>
<text text-anchor="middle" x="879.8429" y="-445.8" font-family="Times,serif" font-size="14.00" fill="#000000">assignment =</text>
</g>
<!-- 24&#45;&gt;25 -->
<g id="edge23" class="edge">
<title>24&#45;&gt;25</title>
<path fill="none" stroke="#000000" d="M872.2727,-431.8314C868.9074,-423.7547 864.8746,-414.0761 861.1624,-405.1668"/>
<polygon fill="#000000" stroke="#000000" points="864.3838,-403.798 857.3069,-395.9134 857.9223,-406.4904 864.3838,-403.798"/>
</g>
<!-- 24&#45;&gt;26 -->
<g id="edge24" class="edge">
<title>24&#45;&gt;26</title>
<path fill="none" stroke="#000000" d="M903.2885,-433.1192C916.8971,-423.321 934.2028,-410.8609 948.9164,-400.2671"/>
<polygon fill="#000000" stroke="#000000" points="951.1621,-402.963 957.2324,-394.2796 947.072,-397.2823 951.1621,-402.963"/>
</g>
<!-- 39 -->
<g id="node31" class="node">
<title>39</title>
<ellipse fill="none" stroke="#000000" cx="1088.8429" cy="-234" rx="40.049" ry="18"/>
<text text-anchor="middle" x="1088.8429" y="-229.8" font-family="Times,serif" font-size="14.00" fill="#000000">type int</text>
</g>
<!-- 41 -->
<g id="node32" class="node">
<title>41</title>
<ellipse fill="none" stroke="#000000" cx="1209.8429" cy="-162" rx="48.1388" ry="18"/>
<text text-anchor="middle" x="1209.8429" y="-157.8" font-family="Times,serif" font-size="14.00" fill="#000000">const 123</text>
</g>
<!-- 40 -->
<g id="node33" class="node">
<title>40</title>
<ellipse fill="none" stroke="#000000" cx="1209.8429" cy="-234" rx="62.192" ry="18"/>
<text text-anchor="middle" x="1209.8429" y="-229.8" font-family="Times,serif" font-size="14.00" fill="#000000">assignment =</text>
</g>
<!-- 40&#45;&gt;41 -->
<g id="edge25" class="edge">
<title>40&#45;&gt;41</title>
<path fill="none" stroke="#000000" d="M1209.8429,-215.8314C1209.8429,-208.131 1209.8429,-198.9743 1209.8429,-190.4166"/>
<polygon fill="#000000" stroke="#000000" points="1213.343,-190.4132 1209.8429,-180.4133 1206.343,-190.4133 1213.343,-190.4132"/>
</g>
<!-- 38 -->
<g id="node34" class="node">
<title>38</title>
<ellipse fill="none" stroke="#000000" cx="1209.8429" cy="-306" rx="77.5434" ry="18"/>
<text text-anchor="middle" x="1209.8429" y="-301.8" font-family="Times,serif" font-size="14.00" fill="#000000">declare variable j</text>
</g>
<!-- 38&#45;&gt;39 -->
<g id="edge26" class="edge">
<title>38&#45;&gt;39</title>
<path fill="none" stroke="#000000" d="M1181.4738,-289.1192C1163.7053,-278.5462 1140.7279,-264.8737 1122.1033,-253.7913"/>
<polygon fill="#000000" stroke="#000000" points="1123.7353,-250.6897 1113.3519,-248.5838 1120.1558,-256.7053 1123.7353,-250.6897"/>
</g>
<!-- 38&#45;&gt;40 -->
<g id="edge27" class="edge">
<title>38&#45;&gt;40</title>
<path fill="none" stroke="#000000" d="M1209.8429,-287.8314C1209.8429,-280.131 1209.8429,-270.9743 1209.8429,-262.4166"/>
<polygon fill="#000000" stroke="#000000" points="1213.343,-262.4132 1209.8429,-252.4133 1206.343,-262.4133 1213.343,-262.4132"/>
</g>
<!-- 43 -->
<g id="node35" class="node">
<title>43</title>
<ellipse fill="none" stroke="#000000" cx="1337.8429" cy="-234" rx="47.4684" ry="18"/>
<text text-anchor="middle" x="1337.8429" y="-229.8" font-family="Times,serif" font-size="14.00" fill="#000000">variable j</text>
</g>
<!-- 44 -->
<g id="node36" class="node">
<title>44</title>
<ellipse fill="none" stroke="#000000" cx="1441.8429" cy="-234" rx="38.8249" ry="18"/>
<text text-anchor="middle" x="1441.8429" y="-229.8" font-family="Times,serif" font-size="14.00" fill="#000000">const 0</text>
</g>
<!-- 42 -->
<g id="node37" class="node">
<title>42</title>
<ellipse fill="none" stroke="#000000" cx="1387.8429" cy="-306" rx="51.1369" ry="18"/>
<text text-anchor="middle" x="1387.8429" y="-301.8" font-family="Times,serif" font-size="14.00" fill="#000000">operator &gt;</text>
</g>
<!-- 42&#45;&gt;43 -->
<g id="edge28" class="edge">
<title>42&#45;&gt;43</title>
<path fill="none" stroke="#000000" d="M1375.4834,-288.2022C1369.5496,-279.6576 1362.3265,-269.2564 1355.8006,-259.859"/>
<polygon fill="#000000" stroke="#000000" points="1358.6391,-257.8103 1350.0603,-251.593 1352.8895,-261.8031 1358.6391,-257.8103"/>
</g>
<!-- 42&#45;&gt;44 -->
<g id="edge29" class="edge">
<title>42&#45;&gt;44</title>
<path fill="none" stroke="#000000" d="M1400.9148,-288.5708C1407.4814,-279.8153 1415.5616,-269.0418 1422.8029,-259.3867"/>
<polygon fill="#000000" stroke="#000000" points="1425.6914,-261.3687 1428.8914,-251.2687 1420.0914,-257.1687 1425.6914,-261.3687"/>
</g>
<!-- 46 -->
<g id="node38" class="node">
<title>46</title>
<ellipse fill="none" stroke="#000000" cx="1545.8429" cy="-234" rx="47.4684" ry="18"/>
<text text-anchor="middle" x="1545.8429" y="-229.8" font-family="Times,serif" font-size="14.00" fill="#000000">variable j</text>
</g>
<!-- 45 -->
<g id="node39" class="node">
<title>45</title>
<ellipse fill="none" stroke="#000000" cx="1534.8429" cy="-306" rx="52.105" ry="18"/>
<text text-anchor="middle" x="1534.8429" y="-301.8" font-family="Times,serif" font-size="14.00" fill="#000000">operator &#45;&#45;</text>
</g>
<!-- 45&#45;&gt;46 -->
<g id="edge30" class="edge">
<title>45&#45;&gt;46</title>
<path fill="none" stroke="#000000" d="M1537.6187,-287.8314C1538.7951,-280.131 1540.1941,-270.9743 1541.5015,-262.4166"/>
<polygon fill="#000000" stroke="#000000" points="1544.9793,-262.8272 1543.0298,-252.4133 1538.0596,-261.7699 1544.9793,-262.8272"/>
</g>
<!-- 37 -->
<g id="node40" class="node">
<title>37</title>
<ellipse fill="none" stroke="#000000" cx="1387.8429" cy="-378" rx="76.3591" ry="18"/>
<text text-anchor="middle" x="1387.8429" y="-373.8" font-family="Times,serif" font-size="14.00" fill="#000000">cycle parameters</text>
</g>
<!-- 37&#45;&gt;38 -->
<g id="edge31" class="edge">
<title>37&#45;&gt;38</title>
<path fill="none" stroke="#000000" d="M1349.2196,-362.3771C1322.4872,-351.564 1286.7136,-337.0937 1258.1027,-325.5208"/>
<polygon fill="#000000" stroke="#000000" points="1259.2806,-322.2218 1248.6979,-321.7166 1256.6557,-328.7111 1259.2806,-322.2218"/>
</g>
<!-- 37&#45;&gt;42 -->
<g id="edge32" class="edge">
<title>37&#45;&gt;42</title>
<path fill="none" stroke="#000000" d="M1387.8429,-359.8314C1387.8429,-352.131 1387.8429,-342.9743 1387.8429,-334.4166"/>
<polygon fill="#000000" stroke="#000000" points="1391.343,-334.4132 1387.8429,-324.4133 1384.343,-334.4133 1391.343,-334.4132"/>
</g>
<!-- 37&#45;&gt;45 -->
<g id="edge33" class="edge">
<title>37&#45;&gt;45</title>
<path fill="none" stroke="#000000" d="M1421.1995,-361.6621C1443.2372,-350.8681 1472.2202,-336.6723 1495.4008,-325.3186"/>
<polygon fill="#000000" stroke="#000000" points="1497.1772,-328.3459 1504.6183,-320.8039 1494.0981,-322.0594 1497.1772,-328.3459"/>
</g>
<!-- 49 -->
<g id="node41" class="node">
<title>49</title>
<ellipse fill="none" stroke="#000000" cx="1671.8429" cy="-234" rx="60.7927" ry="18"/>
<text text-anchor="middle" x="1671.8429" y="-229.8" font-family="Times,serif" font-size="14.00" fill="#000000">variable sum</text>
</g>
<!-- 51 -->
<g id="node42" class="node">
<title>51</title>
<ellipse fill="none" stroke="#000000" cx="1675.8429" cy="-162" rx="60.7927" ry="18"/>
<text text-anchor="middle" x="1675.8429" y="-157.8" font-family="Times,serif" font-size="14.00" fill="#000000">variable sum</text>
</g>
<!-- 52 -->
<g id="node43" class="node">
<title>52</title>
<ellipse fill="none" stroke="#000000" cx="1801.8429" cy="-162" rx="47.4684" ry="18"/>
<text text-anchor="middle" x="1801.8429" y="-157.8" font-family="Times,serif" font-size="14.00" fill="#000000">variable j</text>
</g>
<!-- 50 -->
<g id="node44" class="node">
<title>50</title>
<ellipse fill="none" stroke="#000000" cx="1801.8429" cy="-234" rx="51.1369" ry="18"/>
<text text-anchor="middle" x="1801.8429" y="-229.8" font-family="Times,serif" font-size="14.00" fill="#000000">operator +</text>
</g>
<!-- 50&#45;&gt;51 -->
<g id="edge34" class="edge">
<title>50&#45;&gt;51</title>
<path fill="none" stroke="#000000" d="M1774.8128,-218.5542C1756.7532,-208.2345 1732.7633,-194.5259 1712.9256,-183.1901"/>
<polygon fill="#000000" stroke="#000000" points="1714.5584,-180.092 1704.1394,-178.1694 1711.0854,-186.1697 1714.5584,-180.092"/>
</g>
<!-- 50&#45;&gt;52 -->
<g id="edge35" class="edge">
<title>50&#45;&gt;52</title>
<path fill="none" stroke="#000000" d="M1801.8429,-215.8314C1801.8429,-208.131 1801.8429,-198.9743 1801.8429,-190.4166"/>
<polygon fill="#000000" stroke="#000000" points="1805.343,-190.4132 1801.8429,-180.4133 1798.343,-190.4133 1805.343,-190.4132"/>
</g>
<!-- 48 -->
<g id="node45" class="node">
<title>48</title>
<ellipse fill="none" stroke="#000000" cx="1681.8429" cy="-306" rx="62.192" ry="18"/>
<text text-anchor="middle" x="1681.8429" y="-301.8" font-family="Times,serif" font-size="14.00" fill="#000000">assignment =</text>
</g>
<!-- 48&#45;&gt;49 -->
<g id="edge36" class="edge">
<title>48&#45;&gt;49</title>
<path fill="none" stroke="#000000" d="M1679.3195,-287.8314C1678.25,-280.131 1676.9783,-270.9743 1675.7897,-262.4166"/>
<polygon fill="#000000" stroke="#000000" points="1679.2428,-261.8367 1674.4003,-252.4133 1672.3094,-262.7997 1679.2428,-261.8367"/>
</g>
<!-- 48&#45;&gt;50 -->
<g id="edge37" class="edge">
<title>48&#45;&gt;50</title>
<path fill="none" stroke="#000000" d="M1709.0728,-289.6621C1726.3064,-279.3219 1748.743,-265.86 1767.2343,-254.7652"/>
<polygon fill="#000000" stroke="#000000" points="1769.1806,-257.6791 1775.9548,-249.5329 1765.5791,-251.6767 1769.1806,-257.6791"/>
</g>
<!-- 56 -->
<g id="node46" class="node">
<title>56</title>
<ellipse fill="none" stroke="#000000" cx="1927.8429" cy="-162" rx="60.7927" ry="18"/>
<text text-anchor="middle" x="1927.8429" y="-157.8" font-family="Times,serif" font-size="14.00" fill="#000000">variable sum</text>
</g>
<!-- 57 -->
<g id="node47" class="node">
<title>57</title>
<ellipse fill="none" stroke="#000000" cx="2044.8429" cy="-162" rx="38.8249" ry="18"/>
<text text-anchor="middle" x="2044.8429" y="-157.8" font-family="Times,serif" font-size="14.00" fill="#000000">const 0</text>
</g>
<!-- 55 -->
<g id="node48" class="node">
<title>55</title>
<ellipse fill="none" stroke="#000000" cx="1985.8429" cy="-234" rx="56.5279" ry="18"/>
<text text-anchor="middle" x="1985.8429" y="-229.8" font-family="Times,serif" font-size="14.00" fill="#000000">operator ==</text>
</g>
<!-- 55&#45;&gt;56 -->
<g id="edge38" class="edge">
<title>55&#45;&gt;56</title>
<path fill="none" stroke="#000000" d="M1971.5058,-216.2022C1964.5524,-207.5704 1956.0728,-197.0439 1948.4423,-187.5717"/>
<polygon fill="#000000" stroke="#000000" points="1951.0141,-185.1849 1942.0151,-179.593 1945.5628,-189.5763 1951.0141,-185.1849"/>
</g>
<!-- 55&#45;&gt;57 -->
<g id="edge39" class="edge">
<title>55&#45;&gt;57</title>
<path fill="none" stroke="#000000" d="M2000.1252,-216.5708C2007.3723,-207.7269 2016.3067,-196.8239 2024.2794,-187.0945"/>
<polygon fill="#000000" stroke="#000000" points="2027.0611,-189.2219 2030.6922,-179.2687 2021.6468,-184.7851 2027.0611,-189.2219"/>
</g>
<!-- 60 -->
<g id="node49" class="node">
<title>60</title>
<ellipse fill="none" stroke="#000000" cx="2098.8429" cy="-90" rx="60.7927" ry="18"/>
<text text-anchor="middle" x="2098.8429" y="-85.8" font-family="Times,serif" font-size="14.00" fill="#000000">variable sum</text>
</g>
<!-- 62 -->
<g id="node50" class="node">
<title>62</title>
<ellipse fill="none" stroke="#000000" cx="2165.8429" cy="-18" rx="60.7927" ry="18"/>
<text text-anchor="middle" x="2165.8429" y="-13.8" font-family="Times,serif" font-size="14.00" fill="#000000">variable sum</text>
</g>
<!-- 63 -->
<g id="node51" class="node">
<title>63</title>
<ellipse fill="none" stroke="#000000" cx="2291.8429" cy="-18" rx="47.4684" ry="18"/>
<text text-anchor="middle" x="2291.8429" y="-13.8" font-family="Times,serif" font-size="14.00" fill="#000000">variable j</text>
</g>
<!-- 61 -->
<g id="node52" class="node">
<title>61</title>
<ellipse fill="none" stroke="#000000" cx="2228.8429" cy="-90" rx="51.1369" ry="18"/>
<text text-anchor="middle" x="2228.8429" y="-85.8" font-family="Times,serif" font-size="14.00" fill="#000000">operator +</text>
</g>
<!-- 61&#45;&gt;62 -->
<g id="edge40" class="edge">
<title>61&#45;&gt;62</title>
<path fill="none" stroke="#000000" d="M2213.5924,-72.5708C2205.9109,-63.7919 2196.454,-52.9841 2187.9885,-43.3093"/>
<polygon fill="#000000" stroke="#000000" points="2190.3905,-40.7393 2181.1714,-35.5182 2185.1224,-45.3488 2190.3905,-40.7393"/>
</g>
<!-- 61&#45;&gt;63 -->
<g id="edge41" class="edge">
<title>61&#45;&gt;63</title>
<path fill="none" stroke="#000000" d="M2244.0935,-72.5708C2251.9093,-63.6385 2261.563,-52.6056 2270.1404,-42.8029"/>
<polygon fill="#000000" stroke="#000000" points="2272.7818,-45.0993 2276.7328,-35.2687 2267.5137,-40.4897 2272.7818,-45.0993"/>
</g>
<!-- 59 -->
<g id="node53" class="node">
<title>59</title>
<ellipse fill="none" stroke="#000000" cx="2163.8429" cy="-162" rx="62.192" ry="18"/>
<text text-anchor="middle" x="2163.8429" y="-157.8" font-family="Times,serif" font-size="14.00" fill="#000000">assignment =</text>
</g>
<!-- 59&#45;&gt;60 -->
<g id="edge42" class="edge">
<title>59&#45;&gt;60</title>
<path fill="none" stroke="#000000" d="M2148.1082,-144.5708C2140.1036,-135.7041 2130.2305,-124.7678 2121.4299,-115.0194"/>
<polygon fill="#000000" stroke="#000000" points="2123.957,-112.5956 2114.658,-107.5182 2118.7611,-117.2863 2123.957,-112.5956"/>
</g>
<!-- 59&#45;&gt;61 -->
<g id="edge43" class="edge">
<title>59&#45;&gt;61</title>
<path fill="none" stroke="#000000" d="M2179.5776,-144.5708C2187.6415,-135.6385 2197.6017,-124.6056 2206.4514,-114.8029"/>
<polygon fill="#000000" stroke="#000000" points="2209.15,-117.0368 2213.2531,-107.2687 2203.9541,-112.346 2209.15,-117.0368"/>
</g>
<!-- 58 -->
<g id="node54" class="node">
<title>58</title>
<ellipse fill="none" stroke="#000000" cx="2126.8429" cy="-234" rx="30.2015" ry="18"/>
<text text-anchor="middle" x="2126.8429" y="-229.8" font-family="Times,serif" font-size="14.00" fill="#000000">body</text>
</g>
<!-- 58&#45;&gt;59 -->
<g id="edge44" class="edge">
<title>58&#45;&gt;59</title>
<path fill="none" stroke="#000000" d="M2135.7996,-216.5708C2140.0219,-208.3544 2145.1575,-198.3608 2149.8743,-189.1821"/>
<polygon fill="#000000" stroke="#000000" points="2153.1246,-190.5147 2154.5823,-180.0206 2146.8986,-187.3152 2153.1246,-190.5147"/>
</g>
<!-- 54 -->
<g id="node55" class="node">
<title>54</title>
<ellipse fill="none" stroke="#000000" cx="1985.8429" cy="-306" rx="55.6591" ry="18"/>
<text text-anchor="middle" x="1985.8429" y="-301.8" font-family="Times,serif" font-size="14.00" fill="#000000">condition if</text>
</g>
<!-- 54&#45;&gt;55 -->
<g id="edge45" class="edge">
<title>54&#45;&gt;55</title>
<path fill="none" stroke="#000000" d="M1985.8429,-287.8314C1985.8429,-280.131 1985.8429,-270.9743 1985.8429,-262.4166"/>
<polygon fill="#000000" stroke="#000000" points="1989.343,-262.4132 1985.8429,-252.4133 1982.343,-262.4133 1989.343,-262.4132"/>
</g>
<!-- 54&#45;&gt;58 -->
<g id="edge46" class="edge">
<title>54&#45;&gt;58</title>
<path fill="none" stroke="#000000" d="M2015.7454,-290.7307C2038.8677,-278.9235 2070.8283,-262.6032 2094.5356,-250.4974"/>
<polygon fill="#000000" stroke="#000000" points="2096.186,-253.5846 2103.5003,-245.9196 2093.0025,-247.3503 2096.186,-253.5846"/>
</g>
<!-- 47 -->
<g id="node56" class="node">
<title>47</title>
<ellipse fill="none" stroke="#000000" cx="1681.8429" cy="-378" rx="30.2015" ry="18"/>
<text text-anchor="middle" x="1681.8429" y="-373.8" font-family="Times,serif" font-size="14.00" fill="#000000">body</text>
</g>
<!-- 47&#45;&gt;48 -->
<g id="edge47" class="edge">
<title>47&#45;&gt;48</title>
<path fill="none" stroke="#000000" d="M1681.8429,-359.8314C1681.8429,-352.131 1681.8429,-342.9743 1681.8429,-334.4166"/>
<polygon fill="#000000" stroke="#000000" points="1685.343,-334.4132 1681.8429,-324.4133 1678.343,-334.4133 1685.343,-334.4132"/>
</g>
<!-- 47&#45;&gt;54 -->
<g id="edge48" class="edge">
<title>47&#45;&gt;54</title>
<path fill="none" stroke="#000000" d="M1710.1695,-371.2911C1760.3285,-359.4113 1865.5895,-334.4811 1930.5492,-319.0959"/>
<polygon fill="#000000" stroke="#000000" points="1931.69,-322.4226 1940.6142,-316.7121 1930.0767,-315.611 1931.69,-322.4226"/>
</g>
<!-- 36 -->
<g id="node57" class="node">
<title>36</title>
<ellipse fill="none" stroke="#000000" cx="1387.8429" cy="-450" rx="45.1623" ry="18"/>
<text text-anchor="middle" x="1387.8429" y="-445.8" font-family="Times,serif" font-size="14.00" fill="#000000">cycle for</text>
</g>
<!-- 36&#45;&gt;37 -->
<g id="edge49" class="edge">
<title>36&#45;&gt;37</title>
<path fill="none" stroke="#000000" d="M1387.8429,-431.8314C1387.8429,-424.131 1387.8429,-414.9743 1387.8429,-406.4166"/>
<polygon fill="#000000" stroke="#000000" points="1391.343,-406.4132 1387.8429,-396.4133 1384.343,-406.4133 1391.343,-406.4132"/>
</g>
<!-- 36&#45;&gt;47 -->
<g id="edge50" class="edge">
<title>36&#45;&gt;47</title>
<path fill="none" stroke="#000000" d="M1426.2783,-440.5873C1482.6919,-426.7717 1587.3026,-401.1527 1643.6041,-387.3646"/>
<polygon fill="#000000" stroke="#000000" points="1644.6516,-390.7116 1653.5321,-384.9333 1642.9865,-383.9125 1644.6516,-390.7116"/>
</g>
<!-- 15 -->
<g id="node58" class="node">
<title>15</title>
<ellipse fill="none" stroke="#000000" cx="793.8429" cy="-522" rx="30.2015" ry="18"/>
<text text-anchor="middle" x="793.8429" y="-517.8" font-family="Times,serif" font-size="14.00" fill="#000000">body</text>
</g>
<!-- 15&#45;&gt;16 -->
<g id="edge51" class="edge">
<title>15&#45;&gt;16</title>
<path fill="none" stroke="#000000" d="M776.2309,-507.0816C765.036,-497.5989 750.284,-485.103 737.4372,-474.221"/>
<polygon fill="#000000" stroke="#000000" points="739.6259,-471.4881 729.7332,-467.6953 735.1015,-476.8295 739.6259,-471.4881"/>
</g>
<!-- 15&#45;&gt;24 -->
<g id="edge52" class="edge">
<title>15&#45;&gt;24</title>
<path fill="none" stroke="#000000" d="M811.6622,-507.0816C823.1517,-497.4624 838.3446,-484.7428 851.4721,-473.7523"/>
<polygon fill="#000000" stroke="#000000" points="853.9066,-476.2788 859.3275,-467.1757 849.4131,-470.9115 853.9066,-476.2788"/>
</g>
<!-- 15&#45;&gt;36 -->
<g id="edge53" class="edge">
<title>15&#45;&gt;36</title>
<path fill="none" stroke="#000000" d="M823.7066,-518.3802C918.3458,-506.9087 1212.5201,-471.2513 1334.2601,-456.4949"/>
<polygon fill="#000000" stroke="#000000" points="1334.9499,-459.937 1344.456,-455.259 1334.1075,-452.9878 1334.9499,-459.937"/>
</g>
<!-- 10 -->
<g id="node59" class="node">
<title>10</title>
<ellipse fill="none" stroke="#000000" cx="444.8429" cy="-594" rx="55.0816" ry="18"/>
<text text-anchor="middle" x="444.8429" y="-589.8" font-family="Times,serif" font-size="14.00" fill="#000000">method foo</text>
</g>
<!-- 10&#45;&gt;14 -->
<g id="edge54" class="edge">
<title>10&#45;&gt;14</title>
<path fill="none" stroke="#000000" d="M431.0002,-576.2022C424.2365,-567.506 415.977,-556.8867 408.5672,-547.3598"/>
<polygon fill="#000000" stroke="#000000" points="411.2353,-545.0893 402.3332,-539.3446 405.7099,-549.3869 411.2353,-545.0893"/>
</g>
<!-- 10&#45;&gt;11 -->
<g id="edge55" class="edge">
<title>10&#45;&gt;11</title>
<path fill="none" stroke="#000000" d="M458.9328,-576.2022C465.8174,-567.506 474.2243,-556.8867 481.7664,-547.3598"/>
<polygon fill="#000000" stroke="#000000" points="484.6489,-549.3575 488.1118,-539.3446 479.1606,-545.0126 484.6489,-549.3575"/>
</g>
<!-- 10&#45;&gt;15 -->
<g id="edge56" class="edge">
<title>10&#45;&gt;15</title>
<path fill="none" stroke="#000000" d="M491.5485,-584.3645C561.0141,-570.0335 690.2898,-543.3634 754.9344,-530.027"/>
<polygon fill="#000000" stroke="#000000" points="755.649,-533.4534 764.7355,-528.005 754.2346,-526.5977 755.649,-533.4534"/>
</g>
<!-- 5 -->
<g id="node60" class="node">
<title>5</title>
<ellipse fill="none" stroke="#000000" cx="363.8429" cy="-666" rx="43.5214" ry="18"/>
<text text-anchor="middle" x="363.8429" y="-661.8" font-family="Times,serif" font-size="14.00" fill="#000000">methods</text>
</g>
<!-- 5&#45;&gt;10 -->
<g id="edge57" class="edge">
<title>5&#45;&gt;10</title>
<path fill="none" stroke="#000000" d="M382.2231,-649.6621C392.7662,-640.2905 406.1941,-628.3545 417.9097,-617.9407"/>
<polygon fill="#000000" stroke="#000000" points="420.5415,-620.2841 425.6904,-611.0245 415.891,-615.0522 420.5415,-620.2841"/>
</g>
<!-- 1 -->
<g id="node61" class="node">
<title>1</title>
<ellipse fill="none" stroke="#000000" cx="229.8429" cy="-738" rx="52.7041" ry="18"/>
<text text-anchor="middle" x="229.8429" y="-733.8" font-family="Times,serif" font-size="14.00" fill="#000000">class Main</text>
</g>
<!-- 1&#45;&gt;2 -->
<g id="edge58" class="edge">
<title>1&#45;&gt;2</title>
<path fill="none" stroke="#000000" d="M202.1692,-722.5542C183.0805,-711.9 157.5202,-697.6338 136.8477,-686.0957"/>
<polygon fill="#000000" stroke="#000000" points="138.4659,-682.9906 128.0281,-681.1731 135.0543,-689.103 138.4659,-682.9906"/>
</g>
<!-- 1&#45;&gt;4 -->
<g id="edge59" class="edge">
<title>1&#45;&gt;4</title>
<path fill="none" stroke="#000000" d="M229.8429,-719.8314C229.8429,-712.131 229.8429,-702.9743 229.8429,-694.4166"/>
<polygon fill="#000000" stroke="#000000" points="233.343,-694.4132 229.8429,-684.4133 226.343,-694.4133 233.343,-694.4132"/>
</g>
<!-- 1&#45;&gt;5 -->
<g id="edge60" class="edge">
<title>1&#45;&gt;5</title>
<path fill="none" stroke="#000000" d="M258.2609,-722.7307C278.5619,-711.8226 306.0319,-697.0626 327.8632,-685.3324"/>
<polygon fill="#000000" stroke="#000000" points="329.6846,-688.327 336.8369,-680.5107 326.3713,-682.1608 329.6846,-688.327"/>
</g>
<!-- 0 -->
<g id="node62" class="node">
<title>0</title>
<ellipse fill="none" stroke="#000000" cx="229.8429" cy="-810" rx="77.6136" ry="18"/>
<text text-anchor="middle" x="229.8429" y="-805.8" font-family="Times,serif" font-size="14.00" fill="#000000">package mishdev</text>
</g>
<!-- 0&#45;&gt;1 -->
<g id="edge61" class="edge">
<title>0&#45;&gt;1</title>
<path fill="none" stroke="#000000" d="M229.8429,-791.8314C229.8429,-784.131 229.8429,-774.9743 229.8429,-766.4166"/>
<polygon fill="#000000" stroke="#000000" points="233.343,-766.4132 229.8429,-756.4133 226.343,-766.4133 233.343,-766.4132"/>
</g>
</g>
</svg>
