<svg width="3011px" height="1115px"
 viewBox="0.00 0.00 2258.08 836.00" xmlns="http://www.w3.org/2000/svg" xmlns:xlink="http://www.w3.org/1999/xlink">
<g id="graph0" class="graph" transform="scale(1.0 1.0) rotate(0) translate(4 832)">
<title>%0</title>
<polygon fill="#ffffff" stroke="transparent" points="-4,4 -4,-832 2254.0766,-832 2254.0766,4 -4,4"/>
<!-- 3 -->
<g id="node1" class="node">
<title>3</title>
<ellipse fill="none" stroke="#000000" cx="70.8429" cy="-594" rx="70.6862" ry="18"/>
<text text-anchor="middle" x="70.8429" y="-589.8" font-family="Times,serif" font-size="14.00" fill="#000000">modifier public</text>
</g>
<!-- 2 -->
<g id="node2" class="node">
<title>2</title>
<ellipse fill="none" stroke="#000000" cx="100.8429" cy="-666" rx="48.0897" ry="18"/>
<text text-anchor="middle" x="100.8429" y="-661.8" font-family="Times,serif" font-size="14.00" fill="#000000">modifiers</text>
</g>
<!-- 2&#45;&gt;3 -->
<g id="edge1" class="edge">
<title>2&#45;&gt;3</title>
<path fill="none" stroke="#000000" d="M93.4272,-648.2022C90.0632,-640.1287 86.0086,-630.3976 82.2688,-621.422"/>
<polygon fill="#000000" stroke="#000000" points="85.4587,-619.9777 78.3817,-612.0931 78.9972,-622.6701 85.4587,-619.9777"/>
</g>
<!-- 9 -->
<g id="node3" class="node">
<title>9</title>
<ellipse fill="none" stroke="#000000" cx="123.8429" cy="-522" rx="40.049" ry="18"/>
<text text-anchor="middle" x="123.8429" y="-517.8" font-family="Times,serif" font-size="14.00" fill="#000000">type int</text>
</g>
<!-- 8 -->
<g id="node4" class="node">
<title>8</title>
<ellipse fill="none" stroke="#000000" cx="214.8429" cy="-450" rx="73.532" ry="18"/>
<text text-anchor="middle" x="214.8429" y="-445.8" font-family="Times,serif" font-size="14.00" fill="#000000">modifier private</text>
</g>
<!-- 7 -->
<g id="node5" class="node">
<title>7</title>
<ellipse fill="none" stroke="#000000" cx="229.8429" cy="-522" rx="48.0897" ry="18"/>
<text text-anchor="middle" x="229.8429" y="-517.8" font-family="Times,serif" font-size="14.00" fill="#000000">modifiers</text>
</g>
<!-- 7&#45;&gt;8 -->
<g id="edge2" class="edge">
<title>7&#45;&gt;8</title>
<path fill="none" stroke="#000000" d="M226.0578,-503.8314C224.4535,-496.131 222.5459,-486.9743 220.7631,-478.4166"/>
<polygon fill="#000000" stroke="#000000" points="224.1451,-477.4892 218.679,-468.4133 217.2922,-478.9169 224.1451,-477.4892"/>
</g>
<!-- 6 -->
<g id="node6" class="node">
<title>6</title>
<ellipse fill="none" stroke="#000000" cx="229.8429" cy="-594" rx="69.5351" ry="18"/>
<text text-anchor="middle" x="229.8429" y="-589.8" font-family="Times,serif" font-size="14.00" fill="#000000">field classField</text>
</g>
<!-- 6&#45;&gt;9 -->
<g id="edge3" class="edge">
<title>6&#45;&gt;9</title>
<path fill="none" stroke="#000000" d="M204.9906,-577.1192C189.9144,-566.8787 170.5575,-553.7306 154.5305,-542.8444"/>
<polygon fill="#000000" stroke="#000000" points="156.2564,-539.7857 146.0176,-537.062 152.3232,-545.5762 156.2564,-539.7857"/>
</g>
<!-- 6&#45;&gt;7 -->
<g id="edge4" class="edge">
<title>6&#45;&gt;7</title>
<path fill="none" stroke="#000000" d="M229.8429,-575.8314C229.8429,-568.131 229.8429,-558.9743 229.8429,-550.4166"/>
<polygon fill="#000000" stroke="#000000" points="233.343,-550.4132 229.8429,-540.4133 226.343,-550.4133 233.343,-550.4132"/>
</g>
<!-- 4 -->
<g id="node7" class="node">
<title>4</title>
<ellipse fill="none" stroke="#000000" cx="229.8429" cy="-666" rx="32.4788" ry="18"/>
<text text-anchor="middle" x="229.8429" y="-661.8" font-family="Times,serif" font-size="14.00" fill="#000000">fields</text>
</g>
<!-- 4&#45;&gt;6 -->
<g id="edge5" class="edge">
<title>4&#45;&gt;6</title>
<path fill="none" stroke="#000000" d="M229.8429,-647.8314C229.8429,-640.131 229.8429,-630.9743 229.8429,-622.4166"/>
<polygon fill="#000000" stroke="#000000" points="233.343,-622.4132 229.8429,-612.4133 226.343,-622.4133 233.343,-622.4132"/>
</g>
<!-- 14 -->
<g id="node8" class="node">
<title>14</title>
<ellipse fill="none" stroke="#000000" cx="388.8429" cy="-522" rx="47.4956" ry="18"/>
<text text-anchor="middle" x="388.8429" y="-517.8" font-family="Times,serif" font-size="14.00" fill="#000000">type void</text>
</g>
<!-- 12 -->
<g id="node9" class="node">
<title>12</title>
<ellipse fill="none" stroke="#000000" cx="376.8429" cy="-450" rx="70.6862" ry="18"/>
<text text-anchor="middle" x="376.8429" y="-445.8" font-family="Times,serif" font-size="14.00" fill="#000000">modifier public</text>
</g>
<!-- 13 -->
<g id="node10" class="node">
<title>13</title>
<ellipse fill="none" stroke="#000000" cx="532.8429" cy="-450" rx="67.1671" ry="18"/>
<text text-anchor="middle" x="532.8429" y="-445.8" font-family="Times,serif" font-size="14.00" fill="#000000">modifier static</text>
</g>
<!-- 11 -->
<g id="node11" class="node">
<title>11</title>
<ellipse fill="none" stroke="#000000" cx="501.8429" cy="-522" rx="48.0897" ry="18"/>
<text text-anchor="middle" x="501.8429" y="-517.8" font-family="Times,serif" font-size="14.00" fill="#000000">modifiers</text>
</g>
<!-- 11&#45;&gt;12 -->
<g id="edge6" class="edge">
<title>11&#45;&gt;12</title>
<path fill="none" stroke="#000000" d="M475.6388,-506.9064C457.8834,-496.6793 434.1473,-483.0073 414.391,-471.6277"/>
<polygon fill="#000000" stroke="#000000" points="416.0418,-468.5395 405.6296,-466.5811 412.5479,-474.6052 416.0418,-468.5395"/>
</g>
<!-- 11&#45;&gt;13 -->
<g id="edge7" class="edge">
<title>11&#45;&gt;13</title>
<path fill="none" stroke="#000000" d="M509.5059,-504.2022C512.982,-496.1287 517.1717,-486.3976 521.0362,-477.422"/>
<polygon fill="#000000" stroke="#000000" points="524.3129,-478.6621 525.0528,-468.0931 517.8835,-475.8938 524.3129,-478.6621"/>
</g>
<!-- 17 -->
<g id="node12" class="node">
<title>17</title>
<ellipse fill="none" stroke="#000000" cx="669.8429" cy="-378" rx="40.049" ry="18"/>
<text text-anchor="middle" x="669.8429" y="-373.8" font-family="Times,serif" font-size="14.00" fill="#000000">type int</text>
</g>
<!-- 16 -->
<g id="node13" class="node">
<title>16</title>
<ellipse fill="none" stroke="#000000" cx="708.8429" cy="-450" rx="90.8685" ry="18"/>
<text text-anchor="middle" x="708.8429" y="-445.8" font-family="Times,serif" font-size="14.00" fill="#000000">declare variable sum</text>
</g>
<!-- 16&#45;&gt;17 -->
<g id="edge8" class="edge">
<title>16&#45;&gt;17</title>
<path fill="none" stroke="#000000" d="M699.0016,-431.8314C694.5802,-423.6688 689.2725,-413.87 684.4044,-404.8827"/>
<polygon fill="#000000" stroke="#000000" points="687.3864,-403.0393 679.546,-395.9134 681.2314,-406.3734 687.3864,-403.0393"/>
</g>
<!-- 19 -->
<g id="node14" class="node">
<title>19</title>
<ellipse fill="none" stroke="#000000" cx="788.8429" cy="-378" rx="60.7927" ry="18"/>
<text text-anchor="middle" x="788.8429" y="-373.8" font-family="Times,serif" font-size="14.00" fill="#000000">variable sum</text>
</g>
<!-- 21 -->
<g id="node15" class="node">
<title>21</title>
<ellipse fill="none" stroke="#000000" cx="788.8429" cy="-306" rx="60.7927" ry="18"/>
<text text-anchor="middle" x="788.8429" y="-301.8" font-family="Times,serif" font-size="14.00" fill="#000000">variable sum</text>
</g>
<!-- 23 -->
<g id="node16" class="node">
<title>23</title>
<ellipse fill="none" stroke="#000000" cx="810.8429" cy="-234" rx="38.8249" ry="18"/>
<text text-anchor="middle" x="810.8429" y="-229.8" font-family="Times,serif" font-size="14.00" fill="#000000">const 3</text>
</g>
<!-- 25 -->
<g id="node17" class="node">
<title>25</title>
<ellipse fill="none" stroke="#000000" cx="864.8429" cy="-162" rx="38.8249" ry="18"/>
<text text-anchor="middle" x="864.8429" y="-157.8" font-family="Times,serif" font-size="14.00" fill="#000000">const 5</text>
</g>
<!-- 27 -->
<g id="node18" class="node">
<title>27</title>
<ellipse fill="none" stroke="#000000" cx="914.8429" cy="-90" rx="60.7927" ry="18"/>
<text text-anchor="middle" x="914.8429" y="-85.8" font-family="Times,serif" font-size="14.00" fill="#000000">variable sum</text>
</g>
<!-- 28 -->
<g id="node19" class="node">
<title>28</title>
<ellipse fill="none" stroke="#000000" cx="1031.8429" cy="-90" rx="38.8249" ry="18"/>
<text text-anchor="middle" x="1031.8429" y="-85.8" font-family="Times,serif" font-size="14.00" fill="#000000">const 6</text>
</g>
<!-- 26 -->
<g id="node20" class="node">
<title>26</title>
<ellipse fill="none" stroke="#000000" cx="972.8429" cy="-162" rx="51.1369" ry="18"/>
<text text-anchor="middle" x="972.8429" y="-157.8" font-family="Times,serif" font-size="14.00" fill="#000000">operator +</text>
</g>
<!-- 26&#45;&gt;27 -->
<g id="edge9" class="edge">
<title>26&#45;&gt;27</title>
<path fill="none" stroke="#000000" d="M958.8027,-144.5708C951.7309,-135.7919 943.0246,-124.9841 935.2309,-115.3093"/>
<polygon fill="#000000" stroke="#000000" points="937.9538,-113.1101 928.9548,-107.5182 932.5025,-117.5015 937.9538,-113.1101"/>
</g>
<!-- 26&#45;&gt;28 -->
<g id="edge10" class="edge">
<title>26&#45;&gt;28</title>
<path fill="none" stroke="#000000" d="M987.1252,-144.5708C994.3723,-135.7269 1003.3067,-124.8239 1011.2794,-115.0945"/>
<polygon fill="#000000" stroke="#000000" points="1014.0611,-117.2219 1017.6922,-107.2687 1008.6468,-112.7851 1014.0611,-117.2219"/>
</g>
<!-- 24 -->
<g id="node21" class="node">
<title>24</title>
<ellipse fill="none" stroke="#000000" cx="918.8429" cy="-234" rx="51.1369" ry="18"/>
<text text-anchor="middle" x="918.8429" y="-229.8" font-family="Times,serif" font-size="14.00" fill="#000000">operator +</text>
</g>
<!-- 24&#45;&gt;25 -->
<g id="edge11" class="edge">
<title>24&#45;&gt;25</title>
<path fill="none" stroke="#000000" d="M905.771,-216.5708C899.2044,-207.8153 891.1243,-197.0418 883.8829,-187.3867"/>
<polygon fill="#000000" stroke="#000000" points="886.5945,-185.1687 877.7944,-179.2687 880.9945,-189.3687 886.5945,-185.1687"/>
</g>
<!-- 24&#45;&gt;26 -->
<g id="edge12" class="edge">
<title>24&#45;&gt;26</title>
<path fill="none" stroke="#000000" d="M931.9148,-216.5708C938.4331,-207.8797 946.4429,-197.2001 953.643,-187.5998"/>
<polygon fill="#000000" stroke="#000000" points="956.5042,-189.6183 959.7043,-179.5182 950.9042,-185.4182 956.5042,-189.6183"/>
</g>
<!-- 22 -->
<g id="node22" class="node">
<title>22</title>
<ellipse fill="none" stroke="#000000" cx="918.8429" cy="-306" rx="51.1369" ry="18"/>
<text text-anchor="middle" x="918.8429" y="-301.8" font-family="Times,serif" font-size="14.00" fill="#000000">operator +</text>
</g>
<!-- 22&#45;&gt;23 -->
<g id="edge13" class="edge">
<title>22&#45;&gt;23</title>
<path fill="none" stroke="#000000" d="M894.8742,-290.0209C879.2101,-279.5781 858.6026,-265.8398 841.7156,-254.5818"/>
<polygon fill="#000000" stroke="#000000" points="843.5318,-251.5861 833.2698,-248.9512 839.6488,-257.4105 843.5318,-251.5861"/>
</g>
<!-- 22&#45;&gt;24 -->
<g id="edge14" class="edge">
<title>22&#45;&gt;24</title>
<path fill="none" stroke="#000000" d="M918.8429,-287.8314C918.8429,-280.131 918.8429,-270.9743 918.8429,-262.4166"/>
<polygon fill="#000000" stroke="#000000" points="922.343,-262.4132 918.8429,-252.4133 915.343,-262.4133 922.343,-262.4132"/>
</g>
<!-- 20 -->
<g id="node23" class="node">
<title>20</title>
<ellipse fill="none" stroke="#000000" cx="918.8429" cy="-378" rx="51.1369" ry="18"/>
<text text-anchor="middle" x="918.8429" y="-373.8" font-family="Times,serif" font-size="14.00" fill="#000000">operator +</text>
</g>
<!-- 20&#45;&gt;21 -->
<g id="edge15" class="edge">
<title>20&#45;&gt;21</title>
<path fill="none" stroke="#000000" d="M891.2733,-362.7307C872.4452,-352.3028 847.2612,-338.3547 826.5765,-326.8986"/>
<polygon fill="#000000" stroke="#000000" points="828.1681,-323.7792 817.7244,-321.9959 824.7766,-329.9027 828.1681,-323.7792"/>
</g>
<!-- 20&#45;&gt;22 -->
<g id="edge16" class="edge">
<title>20&#45;&gt;22</title>
<path fill="none" stroke="#000000" d="M918.8429,-359.8314C918.8429,-352.131 918.8429,-342.9743 918.8429,-334.4166"/>
<polygon fill="#000000" stroke="#000000" points="922.343,-334.4132 918.8429,-324.4133 915.343,-334.4133 922.343,-334.4132"/>
</g>
<!-- 18 -->
<g id="node24" class="node">
<title>18</title>
<ellipse fill="none" stroke="#000000" cx="879.8429" cy="-450" rx="62.192" ry="18"/>
<text text-anchor="middle" x="879.8429" y="-445.8" font-family="Times,serif" font-size="14.00" fill="#000000">assignment =</text>
</g>
<!-- 18&#45;&gt;19 -->
<g id="edge17" class="edge">
<title>18&#45;&gt;19</title>
<path fill="none" stroke="#000000" d="M858.2772,-432.937C846.3776,-423.522 831.4248,-411.6912 818.4459,-401.4221"/>
<polygon fill="#000000" stroke="#000000" points="820.2678,-398.4006 810.2539,-394.9405 815.9244,-403.8902 820.2678,-398.4006"/>
</g>
<!-- 18&#45;&gt;20 -->
<g id="edge18" class="edge">
<title>18&#45;&gt;20</title>
<path fill="none" stroke="#000000" d="M889.4834,-432.2022C893.9834,-423.8944 899.4342,-413.8316 904.4115,-404.6427"/>
<polygon fill="#000000" stroke="#000000" points="907.4929,-406.3025 909.1782,-395.8425 901.3378,-402.9685 907.4929,-406.3025"/>
</g>
<!-- 33 -->
<g id="node25" class="node">
<title>33</title>
<ellipse fill="none" stroke="#000000" cx="1027.8429" cy="-234" rx="40.049" ry="18"/>
<text text-anchor="middle" x="1027.8429" y="-229.8" font-family="Times,serif" font-size="14.00" fill="#000000">type int</text>
</g>
<!-- 34 -->
<g id="node26" class="node">
<title>34</title>
<ellipse fill="none" stroke="#000000" cx="1134.8429" cy="-234" rx="48.1388" ry="18"/>
<text text-anchor="middle" x="1134.8429" y="-229.8" font-family="Times,serif" font-size="14.00" fill="#000000">const 123</text>
</g>
<!-- 32 -->
<g id="node27" class="node">
<title>32</title>
<ellipse fill="none" stroke="#000000" cx="1134.8429" cy="-306" rx="77.5434" ry="18"/>
<text text-anchor="middle" x="1134.8429" y="-301.8" font-family="Times,serif" font-size="14.00" fill="#000000">declare variable j</text>
</g>
<!-- 32&#45;&gt;33 -->
<g id="edge19" class="edge">
<title>32&#45;&gt;33</title>
<path fill="none" stroke="#000000" d="M1109.4854,-288.937C1094.3639,-278.7617 1075.049,-265.7649 1059.0026,-254.9672"/>
<polygon fill="#000000" stroke="#000000" points="1060.7221,-251.9057 1050.4715,-249.2267 1056.8141,-257.7133 1060.7221,-251.9057"/>
</g>
<!-- 32&#45;&gt;34 -->
<g id="edge20" class="edge">
<title>32&#45;&gt;34</title>
<path fill="none" stroke="#000000" d="M1134.8429,-287.8314C1134.8429,-280.131 1134.8429,-270.9743 1134.8429,-262.4166"/>
<polygon fill="#000000" stroke="#000000" points="1138.343,-262.4132 1134.8429,-252.4133 1131.343,-262.4133 1138.343,-262.4132"/>
</g>
<!-- 36 -->
<g id="node28" class="node">
<title>36</title>
<ellipse fill="none" stroke="#000000" cx="1248.8429" cy="-234" rx="47.4684" ry="18"/>
<text text-anchor="middle" x="1248.8429" y="-229.8" font-family="Times,serif" font-size="14.00" fill="#000000">variable j</text>
</g>
<!-- 37 -->
<g id="node29" class="node">
<title>37</title>
<ellipse fill="none" stroke="#000000" cx="1352.8429" cy="-234" rx="38.8249" ry="18"/>
<text text-anchor="middle" x="1352.8429" y="-229.8" font-family="Times,serif" font-size="14.00" fill="#000000">const 0</text>
</g>
<!-- 35 -->
<g id="node30" class="node">
<title>35</title>
<ellipse fill="none" stroke="#000000" cx="1305.8429" cy="-306" rx="51.1369" ry="18"/>
<text text-anchor="middle" x="1305.8429" y="-301.8" font-family="Times,serif" font-size="14.00" fill="#000000">operator &gt;</text>
</g>
<!-- 35&#45;&gt;36 -->
<g id="edge21" class="edge">
<title>35&#45;&gt;36</title>
<path fill="none" stroke="#000000" d="M1292.0448,-288.5708C1285.1134,-279.8153 1276.5843,-269.0418 1268.9407,-259.3867"/>
<polygon fill="#000000" stroke="#000000" points="1271.4652,-256.9367 1262.514,-251.2687 1265.9769,-261.2816 1271.4652,-256.9367"/>
</g>
<!-- 35&#45;&gt;37 -->
<g id="edge22" class="edge">
<title>35&#45;&gt;37</title>
<path fill="none" stroke="#000000" d="M1317.4609,-288.2022C1323.0229,-279.6817 1329.7901,-269.315 1335.9109,-259.9385"/>
<polygon fill="#000000" stroke="#000000" points="1338.9853,-261.6316 1341.5208,-251.3446 1333.1237,-257.8052 1338.9853,-261.6316"/>
</g>
<!-- 39 -->
<g id="node31" class="node">
<title>39</title>
<ellipse fill="none" stroke="#000000" cx="1456.8429" cy="-234" rx="47.4684" ry="18"/>
<text text-anchor="middle" x="1456.8429" y="-229.8" font-family="Times,serif" font-size="14.00" fill="#000000">variable j</text>
</g>
<!-- 38 -->
<g id="node32" class="node">
<title>38</title>
<ellipse fill="none" stroke="#000000" cx="1447.8429" cy="-306" rx="52.105" ry="18"/>
<text text-anchor="middle" x="1447.8429" y="-301.8" font-family="Times,serif" font-size="14.00" fill="#000000">operator &#45;&#45;</text>
</g>
<!-- 38&#45;&gt;39 -->
<g id="edge23" class="edge">
<title>38&#45;&gt;39</title>
<path fill="none" stroke="#000000" d="M1450.114,-287.8314C1451.0766,-280.131 1452.2211,-270.9743 1453.2909,-262.4166"/>
<polygon fill="#000000" stroke="#000000" points="1456.7738,-262.7702 1454.5413,-252.4133 1449.8279,-261.9019 1456.7738,-262.7702"/>
</g>
<!-- 31 -->
<g id="node33" class="node">
<title>31</title>
<ellipse fill="none" stroke="#000000" cx="1305.8429" cy="-378" rx="76.3591" ry="18"/>
<text text-anchor="middle" x="1305.8429" y="-373.8" font-family="Times,serif" font-size="14.00" fill="#000000">cycle parameters</text>
</g>
<!-- 31&#45;&gt;32 -->
<g id="edge24" class="edge">
<title>31&#45;&gt;32</title>
<path fill="none" stroke="#000000" d="M1268.3163,-362.1993C1242.8123,-351.4608 1208.8881,-337.1769 1181.6235,-325.6971"/>
<polygon fill="#000000" stroke="#000000" points="1182.8566,-322.4188 1172.2821,-321.7638 1180.1402,-328.8702 1182.8566,-322.4188"/>
</g>
<!-- 31&#45;&gt;35 -->
<g id="edge25" class="edge">
<title>31&#45;&gt;35</title>
<path fill="none" stroke="#000000" d="M1305.8429,-359.8314C1305.8429,-352.131 1305.8429,-342.9743 1305.8429,-334.4166"/>
<polygon fill="#000000" stroke="#000000" points="1309.343,-334.4132 1305.8429,-324.4133 1302.343,-334.4133 1309.343,-334.4132"/>
</g>
<!-- 31&#45;&gt;38 -->
<g id="edge26" class="edge">
<title>31&#45;&gt;38</title>
<path fill="none" stroke="#000000" d="M1338.0649,-361.6621C1359.1152,-350.9887 1386.7256,-336.9891 1408.9898,-325.7002"/>
<polygon fill="#000000" stroke="#000000" points="1410.8335,-328.6896 1418.1696,-321.0456 1407.6678,-322.4463 1410.8335,-328.6896"/>
</g>
<!-- 42 -->
<g id="node34" class="node">
<title>42</title>
<ellipse fill="none" stroke="#000000" cx="1582.8429" cy="-234" rx="60.7927" ry="18"/>
<text text-anchor="middle" x="1582.8429" y="-229.8" font-family="Times,serif" font-size="14.00" fill="#000000">variable sum</text>
</g>
<!-- 44 -->
<g id="node35" class="node">
<title>44</title>
<ellipse fill="none" stroke="#000000" cx="1586.8429" cy="-162" rx="60.7927" ry="18"/>
<text text-anchor="middle" x="1586.8429" y="-157.8" font-family="Times,serif" font-size="14.00" fill="#000000">variable sum</text>
</g>
<!-- 45 -->
<g id="node36" class="node">
<title>45</title>
<ellipse fill="none" stroke="#000000" cx="1712.8429" cy="-162" rx="47.4684" ry="18"/>
<text text-anchor="middle" x="1712.8429" y="-157.8" font-family="Times,serif" font-size="14.00" fill="#000000">variable j</text>
</g>
<!-- 43 -->
<g id="node37" class="node">
<title>43</title>
<ellipse fill="none" stroke="#000000" cx="1712.8429" cy="-234" rx="51.1369" ry="18"/>
<text text-anchor="middle" x="1712.8429" y="-229.8" font-family="Times,serif" font-size="14.00" fill="#000000">operator +</text>
</g>
<!-- 43&#45;&gt;44 -->
<g id="edge27" class="edge">
<title>43&#45;&gt;44</title>
<path fill="none" stroke="#000000" d="M1685.8128,-218.5542C1667.7532,-208.2345 1643.7633,-194.5259 1623.9256,-183.1901"/>
<polygon fill="#000000" stroke="#000000" points="1625.5584,-180.092 1615.1394,-178.1694 1622.0854,-186.1697 1625.5584,-180.092"/>
</g>
<!-- 43&#45;&gt;45 -->
<g id="edge28" class="edge">
<title>43&#45;&gt;45</title>
<path fill="none" stroke="#000000" d="M1712.8429,-215.8314C1712.8429,-208.131 1712.8429,-198.9743 1712.8429,-190.4166"/>
<polygon fill="#000000" stroke="#000000" points="1716.343,-190.4132 1712.8429,-180.4133 1709.343,-190.4133 1716.343,-190.4132"/>
</g>
<!-- 41 -->
<g id="node38" class="node">
<title>41</title>
<ellipse fill="none" stroke="#000000" cx="1591.8429" cy="-306" rx="62.192" ry="18"/>
<text text-anchor="middle" x="1591.8429" y="-301.8" font-family="Times,serif" font-size="14.00" fill="#000000">assignment =</text>
</g>
<!-- 41&#45;&gt;42 -->
<g id="edge29" class="edge">
<title>41&#45;&gt;42</title>
<path fill="none" stroke="#000000" d="M1589.5719,-287.8314C1588.6093,-280.131 1587.4647,-270.9743 1586.395,-262.4166"/>
<polygon fill="#000000" stroke="#000000" points="1589.858,-261.9019 1585.1446,-252.4133 1582.9121,-262.7702 1589.858,-261.9019"/>
</g>
<!-- 41&#45;&gt;43 -->
<g id="edge30" class="edge">
<title>41&#45;&gt;43</title>
<path fill="none" stroke="#000000" d="M1619.2997,-289.6621C1636.6769,-279.3219 1659.3005,-265.86 1677.9458,-254.7652"/>
<polygon fill="#000000" stroke="#000000" points="1679.9351,-257.6543 1686.739,-249.5329 1676.3556,-251.6387 1679.9351,-257.6543"/>
</g>
<!-- 49 -->
<g id="node39" class="node">
<title>49</title>
<ellipse fill="none" stroke="#000000" cx="1838.8429" cy="-162" rx="60.7927" ry="18"/>
<text text-anchor="middle" x="1838.8429" y="-157.8" font-family="Times,serif" font-size="14.00" fill="#000000">variable sum</text>
</g>
<!-- 50 -->
<g id="node40" class="node">
<title>50</title>
<ellipse fill="none" stroke="#000000" cx="1955.8429" cy="-162" rx="38.8249" ry="18"/>
<text text-anchor="middle" x="1955.8429" y="-157.8" font-family="Times,serif" font-size="14.00" fill="#000000">const 0</text>
</g>
<!-- 48 -->
<g id="node41" class="node">
<title>48</title>
<ellipse fill="none" stroke="#000000" cx="1897.8429" cy="-234" rx="56.5279" ry="18"/>
<text text-anchor="middle" x="1897.8429" y="-229.8" font-family="Times,serif" font-size="14.00" fill="#000000">operator ==</text>
</g>
<!-- 48&#45;&gt;49 -->
<g id="edge31" class="edge">
<title>48&#45;&gt;49</title>
<path fill="none" stroke="#000000" d="M1883.5607,-216.5708C1876.3669,-207.7919 1867.5105,-196.9841 1859.5825,-187.3093"/>
<polygon fill="#000000" stroke="#000000" points="1862.2436,-185.0347 1853.1982,-179.5182 1856.8292,-189.4714 1862.2436,-185.0347"/>
</g>
<!-- 48&#45;&gt;50 -->
<g id="edge32" class="edge">
<title>48&#45;&gt;50</title>
<path fill="none" stroke="#000000" d="M1912.18,-216.2022C1919.2372,-207.4416 1927.8666,-196.7293 1935.5846,-187.1482"/>
<polygon fill="#000000" stroke="#000000" points="1938.5225,-189.0805 1942.0702,-179.0972 1933.0712,-184.6891 1938.5225,-189.0805"/>
</g>
<!-- 53 -->
<g id="node42" class="node">
<title>53</title>
<ellipse fill="none" stroke="#000000" cx="2009.8429" cy="-90" rx="60.7927" ry="18"/>
<text text-anchor="middle" x="2009.8429" y="-85.8" font-family="Times,serif" font-size="14.00" fill="#000000">variable sum</text>
</g>
<!-- 55 -->
<g id="node43" class="node">
<title>55</title>
<ellipse fill="none" stroke="#000000" cx="2076.8429" cy="-18" rx="60.7927" ry="18"/>
<text text-anchor="middle" x="2076.8429" y="-13.8" font-family="Times,serif" font-size="14.00" fill="#000000">variable sum</text>
</g>
<!-- 56 -->
<g id="node44" class="node">
<title>56</title>
<ellipse fill="none" stroke="#000000" cx="2202.8429" cy="-18" rx="47.4684" ry="18"/>
<text text-anchor="middle" x="2202.8429" y="-13.8" font-family="Times,serif" font-size="14.00" fill="#000000">variable j</text>
</g>
<!-- 54 -->
<g id="node45" class="node">
<title>54</title>
<ellipse fill="none" stroke="#000000" cx="2139.8429" cy="-90" rx="51.1369" ry="18"/>
<text text-anchor="middle" x="2139.8429" y="-85.8" font-family="Times,serif" font-size="14.00" fill="#000000">operator +</text>
</g>
<!-- 54&#45;&gt;55 -->
<g id="edge33" class="edge">
<title>54&#45;&gt;55</title>
<path fill="none" stroke="#000000" d="M2124.5924,-72.5708C2116.9109,-63.7919 2107.454,-52.9841 2098.9885,-43.3093"/>
<polygon fill="#000000" stroke="#000000" points="2101.3905,-40.7393 2092.1714,-35.5182 2096.1224,-45.3488 2101.3905,-40.7393"/>
</g>
<!-- 54&#45;&gt;56 -->
<g id="edge34" class="edge">
<title>54&#45;&gt;56</title>
<path fill="none" stroke="#000000" d="M2155.0935,-72.5708C2162.9093,-63.6385 2172.563,-52.6056 2181.1404,-42.8029"/>
<polygon fill="#000000" stroke="#000000" points="2183.7818,-45.0993 2187.7328,-35.2687 2178.5137,-40.4897 2183.7818,-45.0993"/>
</g>
<!-- 52 -->
<g id="node46" class="node">
<title>52</title>
<ellipse fill="none" stroke="#000000" cx="2074.8429" cy="-162" rx="62.192" ry="18"/>
<text text-anchor="middle" x="2074.8429" y="-157.8" font-family="Times,serif" font-size="14.00" fill="#000000">assignment =</text>
</g>
<!-- 52&#45;&gt;53 -->
<g id="edge35" class="edge">
<title>52&#45;&gt;53</title>
<path fill="none" stroke="#000000" d="M2059.1082,-144.5708C2051.1036,-135.7041 2041.2305,-124.7678 2032.4299,-115.0194"/>
<polygon fill="#000000" stroke="#000000" points="2034.957,-112.5956 2025.658,-107.5182 2029.7611,-117.2863 2034.957,-112.5956"/>
</g>
<!-- 52&#45;&gt;54 -->
<g id="edge36" class="edge">
<title>52&#45;&gt;54</title>
<path fill="none" stroke="#000000" d="M2090.5776,-144.5708C2098.6415,-135.6385 2108.6017,-124.6056 2117.4514,-114.8029"/>
<polygon fill="#000000" stroke="#000000" points="2120.15,-117.0368 2124.2531,-107.2687 2114.9541,-112.346 2120.15,-117.0368"/>
</g>
<!-- 51 -->
<g id="node47" class="node">
<title>51</title>
<ellipse fill="none" stroke="#000000" cx="2038.8429" cy="-234" rx="30.2015" ry="18"/>
<text text-anchor="middle" x="2038.8429" y="-229.8" font-family="Times,serif" font-size="14.00" fill="#000000">body</text>
</g>
<!-- 51&#45;&gt;52 -->
<g id="edge37" class="edge">
<title>51&#45;&gt;52</title>
<path fill="none" stroke="#000000" d="M2047.5575,-216.5708C2051.6657,-208.3544 2056.6625,-198.3608 2061.2519,-189.1821"/>
<polygon fill="#000000" stroke="#000000" points="2064.4909,-190.5301 2065.8326,-180.0206 2058.2299,-187.3996 2064.4909,-190.5301"/>
</g>
<!-- 47 -->
<g id="node48" class="node">
<title>47</title>
<ellipse fill="none" stroke="#000000" cx="1897.8429" cy="-306" rx="55.6591" ry="18"/>
<text text-anchor="middle" x="1897.8429" y="-301.8" font-family="Times,serif" font-size="14.00" fill="#000000">condition if</text>
</g>
<!-- 47&#45;&gt;48 -->
<g id="edge38" class="edge">
<title>47&#45;&gt;48</title>
<path fill="none" stroke="#000000" d="M1897.8429,-287.8314C1897.8429,-280.131 1897.8429,-270.9743 1897.8429,-262.4166"/>
<polygon fill="#000000" stroke="#000000" points="1901.343,-262.4132 1897.8429,-252.4133 1894.343,-262.4133 1901.343,-262.4132"/>
</g>
<!-- 47&#45;&gt;51 -->
<g id="edge39" class="edge">
<title>47&#45;&gt;51</title>
<path fill="none" stroke="#000000" d="M1927.7454,-290.7307C1950.8677,-278.9235 1982.8283,-262.6032 2006.5356,-250.4974"/>
<polygon fill="#000000" stroke="#000000" points="2008.186,-253.5846 2015.5003,-245.9196 2005.0025,-247.3503 2008.186,-253.5846"/>
</g>
<!-- 40 -->
<g id="node49" class="node">
<title>40</title>
<ellipse fill="none" stroke="#000000" cx="1591.8429" cy="-378" rx="30.2015" ry="18"/>
<text text-anchor="middle" x="1591.8429" y="-373.8" font-family="Times,serif" font-size="14.00" fill="#000000">body</text>
</g>
<!-- 40&#45;&gt;41 -->
<g id="edge40" class="edge">
<title>40&#45;&gt;41</title>
<path fill="none" stroke="#000000" d="M1591.8429,-359.8314C1591.8429,-352.131 1591.8429,-342.9743 1591.8429,-334.4166"/>
<polygon fill="#000000" stroke="#000000" points="1595.343,-334.4132 1591.8429,-324.4133 1588.343,-334.4133 1595.343,-334.4132"/>
</g>
<!-- 40&#45;&gt;47 -->
<g id="edge41" class="edge">
<title>40&#45;&gt;47</title>
<path fill="none" stroke="#000000" d="M1620.0822,-371.3555C1670.6045,-359.4679 1777.2852,-334.3665 1842.7439,-318.9645"/>
<polygon fill="#000000" stroke="#000000" points="1843.5532,-322.3697 1852.4857,-316.6723 1841.9499,-315.5558 1843.5532,-322.3697"/>
</g>
<!-- 30 -->
<g id="node50" class="node">
<title>30</title>
<ellipse fill="none" stroke="#000000" cx="1305.8429" cy="-450" rx="45.1623" ry="18"/>
<text text-anchor="middle" x="1305.8429" y="-445.8" font-family="Times,serif" font-size="14.00" fill="#000000">cycle for</text>
</g>
<!-- 30&#45;&gt;31 -->
<g id="edge42" class="edge">
<title>30&#45;&gt;31</title>
<path fill="none" stroke="#000000" d="M1305.8429,-431.8314C1305.8429,-424.131 1305.8429,-414.9743 1305.8429,-406.4166"/>
<polygon fill="#000000" stroke="#000000" points="1309.343,-406.4132 1305.8429,-396.4133 1302.343,-406.4133 1309.343,-406.4132"/>
</g>
<!-- 30&#45;&gt;40 -->
<g id="edge43" class="edge">
<title>30&#45;&gt;40</title>
<path fill="none" stroke="#000000" d="M1344.1174,-440.3645C1398.8848,-426.5769 1499.0189,-401.3683 1553.7087,-387.6002"/>
<polygon fill="#000000" stroke="#000000" points="1554.8493,-390.9224 1563.6922,-385.0869 1553.1403,-384.1342 1554.8493,-390.9224"/>
</g>
<!-- 15 -->
<g id="node51" class="node">
<title>15</title>
<ellipse fill="none" stroke="#000000" cx="793.8429" cy="-522" rx="30.2015" ry="18"/>
<text text-anchor="middle" x="793.8429" y="-517.8" font-family="Times,serif" font-size="14.00" fill="#000000">body</text>
</g>
<!-- 15&#45;&gt;16 -->
<g id="edge44" class="edge">
<title>15&#45;&gt;16</title>
<path fill="none" stroke="#000000" d="M776.2309,-507.0816C765.036,-497.5989 750.284,-485.103 737.4372,-474.221"/>
<polygon fill="#000000" stroke="#000000" points="739.6259,-471.4881 729.7332,-467.6953 735.1015,-476.8295 739.6259,-471.4881"/>
</g>
<!-- 15&#45;&gt;18 -->
<g id="edge45" class="edge">
<title>15&#45;&gt;18</title>
<path fill="none" stroke="#000000" d="M811.6622,-507.0816C823.1517,-497.4624 838.3446,-484.7428 851.4721,-473.7523"/>
<polygon fill="#000000" stroke="#000000" points="853.9066,-476.2788 859.3275,-467.1757 849.4131,-470.9115 853.9066,-476.2788"/>
</g>
<!-- 15&#45;&gt;30 -->
<g id="edge46" class="edge">
<title>15&#45;&gt;30</title>
<path fill="none" stroke="#000000" d="M823.5833,-517.8178C907.4224,-506.0279 1146.4991,-472.4077 1253.2508,-457.3958"/>
<polygon fill="#000000" stroke="#000000" points="1253.7438,-460.861 1263.1589,-456.0024 1252.7689,-453.9292 1253.7438,-460.861"/>
</g>
<!-- 10 -->
<g id="node52" class="node">
<title>10</title>
<ellipse fill="none" stroke="#000000" cx="444.8429" cy="-594" rx="55.0816" ry="18"/>
<text text-anchor="middle" x="444.8429" y="-589.8" font-family="Times,serif" font-size="14.00" fill="#000000">method foo</text>
</g>
<!-- 10&#45;&gt;14 -->
<g id="edge47" class="edge">
<title>10&#45;&gt;14</title>
<path fill="none" stroke="#000000" d="M431.0002,-576.2022C424.2365,-567.506 415.977,-556.8867 408.5672,-547.3598"/>
<polygon fill="#000000" stroke="#000000" points="411.2353,-545.0893 402.3332,-539.3446 405.7099,-549.3869 411.2353,-545.0893"/>
</g>
<!-- 10&#45;&gt;11 -->
<g id="edge48" class="edge">
<title>10&#45;&gt;11</title>
<path fill="none" stroke="#000000" d="M458.9328,-576.2022C465.8174,-567.506 474.2243,-556.8867 481.7664,-547.3598"/>
<polygon fill="#000000" stroke="#000000" points="484.6489,-549.3575 488.1118,-539.3446 479.1606,-545.0126 484.6489,-549.3575"/>
</g>
<!-- 10&#45;&gt;15 -->
<g id="edge49" class="edge">
<title>10&#45;&gt;15</title>
<path fill="none" stroke="#000000" d="M491.5485,-584.3645C561.0141,-570.0335 690.2898,-543.3634 754.9344,-530.027"/>
<polygon fill="#000000" stroke="#000000" points="755.649,-533.4534 764.7355,-528.005 754.2346,-526.5977 755.649,-533.4534"/>
</g>
<!-- 5 -->
<g id="node53" class="node">
<title>5</title>
<ellipse fill="none" stroke="#000000" cx="363.8429" cy="-666" rx="43.5214" ry="18"/>
<text text-anchor="middle" x="363.8429" y="-661.8" font-family="Times,serif" font-size="14.00" fill="#000000">methods</text>
</g>
<!-- 5&#45;&gt;10 -->
<g id="edge50" class="edge">
<title>5&#45;&gt;10</title>
<path fill="none" stroke="#000000" d="M382.2231,-649.6621C392.7662,-640.2905 406.1941,-628.3545 417.9097,-617.9407"/>
<polygon fill="#000000" stroke="#000000" points="420.5415,-620.2841 425.6904,-611.0245 415.891,-615.0522 420.5415,-620.2841"/>
</g>
<!-- 1 -->
<g id="node54" class="node">
<title>1</title>
<ellipse fill="none" stroke="#000000" cx="229.8429" cy="-738" rx="52.7041" ry="18"/>
<text text-anchor="middle" x="229.8429" y="-733.8" font-family="Times,serif" font-size="14.00" fill="#000000">class Main</text>
</g>
<!-- 1&#45;&gt;2 -->
<g id="edge51" class="edge">
<title>1&#45;&gt;2</title>
<path fill="none" stroke="#000000" d="M202.1692,-722.5542C183.0805,-711.9 157.5202,-697.6338 136.8477,-686.0957"/>
<polygon fill="#000000" stroke="#000000" points="138.4659,-682.9906 128.0281,-681.1731 135.0543,-689.103 138.4659,-682.9906"/>
</g>
<!-- 1&#45;&gt;4 -->
<g id="edge52" class="edge">
<title>1&#45;&gt;4</title>
<path fill="none" stroke="#000000" d="M229.8429,-719.8314C229.8429,-712.131 229.8429,-702.9743 229.8429,-694.4166"/>
<polygon fill="#000000" stroke="#000000" points="233.343,-694.4132 229.8429,-684.4133 226.343,-694.4133 233.343,-694.4132"/>
</g>
<!-- 1&#45;&gt;5 -->
<g id="edge53" class="edge">
<title>1&#45;&gt;5</title>
<path fill="none" stroke="#000000" d="M258.2609,-722.7307C278.5619,-711.8226 306.0319,-697.0626 327.8632,-685.3324"/>
<polygon fill="#000000" stroke="#000000" points="329.6846,-688.327 336.8369,-680.5107 326.3713,-682.1608 329.6846,-688.327"/>
</g>
<!-- 0 -->
<g id="node55" class="node">
<title>0</title>
<ellipse fill="none" stroke="#000000" cx="229.8429" cy="-810" rx="77.6136" ry="18"/>
<text text-anchor="middle" x="229.8429" y="-805.8" font-family="Times,serif" font-size="14.00" fill="#000000">package mishdev</text>
</g>
<!-- 0&#45;&gt;1 -->
<g id="edge54" class="edge">
<title>0&#45;&gt;1</title>
<path fill="none" stroke="#000000" d="M229.8429,-791.8314C229.8429,-784.131 229.8429,-774.9743 229.8429,-766.4166"/>
<polygon fill="#000000" stroke="#000000" points="233.343,-766.4132 229.8429,-756.4133 226.343,-766.4133 233.343,-766.4132"/>
</g>
</g>
</svg>
