<svg width="2895px" height="1115px"
 viewBox="0.00 0.00 2171.08 836.00" xmlns="http://www.w3.org/2000/svg" xmlns:xlink="http://www.w3.org/1999/xlink">
<g id="graph0" class="graph" transform="scale(1.0 1.0) rotate(0) translate(4 832)">
<title>%0</title>
<polygon fill="#ffffff" stroke="transparent" points="-4,4 -4,-832 2167.0766,-832 2167.0766,4 -4,4"/>
<!-- 3 -->
<g id="node1" class="node">
<title>3</title>
<ellipse fill="none" stroke="#000000" cx="70.8429" cy="-594" rx="70.6862" ry="18"/>
<text text-anchor="middle" x="70.8429" y="-589.8" font-family="Times,serif" font-size="14.00" fill="#000000">modifier public</text>
</g>
<!-- 2 -->
<g id="node2" class="node">
<title>2</title>
<ellipse fill="none" stroke="#000000" cx="100.8429" cy="-666" rx="48.0897" ry="18"/>
<text text-anchor="middle" x="100.8429" y="-661.8" font-family="Times,serif" font-size="14.00" fill="#000000">modifiers</text>
</g>
<!-- 2&#45;&gt;3 -->
<g id="edge1" class="edge">
<title>2&#45;&gt;3</title>
<path fill="none" stroke="#000000" d="M93.4272,-648.2022C90.0632,-640.1287 86.0086,-630.3976 82.2688,-621.422"/>
<polygon fill="#000000" stroke="#000000" points="85.4587,-619.9777 78.3817,-612.0931 78.9972,-622.6701 85.4587,-619.9777"/>
</g>
<!-- 9 -->
<g id="node3" class="node">
<title>9</title>
<ellipse fill="none" stroke="#000000" cx="123.8429" cy="-522" rx="40.049" ry="18"/>
<text text-anchor="middle" x="123.8429" y="-517.8" font-family="Times,serif" font-size="14.00" fill="#000000">type int</text>
</g>
<!-- 8 -->
<g id="node4" class="node">
<title>8</title>
<ellipse fill="none" stroke="#000000" cx="201.8429" cy="-450" rx="73.532" ry="18"/>
<text text-anchor="middle" x="201.8429" y="-445.8" font-family="Times,serif" font-size="14.00" fill="#000000">modifier private</text>
</g>
<!-- 7 -->
<g id="node5" class="node">
<title>7</title>
<ellipse fill="none" stroke="#000000" cx="229.8429" cy="-522" rx="48.0897" ry="18"/>
<text text-anchor="middle" x="229.8429" y="-517.8" font-family="Times,serif" font-size="14.00" fill="#000000">modifiers</text>
</g>
<!-- 7&#45;&gt;8 -->
<g id="edge2" class="edge">
<title>7&#45;&gt;8</title>
<path fill="none" stroke="#000000" d="M222.7773,-503.8314C219.7169,-495.9617 216.065,-486.5712 212.6748,-477.8533"/>
<polygon fill="#000000" stroke="#000000" points="215.8902,-476.4647 209.0036,-468.4133 209.3662,-479.0019 215.8902,-476.4647"/>
</g>
<!-- 6 -->
<g id="node6" class="node">
<title>6</title>
<ellipse fill="none" stroke="#000000" cx="229.8429" cy="-594" rx="69.5351" ry="18"/>
<text text-anchor="middle" x="229.8429" y="-589.8" font-family="Times,serif" font-size="14.00" fill="#000000">field classField</text>
</g>
<!-- 6&#45;&gt;9 -->
<g id="edge3" class="edge">
<title>6&#45;&gt;9</title>
<path fill="none" stroke="#000000" d="M204.9906,-577.1192C189.9144,-566.8787 170.5575,-553.7306 154.5305,-542.8444"/>
<polygon fill="#000000" stroke="#000000" points="156.2564,-539.7857 146.0176,-537.062 152.3232,-545.5762 156.2564,-539.7857"/>
</g>
<!-- 6&#45;&gt;7 -->
<g id="edge4" class="edge">
<title>6&#45;&gt;7</title>
<path fill="none" stroke="#000000" d="M229.8429,-575.8314C229.8429,-568.131 229.8429,-558.9743 229.8429,-550.4166"/>
<polygon fill="#000000" stroke="#000000" points="233.343,-550.4132 229.8429,-540.4133 226.343,-550.4133 233.343,-550.4132"/>
</g>
<!-- 4 -->
<g id="node7" class="node">
<title>4</title>
<ellipse fill="none" stroke="#000000" cx="229.8429" cy="-666" rx="32.4788" ry="18"/>
<text text-anchor="middle" x="229.8429" y="-661.8" font-family="Times,serif" font-size="14.00" fill="#000000">fields</text>
</g>
<!-- 4&#45;&gt;6 -->
<g id="edge5" class="edge">
<title>4&#45;&gt;6</title>
<path fill="none" stroke="#000000" d="M229.8429,-647.8314C229.8429,-640.131 229.8429,-630.9743 229.8429,-622.4166"/>
<polygon fill="#000000" stroke="#000000" points="233.343,-622.4132 229.8429,-612.4133 226.343,-622.4133 233.343,-622.4132"/>
</g>
<!-- 14 -->
<g id="node8" class="node">
<title>14</title>
<ellipse fill="none" stroke="#000000" cx="377.8429" cy="-522" rx="47.4956" ry="18"/>
<text text-anchor="middle" x="377.8429" y="-517.8" font-family="Times,serif" font-size="14.00" fill="#000000">type void</text>
</g>
<!-- 12 -->
<g id="node9" class="node">
<title>12</title>
<ellipse fill="none" stroke="#000000" cx="363.8429" cy="-450" rx="70.6862" ry="18"/>
<text text-anchor="middle" x="363.8429" y="-445.8" font-family="Times,serif" font-size="14.00" fill="#000000">modifier public</text>
</g>
<!-- 13 -->
<g id="node10" class="node">
<title>13</title>
<ellipse fill="none" stroke="#000000" cx="519.8429" cy="-450" rx="67.1671" ry="18"/>
<text text-anchor="middle" x="519.8429" y="-445.8" font-family="Times,serif" font-size="14.00" fill="#000000">modifier static</text>
</g>
<!-- 11 -->
<g id="node11" class="node">
<title>11</title>
<ellipse fill="none" stroke="#000000" cx="490.8429" cy="-522" rx="48.0897" ry="18"/>
<text text-anchor="middle" x="490.8429" y="-517.8" font-family="Times,serif" font-size="14.00" fill="#000000">modifiers</text>
</g>
<!-- 11&#45;&gt;12 -->
<g id="edge6" class="edge">
<title>11&#45;&gt;12</title>
<path fill="none" stroke="#000000" d="M464.2196,-506.9064C446.1801,-496.6793 422.0642,-483.0073 401.9917,-471.6277"/>
<polygon fill="#000000" stroke="#000000" points="403.5156,-468.4683 393.0901,-466.5811 400.0632,-474.5577 403.5156,-468.4683"/>
</g>
<!-- 11&#45;&gt;13 -->
<g id="edge7" class="edge">
<title>11&#45;&gt;13</title>
<path fill="none" stroke="#000000" d="M498.1609,-503.8314C501.3793,-495.8406 505.2294,-486.2819 508.7861,-477.4514"/>
<polygon fill="#000000" stroke="#000000" points="512.1382,-478.4969 512.6278,-467.9134 505.6451,-475.8816 512.1382,-478.4969"/>
</g>
<!-- 19 -->
<g id="node12" class="node">
<title>19</title>
<ellipse fill="none" stroke="#000000" cx="335.8429" cy="-306" rx="60.7927" ry="18"/>
<text text-anchor="middle" x="335.8429" y="-301.8" font-family="Times,serif" font-size="14.00" fill="#000000">variable sum</text>
</g>
<!-- 20 -->
<g id="node13" class="node">
<title>20</title>
<ellipse fill="none" stroke="#000000" cx="452.8429" cy="-306" rx="38.8249" ry="18"/>
<text text-anchor="middle" x="452.8429" y="-301.8" font-family="Times,serif" font-size="14.00" fill="#000000">const 0</text>
</g>
<!-- 18 -->
<g id="node14" class="node">
<title>18</title>
<ellipse fill="none" stroke="#000000" cx="452.8429" cy="-378" rx="56.5279" ry="18"/>
<text text-anchor="middle" x="452.8429" y="-373.8" font-family="Times,serif" font-size="14.00" fill="#000000">operator ==</text>
</g>
<!-- 18&#45;&gt;19 -->
<g id="edge8" class="edge">
<title>18&#45;&gt;19</title>
<path fill="none" stroke="#000000" d="M426.5858,-361.8418C410.2919,-351.8147 389.1447,-338.8011 371.3646,-327.8595"/>
<polygon fill="#000000" stroke="#000000" points="372.7681,-324.6136 362.4172,-322.3534 369.0994,-330.5752 372.7681,-324.6136"/>
</g>
<!-- 18&#45;&gt;20 -->
<g id="edge9" class="edge">
<title>18&#45;&gt;20</title>
<path fill="none" stroke="#000000" d="M452.8429,-359.8314C452.8429,-352.131 452.8429,-342.9743 452.8429,-334.4166"/>
<polygon fill="#000000" stroke="#000000" points="456.343,-334.4132 452.8429,-324.4133 449.343,-334.4133 456.343,-334.4132"/>
</g>
<!-- 23 -->
<g id="node15" class="node">
<title>23</title>
<ellipse fill="none" stroke="#000000" cx="446.8429" cy="-234" rx="60.7927" ry="18"/>
<text text-anchor="middle" x="446.8429" y="-229.8" font-family="Times,serif" font-size="14.00" fill="#000000">variable sum</text>
</g>
<!-- 25 -->
<g id="node16" class="node">
<title>25</title>
<ellipse fill="none" stroke="#000000" cx="511.8429" cy="-162" rx="60.7927" ry="18"/>
<text text-anchor="middle" x="511.8429" y="-157.8" font-family="Times,serif" font-size="14.00" fill="#000000">variable sum</text>
</g>
<!-- 26 -->
<g id="node17" class="node">
<title>26</title>
<ellipse fill="none" stroke="#000000" cx="637.8429" cy="-162" rx="47.4684" ry="18"/>
<text text-anchor="middle" x="637.8429" y="-157.8" font-family="Times,serif" font-size="14.00" fill="#000000">variable j</text>
</g>
<!-- 24 -->
<g id="node18" class="node">
<title>24</title>
<ellipse fill="none" stroke="#000000" cx="576.8429" cy="-234" rx="51.1369" ry="18"/>
<text text-anchor="middle" x="576.8429" y="-229.8" font-family="Times,serif" font-size="14.00" fill="#000000">operator +</text>
</g>
<!-- 24&#45;&gt;25 -->
<g id="edge10" class="edge">
<title>24&#45;&gt;25</title>
<path fill="none" stroke="#000000" d="M561.1082,-216.5708C553.1036,-207.7041 543.2305,-196.7678 534.4299,-187.0194"/>
<polygon fill="#000000" stroke="#000000" points="536.957,-184.5956 527.658,-179.5182 531.7611,-189.2863 536.957,-184.5956"/>
</g>
<!-- 24&#45;&gt;26 -->
<g id="edge11" class="edge">
<title>24&#45;&gt;26</title>
<path fill="none" stroke="#000000" d="M591.6093,-216.5708C599.1021,-207.7269 608.3393,-196.8239 616.5824,-187.0945"/>
<polygon fill="#000000" stroke="#000000" points="619.4188,-189.161 623.2125,-179.2687 614.0779,-184.6361 619.4188,-189.161"/>
</g>
<!-- 22 -->
<g id="node19" class="node">
<title>22</title>
<ellipse fill="none" stroke="#000000" cx="571.8429" cy="-306" rx="62.192" ry="18"/>
<text text-anchor="middle" x="571.8429" y="-301.8" font-family="Times,serif" font-size="14.00" fill="#000000">assignment =</text>
</g>
<!-- 22&#45;&gt;23 -->
<g id="edge12" class="edge">
<title>22&#45;&gt;23</title>
<path fill="none" stroke="#000000" d="M543.7905,-289.8418C526.0186,-279.6052 502.8426,-266.2558 483.6071,-255.1762"/>
<polygon fill="#000000" stroke="#000000" points="485.214,-252.0627 474.8017,-250.1043 481.7201,-258.1284 485.214,-252.0627"/>
</g>
<!-- 22&#45;&gt;24 -->
<g id="edge13" class="edge">
<title>22&#45;&gt;24</title>
<path fill="none" stroke="#000000" d="M573.1046,-287.8314C573.6394,-280.131 574.2753,-270.9743 574.8696,-262.4166"/>
<polygon fill="#000000" stroke="#000000" points="578.363,-262.6317 575.5642,-252.4133 571.3798,-262.1467 578.363,-262.6317"/>
</g>
<!-- 27 -->
<g id="node20" class="node">
<title>27</title>
<ellipse fill="none" stroke="#000000" cx="696.8429" cy="-306" rx="44.0833" ry="18"/>
<text text-anchor="middle" x="696.8429" y="-301.8" font-family="Times,serif" font-size="14.00" fill="#000000">continue</text>
</g>
<!-- 21 -->
<g id="node21" class="node">
<title>21</title>
<ellipse fill="none" stroke="#000000" cx="648.8429" cy="-378" rx="30.2015" ry="18"/>
<text text-anchor="middle" x="648.8429" y="-373.8" font-family="Times,serif" font-size="14.00" fill="#000000">body</text>
</g>
<!-- 21&#45;&gt;22 -->
<g id="edge14" class="edge">
<title>21&#45;&gt;22</title>
<path fill="none" stroke="#000000" d="M632.5132,-362.7307C622.47,-353.3396 609.3736,-341.0936 597.92,-330.3838"/>
<polygon fill="#000000" stroke="#000000" points="600.0056,-327.5422 590.3108,-323.2687 595.2246,-332.6551 600.0056,-327.5422"/>
</g>
<!-- 21&#45;&gt;27 -->
<g id="edge15" class="edge">
<title>21&#45;&gt;27</title>
<path fill="none" stroke="#000000" d="M660.2183,-360.937C665.9916,-352.277 673.1275,-341.5731 679.5624,-331.9207"/>
<polygon fill="#000000" stroke="#000000" points="682.581,-333.7027 685.2158,-323.4407 676.7566,-329.8197 682.581,-333.7027"/>
</g>
<!-- 17 -->
<g id="node22" class="node">
<title>17</title>
<ellipse fill="none" stroke="#000000" cx="660.8429" cy="-450" rx="55.6591" ry="18"/>
<text text-anchor="middle" x="660.8429" y="-445.8" font-family="Times,serif" font-size="14.00" fill="#000000">condition if</text>
</g>
<!-- 17&#45;&gt;18 -->
<g id="edge16" class="edge">
<title>17&#45;&gt;18</title>
<path fill="none" stroke="#000000" d="M622.6925,-436.7941C588.4566,-424.9432 538.0474,-407.4938 501.036,-394.6822"/>
<polygon fill="#000000" stroke="#000000" points="502.0506,-391.3297 491.4559,-391.366 499.7608,-397.9446 502.0506,-391.3297"/>
</g>
<!-- 17&#45;&gt;21 -->
<g id="edge17" class="edge">
<title>17&#45;&gt;21</title>
<path fill="none" stroke="#000000" d="M657.8148,-431.8314C656.5117,-424.0125 654.9583,-414.6923 653.5133,-406.0221"/>
<polygon fill="#000000" stroke="#000000" points="656.925,-405.2019 651.8285,-395.9134 650.0202,-406.3528 656.925,-405.2019"/>
</g>
<!-- 29 -->
<g id="node23" class="node">
<title>29</title>
<ellipse fill="none" stroke="#000000" cx="737.8429" cy="-378" rx="40.049" ry="18"/>
<text text-anchor="middle" x="737.8429" y="-373.8" font-family="Times,serif" font-size="14.00" fill="#000000">type int</text>
</g>
<!-- 32 -->
<g id="node24" class="node">
<title>32</title>
<ellipse fill="none" stroke="#000000" cx="695.8429" cy="-234" rx="38.8249" ry="18"/>
<text text-anchor="middle" x="695.8429" y="-229.8" font-family="Times,serif" font-size="14.00" fill="#000000">const 8</text>
</g>
<!-- 34 -->
<g id="node25" class="node">
<title>34</title>
<ellipse fill="none" stroke="#000000" cx="772.8429" cy="-162" rx="38.8249" ry="18"/>
<text text-anchor="middle" x="772.8429" y="-157.8" font-family="Times,serif" font-size="14.00" fill="#000000">const 5</text>
</g>
<!-- 35 -->
<g id="node26" class="node">
<title>35</title>
<ellipse fill="none" stroke="#000000" cx="872.8429" cy="-162" rx="43.4812" ry="18"/>
<text text-anchor="middle" x="872.8429" y="-157.8" font-family="Times,serif" font-size="14.00" fill="#000000">const 10</text>
</g>
<!-- 33 -->
<g id="node27" class="node">
<title>33</title>
<ellipse fill="none" stroke="#000000" cx="803.8429" cy="-234" rx="51.1369" ry="18"/>
<text text-anchor="middle" x="803.8429" y="-229.8" font-family="Times,serif" font-size="14.00" fill="#000000">operator +</text>
</g>
<!-- 33&#45;&gt;34 -->
<g id="edge18" class="edge">
<title>33&#45;&gt;34</title>
<path fill="none" stroke="#000000" d="M796.18,-216.2022C792.6776,-208.0675 788.4506,-198.2501 784.5619,-189.2181"/>
<polygon fill="#000000" stroke="#000000" points="787.6945,-187.6433 780.5251,-179.8425 781.2651,-190.4115 787.6945,-187.6433"/>
</g>
<!-- 33&#45;&gt;35 -->
<g id="edge19" class="edge">
<title>33&#45;&gt;35</title>
<path fill="none" stroke="#000000" d="M820.195,-216.937C828.9599,-207.791 839.9096,-196.3652 849.5496,-186.3061"/>
<polygon fill="#000000" stroke="#000000" points="852.2162,-188.5821 856.6083,-178.9405 847.1622,-183.7387 852.2162,-188.5821"/>
</g>
<!-- 31 -->
<g id="node28" class="node">
<title>31</title>
<ellipse fill="none" stroke="#000000" cx="809.8429" cy="-306" rx="51.1369" ry="18"/>
<text text-anchor="middle" x="809.8429" y="-301.8" font-family="Times,serif" font-size="14.00" fill="#000000">operator +</text>
</g>
<!-- 31&#45;&gt;32 -->
<g id="edge20" class="edge">
<title>31&#45;&gt;32</title>
<path fill="none" stroke="#000000" d="M784.8251,-290.1993C767.9275,-279.5271 745.4854,-265.3532 727.3671,-253.91"/>
<polygon fill="#000000" stroke="#000000" points="729.1871,-250.9199 718.8632,-248.5391 725.4491,-256.8383 729.1871,-250.9199"/>
</g>
<!-- 31&#45;&gt;33 -->
<g id="edge21" class="edge">
<title>31&#45;&gt;33</title>
<path fill="none" stroke="#000000" d="M808.3289,-287.8314C807.6872,-280.131 806.9241,-270.9743 806.211,-262.4166"/>
<polygon fill="#000000" stroke="#000000" points="809.6958,-262.088 805.3774,-252.4133 802.72,-262.6694 809.6958,-262.088"/>
</g>
<!-- 30 -->
<g id="node29" class="node">
<title>30</title>
<ellipse fill="none" stroke="#000000" cx="858.8429" cy="-378" rx="62.192" ry="18"/>
<text text-anchor="middle" x="858.8429" y="-373.8" font-family="Times,serif" font-size="14.00" fill="#000000">assignment =</text>
</g>
<!-- 30&#45;&gt;31 -->
<g id="edge22" class="edge">
<title>30&#45;&gt;31</title>
<path fill="none" stroke="#000000" d="M846.7306,-360.2022C840.9748,-351.7448 833.9812,-341.4685 827.6374,-332.147"/>
<polygon fill="#000000" stroke="#000000" points="830.3357,-329.891 821.816,-323.593 824.5487,-333.8294 830.3357,-329.891"/>
</g>
<!-- 28 -->
<g id="node30" class="node">
<title>28</title>
<ellipse fill="none" stroke="#000000" cx="847.8429" cy="-450" rx="90.8685" ry="18"/>
<text text-anchor="middle" x="847.8429" y="-445.8" font-family="Times,serif" font-size="14.00" fill="#000000">declare variable sum</text>
</g>
<!-- 28&#45;&gt;29 -->
<g id="edge23" class="edge">
<title>28&#45;&gt;29</title>
<path fill="none" stroke="#000000" d="M821.4952,-432.7542C805.8357,-422.5044 785.8769,-409.4404 769.3824,-398.644"/>
<polygon fill="#000000" stroke="#000000" points="770.9084,-395.4598 760.6246,-392.9116 767.0748,-401.3167 770.9084,-395.4598"/>
</g>
<!-- 28&#45;&gt;30 -->
<g id="edge24" class="edge">
<title>28&#45;&gt;30</title>
<path fill="none" stroke="#000000" d="M850.6187,-431.8314C851.7951,-424.131 853.1941,-414.9743 854.5015,-406.4166"/>
<polygon fill="#000000" stroke="#000000" points="857.9793,-406.8272 856.0298,-396.4133 851.0596,-405.7699 857.9793,-406.8272"/>
</g>
<!-- 40 -->
<g id="node31" class="node">
<title>40</title>
<ellipse fill="none" stroke="#000000" cx="912.8429" cy="-234" rx="40.049" ry="18"/>
<text text-anchor="middle" x="912.8429" y="-229.8" font-family="Times,serif" font-size="14.00" fill="#000000">type int</text>
</g>
<!-- 42 -->
<g id="node32" class="node">
<title>42</title>
<ellipse fill="none" stroke="#000000" cx="1033.8429" cy="-162" rx="48.1388" ry="18"/>
<text text-anchor="middle" x="1033.8429" y="-157.8" font-family="Times,serif" font-size="14.00" fill="#000000">const 123</text>
</g>
<!-- 41 -->
<g id="node33" class="node">
<title>41</title>
<ellipse fill="none" stroke="#000000" cx="1033.8429" cy="-234" rx="62.192" ry="18"/>
<text text-anchor="middle" x="1033.8429" y="-229.8" font-family="Times,serif" font-size="14.00" fill="#000000">assignment =</text>
</g>
<!-- 41&#45;&gt;42 -->
<g id="edge25" class="edge">
<title>41&#45;&gt;42</title>
<path fill="none" stroke="#000000" d="M1033.8429,-215.8314C1033.8429,-208.131 1033.8429,-198.9743 1033.8429,-190.4166"/>
<polygon fill="#000000" stroke="#000000" points="1037.343,-190.4132 1033.8429,-180.4133 1030.343,-190.4133 1037.343,-190.4132"/>
</g>
<!-- 39 -->
<g id="node34" class="node">
<title>39</title>
<ellipse fill="none" stroke="#000000" cx="1033.8429" cy="-306" rx="77.5434" ry="18"/>
<text text-anchor="middle" x="1033.8429" y="-301.8" font-family="Times,serif" font-size="14.00" fill="#000000">declare variable j</text>
</g>
<!-- 39&#45;&gt;40 -->
<g id="edge26" class="edge">
<title>39&#45;&gt;40</title>
<path fill="none" stroke="#000000" d="M1005.4738,-289.1192C987.7053,-278.5462 964.7279,-264.8737 946.1033,-253.7913"/>
<polygon fill="#000000" stroke="#000000" points="947.7353,-250.6897 937.3519,-248.5838 944.1558,-256.7053 947.7353,-250.6897"/>
</g>
<!-- 39&#45;&gt;41 -->
<g id="edge27" class="edge">
<title>39&#45;&gt;41</title>
<path fill="none" stroke="#000000" d="M1033.8429,-287.8314C1033.8429,-280.131 1033.8429,-270.9743 1033.8429,-262.4166"/>
<polygon fill="#000000" stroke="#000000" points="1037.343,-262.4132 1033.8429,-252.4133 1030.343,-262.4133 1037.343,-262.4132"/>
</g>
<!-- 44 -->
<g id="node35" class="node">
<title>44</title>
<ellipse fill="none" stroke="#000000" cx="1161.8429" cy="-234" rx="47.4684" ry="18"/>
<text text-anchor="middle" x="1161.8429" y="-229.8" font-family="Times,serif" font-size="14.00" fill="#000000">variable j</text>
</g>
<!-- 45 -->
<g id="node36" class="node">
<title>45</title>
<ellipse fill="none" stroke="#000000" cx="1265.8429" cy="-234" rx="38.8249" ry="18"/>
<text text-anchor="middle" x="1265.8429" y="-229.8" font-family="Times,serif" font-size="14.00" fill="#000000">const 0</text>
</g>
<!-- 43 -->
<g id="node37" class="node">
<title>43</title>
<ellipse fill="none" stroke="#000000" cx="1211.8429" cy="-306" rx="51.1369" ry="18"/>
<text text-anchor="middle" x="1211.8429" y="-301.8" font-family="Times,serif" font-size="14.00" fill="#000000">operator &gt;</text>
</g>
<!-- 43&#45;&gt;44 -->
<g id="edge28" class="edge">
<title>43&#45;&gt;44</title>
<path fill="none" stroke="#000000" d="M1199.4834,-288.2022C1193.5496,-279.6576 1186.3265,-269.2564 1179.8006,-259.859"/>
<polygon fill="#000000" stroke="#000000" points="1182.6391,-257.8103 1174.0603,-251.593 1176.8895,-261.8031 1182.6391,-257.8103"/>
</g>
<!-- 43&#45;&gt;45 -->
<g id="edge29" class="edge">
<title>43&#45;&gt;45</title>
<path fill="none" stroke="#000000" d="M1224.9148,-288.5708C1231.4814,-279.8153 1239.5616,-269.0418 1246.8029,-259.3867"/>
<polygon fill="#000000" stroke="#000000" points="1249.6914,-261.3687 1252.8914,-251.2687 1244.0914,-257.1687 1249.6914,-261.3687"/>
</g>
<!-- 47 -->
<g id="node38" class="node">
<title>47</title>
<ellipse fill="none" stroke="#000000" cx="1369.8429" cy="-234" rx="47.4684" ry="18"/>
<text text-anchor="middle" x="1369.8429" y="-229.8" font-family="Times,serif" font-size="14.00" fill="#000000">variable j</text>
</g>
<!-- 46 -->
<g id="node39" class="node">
<title>46</title>
<ellipse fill="none" stroke="#000000" cx="1348.8429" cy="-306" rx="52.105" ry="18"/>
<text text-anchor="middle" x="1348.8429" y="-301.8" font-family="Times,serif" font-size="14.00" fill="#000000">operator &#45;&#45;</text>
</g>
<!-- 46&#45;&gt;47 -->
<g id="edge30" class="edge">
<title>46&#45;&gt;47</title>
<path fill="none" stroke="#000000" d="M1354.1421,-287.8314C1356.4477,-279.9266 1359.2008,-270.4872 1361.7531,-261.7365"/>
<polygon fill="#000000" stroke="#000000" points="1365.1781,-262.4934 1364.6182,-251.9134 1358.4581,-260.5334 1365.1781,-262.4934"/>
</g>
<!-- 38 -->
<g id="node40" class="node">
<title>38</title>
<ellipse fill="none" stroke="#000000" cx="1211.8429" cy="-378" rx="76.3591" ry="18"/>
<text text-anchor="middle" x="1211.8429" y="-373.8" font-family="Times,serif" font-size="14.00" fill="#000000">cycle parameters</text>
</g>
<!-- 38&#45;&gt;39 -->
<g id="edge31" class="edge">
<title>38&#45;&gt;39</title>
<path fill="none" stroke="#000000" d="M1173.2196,-362.3771C1146.4872,-351.564 1110.7136,-337.0937 1082.1027,-325.5208"/>
<polygon fill="#000000" stroke="#000000" points="1083.2806,-322.2218 1072.6979,-321.7166 1080.6557,-328.7111 1083.2806,-322.2218"/>
</g>
<!-- 38&#45;&gt;43 -->
<g id="edge32" class="edge">
<title>38&#45;&gt;43</title>
<path fill="none" stroke="#000000" d="M1211.8429,-359.8314C1211.8429,-352.131 1211.8429,-342.9743 1211.8429,-334.4166"/>
<polygon fill="#000000" stroke="#000000" points="1215.343,-334.4132 1211.8429,-324.4133 1208.343,-334.4133 1215.343,-334.4132"/>
</g>
<!-- 38&#45;&gt;46 -->
<g id="edge33" class="edge">
<title>38&#45;&gt;46</title>
<path fill="none" stroke="#000000" d="M1243.2735,-361.4817C1263.3674,-350.9214 1289.5514,-337.1605 1310.815,-325.9855"/>
<polygon fill="#000000" stroke="#000000" points="1312.6723,-328.9634 1319.896,-321.213 1309.4158,-322.767 1312.6723,-328.9634"/>
</g>
<!-- 50 -->
<g id="node41" class="node">
<title>50</title>
<ellipse fill="none" stroke="#000000" cx="1495.8429" cy="-234" rx="60.7927" ry="18"/>
<text text-anchor="middle" x="1495.8429" y="-229.8" font-family="Times,serif" font-size="14.00" fill="#000000">variable sum</text>
</g>
<!-- 52 -->
<g id="node42" class="node">
<title>52</title>
<ellipse fill="none" stroke="#000000" cx="1499.8429" cy="-162" rx="60.7927" ry="18"/>
<text text-anchor="middle" x="1499.8429" y="-157.8" font-family="Times,serif" font-size="14.00" fill="#000000">variable sum</text>
</g>
<!-- 53 -->
<g id="node43" class="node">
<title>53</title>
<ellipse fill="none" stroke="#000000" cx="1625.8429" cy="-162" rx="47.4684" ry="18"/>
<text text-anchor="middle" x="1625.8429" y="-157.8" font-family="Times,serif" font-size="14.00" fill="#000000">variable j</text>
</g>
<!-- 51 -->
<g id="node44" class="node">
<title>51</title>
<ellipse fill="none" stroke="#000000" cx="1625.8429" cy="-234" rx="51.1369" ry="18"/>
<text text-anchor="middle" x="1625.8429" y="-229.8" font-family="Times,serif" font-size="14.00" fill="#000000">operator +</text>
</g>
<!-- 51&#45;&gt;52 -->
<g id="edge34" class="edge">
<title>51&#45;&gt;52</title>
<path fill="none" stroke="#000000" d="M1598.8128,-218.5542C1580.7532,-208.2345 1556.7633,-194.5259 1536.9256,-183.1901"/>
<polygon fill="#000000" stroke="#000000" points="1538.5584,-180.092 1528.1394,-178.1694 1535.0854,-186.1697 1538.5584,-180.092"/>
</g>
<!-- 51&#45;&gt;53 -->
<g id="edge35" class="edge">
<title>51&#45;&gt;53</title>
<path fill="none" stroke="#000000" d="M1625.8429,-215.8314C1625.8429,-208.131 1625.8429,-198.9743 1625.8429,-190.4166"/>
<polygon fill="#000000" stroke="#000000" points="1629.343,-190.4132 1625.8429,-180.4133 1622.343,-190.4133 1629.343,-190.4132"/>
</g>
<!-- 49 -->
<g id="node45" class="node">
<title>49</title>
<ellipse fill="none" stroke="#000000" cx="1495.8429" cy="-306" rx="62.192" ry="18"/>
<text text-anchor="middle" x="1495.8429" y="-301.8" font-family="Times,serif" font-size="14.00" fill="#000000">assignment =</text>
</g>
<!-- 49&#45;&gt;50 -->
<g id="edge36" class="edge">
<title>49&#45;&gt;50</title>
<path fill="none" stroke="#000000" d="M1495.8429,-287.8314C1495.8429,-280.131 1495.8429,-270.9743 1495.8429,-262.4166"/>
<polygon fill="#000000" stroke="#000000" points="1499.343,-262.4132 1495.8429,-252.4133 1492.343,-262.4133 1499.343,-262.4132"/>
</g>
<!-- 49&#45;&gt;51 -->
<g id="edge37" class="edge">
<title>49&#45;&gt;51</title>
<path fill="none" stroke="#000000" d="M1524.6941,-290.0209C1543.8513,-279.4108 1569.1509,-265.3986 1589.6551,-254.0425"/>
<polygon fill="#000000" stroke="#000000" points="1591.3552,-257.1019 1598.4073,-249.1951 1587.9636,-250.9784 1591.3552,-257.1019"/>
</g>
<!-- 57 -->
<g id="node46" class="node">
<title>57</title>
<ellipse fill="none" stroke="#000000" cx="1751.8429" cy="-162" rx="60.7927" ry="18"/>
<text text-anchor="middle" x="1751.8429" y="-157.8" font-family="Times,serif" font-size="14.00" fill="#000000">variable sum</text>
</g>
<!-- 58 -->
<g id="node47" class="node">
<title>58</title>
<ellipse fill="none" stroke="#000000" cx="1868.8429" cy="-162" rx="38.8249" ry="18"/>
<text text-anchor="middle" x="1868.8429" y="-157.8" font-family="Times,serif" font-size="14.00" fill="#000000">const 0</text>
</g>
<!-- 56 -->
<g id="node48" class="node">
<title>56</title>
<ellipse fill="none" stroke="#000000" cx="1809.8429" cy="-234" rx="56.5279" ry="18"/>
<text text-anchor="middle" x="1809.8429" y="-229.8" font-family="Times,serif" font-size="14.00" fill="#000000">operator ==</text>
</g>
<!-- 56&#45;&gt;57 -->
<g id="edge38" class="edge">
<title>56&#45;&gt;57</title>
<path fill="none" stroke="#000000" d="M1795.5058,-216.2022C1788.5524,-207.5704 1780.0728,-197.0439 1772.4423,-187.5717"/>
<polygon fill="#000000" stroke="#000000" points="1775.0141,-185.1849 1766.0151,-179.593 1769.5628,-189.5763 1775.0141,-185.1849"/>
</g>
<!-- 56&#45;&gt;58 -->
<g id="edge39" class="edge">
<title>56&#45;&gt;58</title>
<path fill="none" stroke="#000000" d="M1824.1252,-216.5708C1831.3723,-207.7269 1840.3067,-196.8239 1848.2794,-187.0945"/>
<polygon fill="#000000" stroke="#000000" points="1851.0611,-189.2219 1854.6922,-179.2687 1845.6468,-184.7851 1851.0611,-189.2219"/>
</g>
<!-- 61 -->
<g id="node49" class="node">
<title>61</title>
<ellipse fill="none" stroke="#000000" cx="1922.8429" cy="-90" rx="60.7927" ry="18"/>
<text text-anchor="middle" x="1922.8429" y="-85.8" font-family="Times,serif" font-size="14.00" fill="#000000">variable sum</text>
</g>
<!-- 63 -->
<g id="node50" class="node">
<title>63</title>
<ellipse fill="none" stroke="#000000" cx="1989.8429" cy="-18" rx="60.7927" ry="18"/>
<text text-anchor="middle" x="1989.8429" y="-13.8" font-family="Times,serif" font-size="14.00" fill="#000000">variable sum</text>
</g>
<!-- 64 -->
<g id="node51" class="node">
<title>64</title>
<ellipse fill="none" stroke="#000000" cx="2115.8429" cy="-18" rx="47.4684" ry="18"/>
<text text-anchor="middle" x="2115.8429" y="-13.8" font-family="Times,serif" font-size="14.00" fill="#000000">variable j</text>
</g>
<!-- 62 -->
<g id="node52" class="node">
<title>62</title>
<ellipse fill="none" stroke="#000000" cx="2052.8429" cy="-90" rx="51.1369" ry="18"/>
<text text-anchor="middle" x="2052.8429" y="-85.8" font-family="Times,serif" font-size="14.00" fill="#000000">operator +</text>
</g>
<!-- 62&#45;&gt;63 -->
<g id="edge40" class="edge">
<title>62&#45;&gt;63</title>
<path fill="none" stroke="#000000" d="M2037.5924,-72.5708C2029.9109,-63.7919 2020.454,-52.9841 2011.9885,-43.3093"/>
<polygon fill="#000000" stroke="#000000" points="2014.3905,-40.7393 2005.1714,-35.5182 2009.1224,-45.3488 2014.3905,-40.7393"/>
</g>
<!-- 62&#45;&gt;64 -->
<g id="edge41" class="edge">
<title>62&#45;&gt;64</title>
<path fill="none" stroke="#000000" d="M2068.0935,-72.5708C2075.9093,-63.6385 2085.563,-52.6056 2094.1404,-42.8029"/>
<polygon fill="#000000" stroke="#000000" points="2096.7818,-45.0993 2100.7328,-35.2687 2091.5137,-40.4897 2096.7818,-45.0993"/>
</g>
<!-- 60 -->
<g id="node53" class="node">
<title>60</title>
<ellipse fill="none" stroke="#000000" cx="1987.8429" cy="-162" rx="62.192" ry="18"/>
<text text-anchor="middle" x="1987.8429" y="-157.8" font-family="Times,serif" font-size="14.00" fill="#000000">assignment =</text>
</g>
<!-- 60&#45;&gt;61 -->
<g id="edge42" class="edge">
<title>60&#45;&gt;61</title>
<path fill="none" stroke="#000000" d="M1972.1082,-144.5708C1964.1036,-135.7041 1954.2305,-124.7678 1945.4299,-115.0194"/>
<polygon fill="#000000" stroke="#000000" points="1947.957,-112.5956 1938.658,-107.5182 1942.7611,-117.2863 1947.957,-112.5956"/>
</g>
<!-- 60&#45;&gt;62 -->
<g id="edge43" class="edge">
<title>60&#45;&gt;62</title>
<path fill="none" stroke="#000000" d="M2003.5776,-144.5708C2011.6415,-135.6385 2021.6017,-124.6056 2030.4514,-114.8029"/>
<polygon fill="#000000" stroke="#000000" points="2033.15,-117.0368 2037.2531,-107.2687 2027.9541,-112.346 2033.15,-117.0368"/>
</g>
<!-- 59 -->
<g id="node54" class="node">
<title>59</title>
<ellipse fill="none" stroke="#000000" cx="1950.8429" cy="-234" rx="30.2015" ry="18"/>
<text text-anchor="middle" x="1950.8429" y="-229.8" font-family="Times,serif" font-size="14.00" fill="#000000">body</text>
</g>
<!-- 59&#45;&gt;60 -->
<g id="edge44" class="edge">
<title>59&#45;&gt;60</title>
<path fill="none" stroke="#000000" d="M1959.7996,-216.5708C1964.0219,-208.3544 1969.1575,-198.3608 1973.8743,-189.1821"/>
<polygon fill="#000000" stroke="#000000" points="1977.1246,-190.5147 1978.5823,-180.0206 1970.8986,-187.3152 1977.1246,-190.5147"/>
</g>
<!-- 55 -->
<g id="node55" class="node">
<title>55</title>
<ellipse fill="none" stroke="#000000" cx="1809.8429" cy="-306" rx="55.6591" ry="18"/>
<text text-anchor="middle" x="1809.8429" y="-301.8" font-family="Times,serif" font-size="14.00" fill="#000000">condition if</text>
</g>
<!-- 55&#45;&gt;56 -->
<g id="edge45" class="edge">
<title>55&#45;&gt;56</title>
<path fill="none" stroke="#000000" d="M1809.8429,-287.8314C1809.8429,-280.131 1809.8429,-270.9743 1809.8429,-262.4166"/>
<polygon fill="#000000" stroke="#000000" points="1813.343,-262.4132 1809.8429,-252.4133 1806.343,-262.4133 1813.343,-262.4132"/>
</g>
<!-- 55&#45;&gt;59 -->
<g id="edge46" class="edge">
<title>55&#45;&gt;59</title>
<path fill="none" stroke="#000000" d="M1839.7454,-290.7307C1862.8677,-278.9235 1894.8283,-262.6032 1918.5356,-250.4974"/>
<polygon fill="#000000" stroke="#000000" points="1920.186,-253.5846 1927.5003,-245.9196 1917.0025,-247.3503 1920.186,-253.5846"/>
</g>
<!-- 48 -->
<g id="node56" class="node">
<title>48</title>
<ellipse fill="none" stroke="#000000" cx="1415.8429" cy="-378" rx="30.2015" ry="18"/>
<text text-anchor="middle" x="1415.8429" y="-373.8" font-family="Times,serif" font-size="14.00" fill="#000000">body</text>
</g>
<!-- 48&#45;&gt;49 -->
<g id="edge47" class="edge">
<title>48&#45;&gt;49</title>
<path fill="none" stroke="#000000" d="M1432.8089,-362.7307C1443.3437,-353.2493 1457.112,-340.8578 1469.0926,-330.0753"/>
<polygon fill="#000000" stroke="#000000" points="1471.5639,-332.5599 1476.6555,-323.2687 1466.8811,-327.3568 1471.5639,-332.5599"/>
</g>
<!-- 48&#45;&gt;55 -->
<g id="edge48" class="edge">
<title>48&#45;&gt;55</title>
<path fill="none" stroke="#000000" d="M1438.9367,-366.0487C1444.0693,-363.7604 1449.5577,-361.5869 1454.8429,-360 1553.4376,-330.3974 1672.5431,-316.5165 1744.6768,-310.3919"/>
<polygon fill="#000000" stroke="#000000" points="1745.2918,-313.8531 1754.9706,-309.5436 1744.7169,-306.8768 1745.2918,-313.8531"/>
</g>
<!-- 37 -->
<g id="node57" class="node">
<title>37</title>
<ellipse fill="none" stroke="#000000" cx="1211.8429" cy="-450" rx="45.1623" ry="18"/>
<text text-anchor="middle" x="1211.8429" y="-445.8" font-family="Times,serif" font-size="14.00" fill="#000000">cycle for</text>
</g>
<!-- 37&#45;&gt;38 -->
<g id="edge49" class="edge">
<title>37&#45;&gt;38</title>
<path fill="none" stroke="#000000" d="M1211.8429,-431.8314C1211.8429,-424.131 1211.8429,-414.9743 1211.8429,-406.4166"/>
<polygon fill="#000000" stroke="#000000" points="1215.343,-406.4132 1211.8429,-396.4133 1208.343,-406.4133 1215.343,-406.4132"/>
</g>
<!-- 37&#45;&gt;48 -->
<g id="edge50" class="edge">
<title>37&#45;&gt;48</title>
<path fill="none" stroke="#000000" d="M1245.9879,-437.9488C1283.1591,-424.8296 1342.3335,-403.9445 1380.1155,-390.6097"/>
<polygon fill="#000000" stroke="#000000" points="1381.4358,-393.8554 1389.7008,-387.2266 1379.106,-387.2544 1381.4358,-393.8554"/>
</g>
<!-- 66 -->
<g id="node58" class="node">
<title>66</title>
<ellipse fill="none" stroke="#000000" cx="1528.8429" cy="-378" rx="64.8293" ry="18"/>
<text text-anchor="middle" x="1528.8429" y="-373.8" font-family="Times,serif" font-size="14.00" fill="#000000">return value 0</text>
</g>
<!-- 65 -->
<g id="node59" class="node">
<title>65</title>
<ellipse fill="none" stroke="#000000" cx="1418.8429" cy="-450" rx="34.1871" ry="18"/>
<text text-anchor="middle" x="1418.8429" y="-445.8" font-family="Times,serif" font-size="14.00" fill="#000000">return</text>
</g>
<!-- 65&#45;&gt;66 -->
<g id="edge51" class="edge">
<title>65&#45;&gt;66</title>
<path fill="none" stroke="#000000" d="M1440.3132,-435.9468C1455.7877,-425.818 1476.9886,-411.941 1494.7637,-400.3064"/>
<polygon fill="#000000" stroke="#000000" points="1496.7241,-403.2064 1503.1743,-394.8013 1492.8905,-397.3495 1496.7241,-403.2064"/>
</g>
<!-- 15 -->
<g id="node60" class="node">
<title>15</title>
<ellipse fill="none" stroke="#000000" cx="847.8429" cy="-522" rx="30.2015" ry="18"/>
<text text-anchor="middle" x="847.8429" y="-517.8" font-family="Times,serif" font-size="14.00" fill="#000000">body</text>
</g>
<!-- 15&#45;&gt;17 -->
<g id="edge52" class="edge">
<title>15&#45;&gt;17</title>
<path fill="none" stroke="#000000" d="M822.2335,-512.1397C792.391,-500.6495 742.5291,-481.4514 706.1108,-467.4293"/>
<polygon fill="#000000" stroke="#000000" points="707.2834,-464.1304 696.6936,-463.8034 704.7681,-470.6629 707.2834,-464.1304"/>
</g>
<!-- 15&#45;&gt;28 -->
<g id="edge53" class="edge">
<title>15&#45;&gt;28</title>
<path fill="none" stroke="#000000" d="M847.8429,-503.8314C847.8429,-496.131 847.8429,-486.9743 847.8429,-478.4166"/>
<polygon fill="#000000" stroke="#000000" points="851.343,-478.4132 847.8429,-468.4133 844.343,-478.4133 851.343,-478.4132"/>
</g>
<!-- 15&#45;&gt;37 -->
<g id="edge54" class="edge">
<title>15&#45;&gt;37</title>
<path fill="none" stroke="#000000" d="M876.7097,-516.2901C938.425,-504.0827 1083.8713,-475.3131 1161.2925,-459.999"/>
<polygon fill="#000000" stroke="#000000" points="1162.1647,-463.3944 1171.2955,-458.0204 1160.8064,-456.5274 1162.1647,-463.3944"/>
</g>
<!-- 15&#45;&gt;65 -->
<g id="edge55" class="edge">
<title>15&#45;&gt;65</title>
<path fill="none" stroke="#000000" d="M877.7384,-518.2303C972.1035,-506.3314 1263.958,-469.5301 1375.1815,-455.5055"/>
<polygon fill="#000000" stroke="#000000" points="1375.885,-458.9446 1385.3685,-454.2209 1375.0092,-451.9996 1375.885,-458.9446"/>
</g>
<!-- 10 -->
<g id="node61" class="node">
<title>10</title>
<ellipse fill="none" stroke="#000000" cx="413.8429" cy="-594" rx="55.0816" ry="18"/>
<text text-anchor="middle" x="413.8429" y="-589.8" font-family="Times,serif" font-size="14.00" fill="#000000">method foo</text>
</g>
<!-- 10&#45;&gt;14 -->
<g id="edge56" class="edge">
<title>10&#45;&gt;14</title>
<path fill="none" stroke="#000000" d="M404.9441,-576.2022C400.8334,-567.981 395.8635,-558.041 391.308,-548.9301"/>
<polygon fill="#000000" stroke="#000000" points="394.3669,-547.2216 386.7642,-539.8425 388.1059,-550.3521 394.3669,-547.2216"/>
</g>
<!-- 10&#45;&gt;11 -->
<g id="edge57" class="edge">
<title>10&#45;&gt;11</title>
<path fill="none" stroke="#000000" d="M432.0909,-576.937C441.9679,-567.7013 454.331,-556.141 465.1649,-546.0106"/>
<polygon fill="#000000" stroke="#000000" points="467.8122,-548.327 472.726,-538.9405 463.0312,-543.214 467.8122,-548.327"/>
</g>
<!-- 10&#45;&gt;15 -->
<g id="edge58" class="edge">
<title>10&#45;&gt;15</title>
<path fill="none" stroke="#000000" d="M463.2057,-585.8108C550.1688,-571.3837 728.9719,-541.7205 808.3641,-528.5495"/>
<polygon fill="#000000" stroke="#000000" points="809.1469,-531.9675 818.4393,-526.878 808.0012,-525.0619 809.1469,-531.9675"/>
</g>
<!-- 5 -->
<g id="node62" class="node">
<title>5</title>
<ellipse fill="none" stroke="#000000" cx="368.8429" cy="-666" rx="43.5214" ry="18"/>
<text text-anchor="middle" x="368.8429" y="-661.8" font-family="Times,serif" font-size="14.00" fill="#000000">methods</text>
</g>
<!-- 5&#45;&gt;10 -->
<g id="edge59" class="edge">
<title>5&#45;&gt;10</title>
<path fill="none" stroke="#000000" d="M379.9665,-648.2022C385.213,-639.8079 391.5793,-629.6218 397.3705,-620.3558"/>
<polygon fill="#000000" stroke="#000000" points="400.3593,-622.1776 402.6913,-611.8425 394.4233,-618.4675 400.3593,-622.1776"/>
</g>
<!-- 1 -->
<g id="node63" class="node">
<title>1</title>
<ellipse fill="none" stroke="#000000" cx="229.8429" cy="-738" rx="52.7041" ry="18"/>
<text text-anchor="middle" x="229.8429" y="-733.8" font-family="Times,serif" font-size="14.00" fill="#000000">class Main</text>
</g>
<!-- 1&#45;&gt;2 -->
<g id="edge60" class="edge">
<title>1&#45;&gt;2</title>
<path fill="none" stroke="#000000" d="M202.1692,-722.5542C183.0805,-711.9 157.5202,-697.6338 136.8477,-686.0957"/>
<polygon fill="#000000" stroke="#000000" points="138.4659,-682.9906 128.0281,-681.1731 135.0543,-689.103 138.4659,-682.9906"/>
</g>
<!-- 1&#45;&gt;4 -->
<g id="edge61" class="edge">
<title>1&#45;&gt;4</title>
<path fill="none" stroke="#000000" d="M229.8429,-719.8314C229.8429,-712.131 229.8429,-702.9743 229.8429,-694.4166"/>
<polygon fill="#000000" stroke="#000000" points="233.343,-694.4132 229.8429,-684.4133 226.343,-694.4133 233.343,-694.4132"/>
</g>
<!-- 1&#45;&gt;5 -->
<g id="edge62" class="edge">
<title>1&#45;&gt;5</title>
<path fill="none" stroke="#000000" d="M258.9819,-722.9064C280.2521,-711.8888 309.2408,-696.873 332.0998,-685.0324"/>
<polygon fill="#000000" stroke="#000000" points="333.8931,-688.0452 341.1628,-680.3379 330.6735,-681.8296 333.8931,-688.0452"/>
</g>
<!-- 0 -->
<g id="node64" class="node">
<title>0</title>
<ellipse fill="none" stroke="#000000" cx="229.8429" cy="-810" rx="77.6136" ry="18"/>
<text text-anchor="middle" x="229.8429" y="-805.8" font-family="Times,serif" font-size="14.00" fill="#000000">package mishdev</text>
</g>
<!-- 0&#45;&gt;1 -->
<g id="edge63" class="edge">
<title>0&#45;&gt;1</title>
<path fill="none" stroke="#000000" d="M229.8429,-791.8314C229.8429,-784.131 229.8429,-774.9743 229.8429,-766.4166"/>
<polygon fill="#000000" stroke="#000000" points="233.343,-766.4132 229.8429,-756.4133 226.343,-766.4133 233.343,-766.4132"/>
</g>
</g>
</svg>
