<svg width="4415px" height="635px"
 viewBox="0.00 0.00 3311.18 476.00" xmlns="http://www.w3.org/2000/svg" xmlns:xlink="http://www.w3.org/1999/xlink">
<g id="graph0" class="graph" transform="scale(1.0 1.0) rotate(0) translate(4 472)">
<title>%0</title>
<polygon fill="#ffffff" stroke="transparent" points="-4,4 -4,-472 3307.1758,-472 3307.1758,4 -4,4"/>
<!-- 2 -->
<g id="node1" class="node">
<title>2</title>
<ellipse fill="none" stroke="#000000" cx="1140.5879" cy="-306" rx="116.904" ry="18"/>
<text text-anchor="middle" x="1140.5879" y="-301.8" font-family="Times,serif" font-size="14.00" fill="#000000">field : private int classField</text>
</g>
<!-- 4 -->
<g id="node2" class="node">
<title>4</title>
<ellipse fill="none" stroke="#000000" cx="74.5879" cy="-234" rx="74.6759" ry="18"/>
<text text-anchor="middle" x="74.5879" y="-229.8" font-family="Times,serif" font-size="14.00" fill="#000000">parameter : int n</text>
</g>
<!-- 5 -->
<g id="node3" class="node">
<title>5</title>
<ellipse fill="none" stroke="#000000" cx="273.5879" cy="-234" rx="106.5205" ry="18"/>
<text text-anchor="middle" x="273.5879" y="-229.8" font-family="Times,serif" font-size="14.00" fill="#000000">parameter : Boolean flag</text>
</g>
<!-- 7 -->
<g id="node4" class="node">
<title>7</title>
<ellipse fill="none" stroke="#000000" cx="502.5879" cy="-234" rx="104.1508" ry="18"/>
<text text-anchor="middle" x="502.5879" y="-229.8" font-family="Times,serif" font-size="14.00" fill="#000000">declare variable : int a 0</text>
</g>
<!-- 8 -->
<g id="node5" class="node">
<title>8</title>
<ellipse fill="none" stroke="#000000" cx="729.5879" cy="-234" rx="104.7344" ry="18"/>
<text text-anchor="middle" x="729.5879" y="-229.8" font-family="Times,serif" font-size="14.00" fill="#000000">declare variable : int b 1</text>
</g>
<!-- 9 -->
<g id="node6" class="node">
<title>9</title>
<ellipse fill="none" stroke="#000000" cx="956.5879" cy="-234" rx="104.1508" ry="18"/>
<text text-anchor="middle" x="956.5879" y="-229.8" font-family="Times,serif" font-size="14.00" fill="#000000">declare variable : int c 0</text>
</g>
<!-- 10 -->
<g id="node7" class="node">
<title>10</title>
<ellipse fill="none" stroke="#000000" cx="1209.5879" cy="-234" rx="130.737" ry="18"/>
<text text-anchor="middle" x="1209.5879" y="-229.8" font-family="Times,serif" font-size="14.00" fill="#000000">declare variable : long variable</text>
</g>
<!-- 12 -->
<g id="node8" class="node">
<title>12</title>
<ellipse fill="none" stroke="#000000" cx="794.5879" cy="-162" rx="69.436" ry="18"/>
<text text-anchor="middle" x="794.5879" y="-157.8" font-family="Times,serif" font-size="14.00" fill="#000000">left variable : a</text>
</g>
<!-- 14 -->
<g id="node9" class="node">
<title>14</title>
<ellipse fill="none" stroke="#000000" cx="856.5879" cy="-90" rx="69.5197" ry="18"/>
<text text-anchor="middle" x="856.5879" y="-85.8" font-family="Times,serif" font-size="14.00" fill="#000000">left variable : b</text>
</g>
<!-- 15 -->
<g id="node10" class="node">
<title>15</title>
<ellipse fill="none" stroke="#000000" cx="1018.5879" cy="-90" rx="74.6759" ry="18"/>
<text text-anchor="middle" x="1018.5879" y="-85.8" font-family="Times,serif" font-size="14.00" fill="#000000">right variable : c</text>
</g>
<!-- 13 -->
<g id="node11" class="node">
<title>13</title>
<ellipse fill="none" stroke="#000000" cx="937.5879" cy="-162" rx="56.3331" ry="18"/>
<text text-anchor="middle" x="937.5879" y="-157.8" font-family="Times,serif" font-size="14.00" fill="#000000">operator : +</text>
</g>
<!-- 13&#45;&gt;14 -->
<g id="edge1" class="edge">
<title>13&#45;&gt;14</title>
<path fill="none" stroke="#000000" d="M918.392,-144.937C908.053,-135.7468 895.1245,-124.2548 883.7683,-114.1604"/>
<polygon fill="#000000" stroke="#000000" points="886.0081,-111.4684 876.2087,-107.4407 881.3575,-116.7003 886.0081,-111.4684"/>
</g>
<!-- 13&#45;&gt;15 -->
<g id="edge2" class="edge">
<title>13&#45;&gt;15</title>
<path fill="none" stroke="#000000" d="M956.7838,-144.937C967.1228,-135.7468 980.0513,-124.2548 991.4075,-114.1604"/>
<polygon fill="#000000" stroke="#000000" points="993.8183,-116.7003 998.9671,-107.4407 989.1677,-111.4684 993.8183,-116.7003"/>
</g>
<!-- 11 -->
<g id="node12" class="node">
<title>11</title>
<ellipse fill="none" stroke="#000000" cx="1423.5879" cy="-234" rx="65.083" ry="18"/>
<text text-anchor="middle" x="1423.5879" y="-229.8" font-family="Times,serif" font-size="14.00" fill="#000000">expression : =</text>
</g>
<!-- 11&#45;&gt;12 -->
<g id="edge3" class="edge">
<title>11&#45;&gt;12</title>
<path fill="none" stroke="#000000" d="M1376.8453,-221.4093C1367.852,-219.3343 1358.4682,-217.4055 1349.5879,-216 1139.5988,-182.7648 1082.7696,-211.9946 872.5879,-180 866.6907,-179.1023 860.5784,-177.9996 854.4888,-176.786"/>
<polygon fill="#000000" stroke="#000000" points="854.8087,-173.2772 844.3039,-174.6552 853.3753,-180.1289 854.8087,-173.2772"/>
</g>
<!-- 11&#45;&gt;13 -->
<g id="edge4" class="edge">
<title>11&#45;&gt;13</title>
<path fill="none" stroke="#000000" d="M1376.4152,-221.5183C1367.5462,-219.4587 1358.3173,-217.5074 1349.5879,-216 1196.7991,-189.6166 1154.9416,-208.7898 1002.5879,-180 997.9424,-179.1222 993.1455,-178.0735 988.3604,-176.9297"/>
<polygon fill="#000000" stroke="#000000" points="989.1593,-173.5217 978.6072,-174.4726 987.4492,-180.3096 989.1593,-173.5217"/>
</g>
<!-- 17 -->
<g id="node13" class="node">
<title>17</title>
<ellipse fill="none" stroke="#000000" cx="1107.5879" cy="-162" rx="96.0604" ry="18"/>
<text text-anchor="middle" x="1107.5879" y="-157.8" font-family="Times,serif" font-size="14.00" fill="#000000">left variable : variable</text>
</g>
<!-- 18 -->
<g id="node14" class="node">
<title>18</title>
<ellipse fill="none" stroke="#000000" cx="1312.5879" cy="-162" rx="90.8724" ry="18"/>
<text text-anchor="middle" x="1312.5879" y="-157.8" font-family="Times,serif" font-size="14.00" fill="#000000">right variable : 213L</text>
</g>
<!-- 16 -->
<g id="node15" class="node">
<title>16</title>
<ellipse fill="none" stroke="#000000" cx="1572.5879" cy="-234" rx="65.083" ry="18"/>
<text text-anchor="middle" x="1572.5879" y="-229.8" font-family="Times,serif" font-size="14.00" fill="#000000">expression : =</text>
</g>
<!-- 16&#45;&gt;17 -->
<g id="edge5" class="edge">
<title>16&#45;&gt;17</title>
<path fill="none" stroke="#000000" d="M1524.7423,-221.6885C1515.757,-219.6124 1506.4137,-217.6115 1497.5879,-216 1371.9911,-193.0677 1338.8707,-198.7906 1212.5879,-180 1204.37,-178.7772 1195.8031,-177.4293 1187.2627,-176.0378"/>
<polygon fill="#000000" stroke="#000000" points="1187.708,-172.5641 1177.2716,-174.3893 1186.5683,-179.4707 1187.708,-172.5641"/>
</g>
<!-- 16&#45;&gt;18 -->
<g id="edge6" class="edge">
<title>16&#45;&gt;18</title>
<path fill="none" stroke="#000000" d="M1526.4047,-221.2108C1484.3082,-209.5533 1421.7704,-192.2351 1375.1901,-179.336"/>
<polygon fill="#000000" stroke="#000000" points="1376.0772,-175.95 1365.5057,-176.6542 1374.2089,-182.6961 1376.0772,-175.95"/>
</g>
<!-- 22 -->
<g id="node16" class="node">
<title>22</title>
<ellipse fill="none" stroke="#000000" cx="1395.5879" cy="-90" rx="69.5197" ry="18"/>
<text text-anchor="middle" x="1395.5879" y="-85.8" font-family="Times,serif" font-size="14.00" fill="#000000">left variable : n</text>
</g>
<!-- 23 -->
<g id="node17" class="node">
<title>23</title>
<ellipse fill="none" stroke="#000000" cx="1558.5879" cy="-90" rx="75.2595" ry="18"/>
<text text-anchor="middle" x="1558.5879" y="-85.8" font-family="Times,serif" font-size="14.00" fill="#000000">right variable : 2</text>
</g>
<!-- 21 -->
<g id="node18" class="node">
<title>21</title>
<ellipse fill="none" stroke="#000000" cx="1477.5879" cy="-162" rx="56.3331" ry="18"/>
<text text-anchor="middle" x="1477.5879" y="-157.8" font-family="Times,serif" font-size="14.00" fill="#000000">operator : &lt;</text>
</g>
<!-- 21&#45;&gt;22 -->
<g id="edge7" class="edge">
<title>21&#45;&gt;22</title>
<path fill="none" stroke="#000000" d="M1458.155,-144.937C1447.6884,-135.7468 1434.6003,-124.2548 1423.1039,-114.1604"/>
<polygon fill="#000000" stroke="#000000" points="1425.2746,-111.4087 1415.4509,-107.4407 1420.656,-116.6688 1425.2746,-111.4087"/>
</g>
<!-- 21&#45;&gt;23 -->
<g id="edge8" class="edge">
<title>21&#45;&gt;23</title>
<path fill="none" stroke="#000000" d="M1496.7838,-144.937C1507.1228,-135.7468 1520.0513,-124.2548 1531.4075,-114.1604"/>
<polygon fill="#000000" stroke="#000000" points="1533.8183,-116.7003 1538.9671,-107.4407 1529.1677,-111.4684 1533.8183,-116.7003"/>
</g>
<!-- 24 -->
<g id="node19" class="node">
<title>24</title>
<ellipse fill="none" stroke="#000000" cx="1716.5879" cy="-162" rx="164.3317" ry="18"/>
<text text-anchor="middle" x="1716.5879" y="-157.8" font-family="Times,serif" font-size="14.00" fill="#000000">declare variable : double localTemp 1.2</text>
</g>
<!-- 25 -->
<g id="node20" class="node">
<title>25</title>
<ellipse fill="none" stroke="#000000" cx="1945.5879" cy="-162" rx="46.3682" ry="18"/>
<text text-anchor="middle" x="1945.5879" y="-157.8" font-family="Times,serif" font-size="14.00" fill="#000000">return : n</text>
</g>
<!-- 20 -->
<g id="node21" class="node">
<title>20</title>
<ellipse fill="none" stroke="#000000" cx="1716.5879" cy="-234" rx="60.8544" ry="18"/>
<text text-anchor="middle" x="1716.5879" y="-229.8" font-family="Times,serif" font-size="14.00" fill="#000000">condition : if</text>
</g>
<!-- 20&#45;&gt;21 -->
<g id="edge9" class="edge">
<title>20&#45;&gt;21</title>
<path fill="none" stroke="#000000" d="M1673.8595,-221.1278C1633.1269,-208.8569 1571.7574,-190.369 1528.5067,-177.3396"/>
<polygon fill="#000000" stroke="#000000" points="1529.3324,-173.933 1518.7478,-174.3996 1527.3132,-180.6355 1529.3324,-173.933"/>
</g>
<!-- 20&#45;&gt;24 -->
<g id="edge10" class="edge">
<title>20&#45;&gt;24</title>
<path fill="none" stroke="#000000" d="M1716.5879,-215.8314C1716.5879,-208.131 1716.5879,-198.9743 1716.5879,-190.4166"/>
<polygon fill="#000000" stroke="#000000" points="1720.088,-190.4132 1716.5879,-180.4133 1713.088,-190.4133 1720.088,-190.4132"/>
</g>
<!-- 20&#45;&gt;25 -->
<g id="edge11" class="edge">
<title>20&#45;&gt;25</title>
<path fill="none" stroke="#000000" d="M1758.9222,-220.8951C1793.9664,-210.0207 1845.0455,-194.11 1889.5879,-180 1892.9511,-178.9346 1896.4265,-177.8289 1899.9224,-176.7133"/>
<polygon fill="#000000" stroke="#000000" points="1901.2955,-179.9488 1909.7533,-173.5679 1899.1623,-173.2818 1901.2955,-179.9488"/>
</g>
<!-- 28 -->
<g id="node22" class="node">
<title>28</title>
<ellipse fill="none" stroke="#000000" cx="2112.5879" cy="-162" rx="102.4447" ry="18"/>
<text text-anchor="middle" x="2112.5879" y="-157.8" font-family="Times,serif" font-size="14.00" fill="#000000">declare variable : int i 1</text>
</g>
<!-- 30 -->
<g id="node23" class="node">
<title>30</title>
<ellipse fill="none" stroke="#000000" cx="2130.5879" cy="-90" rx="67.7294" ry="18"/>
<text text-anchor="middle" x="2130.5879" y="-85.8" font-family="Times,serif" font-size="14.00" fill="#000000">left variable : i</text>
</g>
<!-- 31 -->
<g id="node24" class="node">
<title>31</title>
<ellipse fill="none" stroke="#000000" cx="2291.5879" cy="-90" rx="75.2595" ry="18"/>
<text text-anchor="middle" x="2291.5879" y="-85.8" font-family="Times,serif" font-size="14.00" fill="#000000">right variable : n</text>
</g>
<!-- 29 -->
<g id="node25" class="node">
<title>29</title>
<ellipse fill="none" stroke="#000000" cx="2289.5879" cy="-162" rx="56.3331" ry="18"/>
<text text-anchor="middle" x="2289.5879" y="-157.8" font-family="Times,serif" font-size="14.00" fill="#000000">operator : &lt;</text>
</g>
<!-- 29&#45;&gt;30 -->
<g id="edge12" class="edge">
<title>29&#45;&gt;30</title>
<path fill="none" stroke="#000000" d="M2257.0282,-147.256C2233.1576,-136.4466 2200.4905,-121.654 2174.3406,-109.8125"/>
<polygon fill="#000000" stroke="#000000" points="2175.583,-106.533 2165.0296,-105.5962 2172.6954,-112.9097 2175.583,-106.533"/>
</g>
<!-- 29&#45;&gt;31 -->
<g id="edge13" class="edge">
<title>29&#45;&gt;31</title>
<path fill="none" stroke="#000000" d="M2290.0926,-143.8314C2290.3065,-136.131 2290.5608,-126.9743 2290.7985,-118.4166"/>
<polygon fill="#000000" stroke="#000000" points="2294.2973,-118.5066 2291.0764,-108.4133 2287.3,-118.3122 2294.2973,-118.5066"/>
</g>
<!-- 32 -->
<g id="node26" class="node">
<title>32</title>
<ellipse fill="none" stroke="#000000" cx="2439.5879" cy="-162" rx="75.6696" ry="18"/>
<text text-anchor="middle" x="2439.5879" y="-157.8" font-family="Times,serif" font-size="14.00" fill="#000000">expression : i ++</text>
</g>
<!-- 34 -->
<g id="node27" class="node">
<title>34</title>
<ellipse fill="none" stroke="#000000" cx="2455.5879" cy="-90" rx="69.436" ry="18"/>
<text text-anchor="middle" x="2455.5879" y="-85.8" font-family="Times,serif" font-size="14.00" fill="#000000">left variable : c</text>
</g>
<!-- 36 -->
<g id="node28" class="node">
<title>36</title>
<ellipse fill="none" stroke="#000000" cx="2517.5879" cy="-18" rx="69.436" ry="18"/>
<text text-anchor="middle" x="2517.5879" y="-13.8" font-family="Times,serif" font-size="14.00" fill="#000000">left variable : a</text>
</g>
<!-- 37 -->
<g id="node29" class="node">
<title>37</title>
<ellipse fill="none" stroke="#000000" cx="2679.5879" cy="-18" rx="75.2595" ry="18"/>
<text text-anchor="middle" x="2679.5879" y="-13.8" font-family="Times,serif" font-size="14.00" fill="#000000">right variable : b</text>
</g>
<!-- 35 -->
<g id="node30" class="node">
<title>35</title>
<ellipse fill="none" stroke="#000000" cx="2598.5879" cy="-90" rx="56.3331" ry="18"/>
<text text-anchor="middle" x="2598.5879" y="-85.8" font-family="Times,serif" font-size="14.00" fill="#000000">operator : +</text>
</g>
<!-- 35&#45;&gt;36 -->
<g id="edge14" class="edge">
<title>35&#45;&gt;36</title>
<path fill="none" stroke="#000000" d="M2579.392,-72.937C2569.053,-63.7468 2556.1245,-52.2548 2544.7683,-42.1604"/>
<polygon fill="#000000" stroke="#000000" points="2547.0081,-39.4684 2537.2087,-35.4407 2542.3575,-44.7003 2547.0081,-39.4684"/>
</g>
<!-- 35&#45;&gt;37 -->
<g id="edge15" class="edge">
<title>35&#45;&gt;37</title>
<path fill="none" stroke="#000000" d="M2617.7838,-72.937C2628.1228,-63.7468 2641.0513,-52.2548 2652.4075,-42.1604"/>
<polygon fill="#000000" stroke="#000000" points="2654.8183,-44.7003 2659.9671,-35.4407 2650.1677,-39.4684 2654.8183,-44.7003"/>
</g>
<!-- 33 -->
<g id="node31" class="node">
<title>33</title>
<ellipse fill="none" stroke="#000000" cx="2598.5879" cy="-162" rx="65.083" ry="18"/>
<text text-anchor="middle" x="2598.5879" y="-157.8" font-family="Times,serif" font-size="14.00" fill="#000000">expression : =</text>
</g>
<!-- 33&#45;&gt;34 -->
<g id="edge16" class="edge">
<title>33&#45;&gt;34</title>
<path fill="none" stroke="#000000" d="M2567.2059,-146.1993C2546.3951,-135.7211 2518.8801,-121.8674 2496.3764,-110.5368"/>
<polygon fill="#000000" stroke="#000000" points="2497.8966,-107.3837 2487.3908,-106.0127 2494.7486,-113.6359 2497.8966,-107.3837"/>
</g>
<!-- 33&#45;&gt;35 -->
<g id="edge17" class="edge">
<title>33&#45;&gt;35</title>
<path fill="none" stroke="#000000" d="M2598.5879,-143.8314C2598.5879,-136.131 2598.5879,-126.9743 2598.5879,-118.4166"/>
<polygon fill="#000000" stroke="#000000" points="2602.088,-118.4132 2598.5879,-108.4133 2595.088,-118.4133 2602.088,-118.4132"/>
</g>
<!-- 39 -->
<g id="node32" class="node">
<title>39</title>
<ellipse fill="none" stroke="#000000" cx="2741.5879" cy="-90" rx="69.436" ry="18"/>
<text text-anchor="middle" x="2741.5879" y="-85.8" font-family="Times,serif" font-size="14.00" fill="#000000">left variable : a</text>
</g>
<!-- 40 -->
<g id="node33" class="node">
<title>40</title>
<ellipse fill="none" stroke="#000000" cx="2903.5879" cy="-90" rx="75.2595" ry="18"/>
<text text-anchor="middle" x="2903.5879" y="-85.8" font-family="Times,serif" font-size="14.00" fill="#000000">right variable : b</text>
</g>
<!-- 38 -->
<g id="node34" class="node">
<title>38</title>
<ellipse fill="none" stroke="#000000" cx="2747.5879" cy="-162" rx="65.083" ry="18"/>
<text text-anchor="middle" x="2747.5879" y="-157.8" font-family="Times,serif" font-size="14.00" fill="#000000">expression : =</text>
</g>
<!-- 38&#45;&gt;39 -->
<g id="edge18" class="edge">
<title>38&#45;&gt;39</title>
<path fill="none" stroke="#000000" d="M2746.0738,-143.8314C2745.4321,-136.131 2744.6691,-126.9743 2743.9559,-118.4166"/>
<polygon fill="#000000" stroke="#000000" points="2747.4408,-118.088 2743.1223,-108.4133 2740.465,-118.6694 2747.4408,-118.088"/>
</g>
<!-- 38&#45;&gt;40 -->
<g id="edge19" class="edge">
<title>38&#45;&gt;40</title>
<path fill="none" stroke="#000000" d="M2781.4376,-146.3771C2804.322,-135.815 2834.7665,-121.7637 2859.5363,-110.3315"/>
<polygon fill="#000000" stroke="#000000" points="2861.1112,-113.4595 2868.7241,-106.091 2858.1778,-107.1038 2861.1112,-113.4595"/>
</g>
<!-- 42 -->
<g id="node35" class="node">
<title>42</title>
<ellipse fill="none" stroke="#000000" cx="3066.5879" cy="-90" rx="69.5197" ry="18"/>
<text text-anchor="middle" x="3066.5879" y="-85.8" font-family="Times,serif" font-size="14.00" fill="#000000">left variable : b</text>
</g>
<!-- 43 -->
<g id="node36" class="node">
<title>43</title>
<ellipse fill="none" stroke="#000000" cx="3228.5879" cy="-90" rx="74.6759" ry="18"/>
<text text-anchor="middle" x="3228.5879" y="-85.8" font-family="Times,serif" font-size="14.00" fill="#000000">right variable : c</text>
</g>
<!-- 41 -->
<g id="node37" class="node">
<title>41</title>
<ellipse fill="none" stroke="#000000" cx="3066.5879" cy="-162" rx="65.083" ry="18"/>
<text text-anchor="middle" x="3066.5879" y="-157.8" font-family="Times,serif" font-size="14.00" fill="#000000">expression : =</text>
</g>
<!-- 41&#45;&gt;42 -->
<g id="edge20" class="edge">
<title>41&#45;&gt;42</title>
<path fill="none" stroke="#000000" d="M3066.5879,-143.8314C3066.5879,-136.131 3066.5879,-126.9743 3066.5879,-118.4166"/>
<polygon fill="#000000" stroke="#000000" points="3070.088,-118.4132 3066.5879,-108.4133 3063.088,-118.4133 3070.088,-118.4132"/>
</g>
<!-- 41&#45;&gt;43 -->
<g id="edge21" class="edge">
<title>41&#45;&gt;43</title>
<path fill="none" stroke="#000000" d="M3101.341,-146.5542C3125.3535,-135.8819 3157.5208,-121.5854 3183.5047,-110.037"/>
<polygon fill="#000000" stroke="#000000" points="3185.0548,-113.1782 3192.7714,-105.9184 3182.2118,-106.7815 3185.0548,-113.1782"/>
</g>
<!-- 27 -->
<g id="node38" class="node">
<title>27</title>
<ellipse fill="none" stroke="#000000" cx="2200.5879" cy="-234" rx="50.3586" ry="18"/>
<text text-anchor="middle" x="2200.5879" y="-229.8" font-family="Times,serif" font-size="14.00" fill="#000000">cycle : for</text>
</g>
<!-- 27&#45;&gt;28 -->
<g id="edge22" class="edge">
<title>27&#45;&gt;28</title>
<path fill="none" stroke="#000000" d="M2180.1777,-217.3008C2168.8489,-208.0317 2154.5578,-196.339 2142.0378,-186.0954"/>
<polygon fill="#000000" stroke="#000000" points="2144.0711,-183.2367 2134.1151,-179.6132 2139.6384,-188.6545 2144.0711,-183.2367"/>
</g>
<!-- 27&#45;&gt;29 -->
<g id="edge23" class="edge">
<title>27&#45;&gt;29</title>
<path fill="none" stroke="#000000" d="M2221.23,-217.3008C2232.9403,-207.8272 2247.7802,-195.822 2260.6386,-185.4197"/>
<polygon fill="#000000" stroke="#000000" points="2263.1763,-187.8687 2268.7494,-178.8581 2258.7736,-182.4265 2263.1763,-187.8687"/>
</g>
<!-- 27&#45;&gt;32 -->
<g id="edge24" class="edge">
<title>27&#45;&gt;32</title>
<path fill="none" stroke="#000000" d="M2238.982,-222.2582C2245.8423,-220.1683 2252.9252,-218.0157 2259.5879,-216 2300.6919,-203.5644 2347.1127,-189.6411 2382.5167,-179.0474"/>
<polygon fill="#000000" stroke="#000000" points="2383.6193,-182.3709 2392.1967,-176.1517 2381.6131,-175.6645 2383.6193,-182.3709"/>
</g>
<!-- 27&#45;&gt;33 -->
<g id="edge25" class="edge">
<title>27&#45;&gt;33</title>
<path fill="none" stroke="#000000" d="M2237.4852,-221.7482C2244.7563,-219.6168 2252.3696,-217.5806 2259.5879,-216 2375.6965,-190.5756 2407.7964,-202.0759 2524.5879,-180 2529.947,-178.987 2535.5004,-177.8331 2541.0463,-176.6101"/>
<polygon fill="#000000" stroke="#000000" points="2542.0036,-179.9818 2550.9772,-174.3493 2540.4497,-173.1564 2542.0036,-179.9818"/>
</g>
<!-- 27&#45;&gt;38 -->
<g id="edge26" class="edge">
<title>27&#45;&gt;38</title>
<path fill="none" stroke="#000000" d="M2237.1116,-221.5614C2244.4826,-219.4195 2252.2286,-217.427 2259.5879,-216 2440.4702,-180.9254 2490.7264,-209.5813 2672.5879,-180 2678.3455,-179.0635 2684.3153,-177.9245 2690.2585,-176.679"/>
<polygon fill="#000000" stroke="#000000" points="2691.1753,-180.0612 2700.1929,-174.4994 2689.6752,-173.2238 2691.1753,-180.0612"/>
</g>
<!-- 27&#45;&gt;41 -->
<g id="edge27" class="edge">
<title>27&#45;&gt;41</title>
<path fill="none" stroke="#000000" d="M2236.7706,-221.5188C2244.2378,-219.3524 2252.1073,-217.3616 2259.5879,-216 2505.8319,-171.1803 2571.8878,-197.1698 2821.5879,-180 2879.2861,-176.0326 2944.6022,-171.2177 2993.2763,-167.5664"/>
<polygon fill="#000000" stroke="#000000" points="2993.6918,-171.0451 3003.4015,-166.8056 2993.1673,-164.0648 2993.6918,-171.0451"/>
</g>
<!-- 44 -->
<g id="node39" class="node">
<title>44</title>
<ellipse fill="none" stroke="#000000" cx="2434.5879" cy="-234" rx="166.046" ry="18"/>
<text text-anchor="middle" x="2434.5879" y="-229.8" font-family="Times,serif" font-size="14.00" fill="#000000">declare variable : Object object Object()</text>
</g>
<!-- 45 -->
<g id="node40" class="node">
<title>45</title>
<ellipse fill="none" stroke="#000000" cx="2664.5879" cy="-234" rx="45.7848" ry="18"/>
<text text-anchor="middle" x="2664.5879" y="-229.8" font-family="Times,serif" font-size="14.00" fill="#000000">return : c</text>
</g>
<!-- 3 -->
<g id="node41" class="node">
<title>3</title>
<ellipse fill="none" stroke="#000000" cx="1423.5879" cy="-306" rx="148.1507" ry="18"/>
<text text-anchor="middle" x="1423.5879" y="-301.8" font-family="Times,serif" font-size="14.00" fill="#000000">method : private static int fibonacci</text>
</g>
<!-- 3&#45;&gt;4 -->
<g id="edge28" class="edge">
<title>3&#45;&gt;4</title>
<path fill="none" stroke="#000000" d="M1320.6699,-292.9825C1302.6677,-291.0539 1284.0995,-289.2859 1266.5879,-288 774.7636,-251.8842 647.0104,-312.5071 157.5879,-252 150.9023,-251.1735 143.9595,-250.0686 137.0641,-248.8112"/>
<polygon fill="#000000" stroke="#000000" points="137.5132,-245.3333 127.0311,-246.8743 136.1863,-252.2064 137.5132,-245.3333"/>
</g>
<!-- 3&#45;&gt;5 -->
<g id="edge29" class="edge">
<title>3&#45;&gt;5</title>
<path fill="none" stroke="#000000" d="M1320.2383,-293.0637C1302.3692,-291.1383 1283.957,-289.3504 1266.5879,-288 877.6555,-257.7626 777.8417,-289.9694 389.5879,-252 379.4432,-251.0079 368.8346,-249.7164 358.3308,-248.2803"/>
<polygon fill="#000000" stroke="#000000" points="358.7021,-244.7981 348.3107,-246.8642 357.7225,-251.7292 358.7021,-244.7981"/>
</g>
<!-- 3&#45;&gt;7 -->
<g id="edge30" class="edge">
<title>3&#45;&gt;7</title>
<path fill="none" stroke="#000000" d="M1319.3768,-293.181C1301.7746,-291.2658 1283.6736,-289.4506 1266.5879,-288 977.8513,-263.4861 903.7183,-282.8328 615.5879,-252 605.9585,-250.9696 595.8988,-249.6788 585.9218,-248.2643"/>
<polygon fill="#000000" stroke="#000000" points="586.3924,-244.796 575.9914,-246.8136 585.3804,-251.7225 586.3924,-244.796"/>
</g>
<!-- 3&#45;&gt;8 -->
<g id="edge31" class="edge">
<title>3&#45;&gt;8</title>
<path fill="none" stroke="#000000" d="M1317.2228,-293.3792C1300.2938,-291.4933 1282.9677,-289.6356 1266.5879,-288 1078.842,-269.2524 1030.8936,-274.7281 843.5879,-252 834.2135,-250.8625 824.427,-249.5338 814.698,-248.1228"/>
<polygon fill="#000000" stroke="#000000" points="815.0046,-244.6301 804.5997,-246.6271 813.979,-251.5545 815.0046,-244.6301"/>
</g>
<!-- 3&#45;&gt;9 -->
<g id="edge32" class="edge">
<title>3&#45;&gt;9</title>
<path fill="none" stroke="#000000" d="M1330.3951,-291.9555C1258.9939,-281.1535 1158.0429,-265.7915 1069.5879,-252 1061.0312,-250.6659 1052.1119,-249.2642 1043.2017,-247.8566"/>
<polygon fill="#000000" stroke="#000000" points="1043.5897,-244.3745 1033.1654,-246.2681 1042.4953,-251.2884 1043.5897,-244.3745"/>
</g>
<!-- 3&#45;&gt;10 -->
<g id="edge33" class="edge">
<title>3&#45;&gt;10</title>
<path fill="none" stroke="#000000" d="M1373.1439,-289.0282C1342.012,-278.5539 1301.9164,-265.0638 1269.2165,-254.062"/>
<polygon fill="#000000" stroke="#000000" points="1269.9179,-250.6052 1259.3238,-250.7336 1267.6856,-257.2398 1269.9179,-250.6052"/>
</g>
<!-- 3&#45;&gt;11 -->
<g id="edge34" class="edge">
<title>3&#45;&gt;11</title>
<path fill="none" stroke="#000000" d="M1423.5879,-287.8314C1423.5879,-280.131 1423.5879,-270.9743 1423.5879,-262.4166"/>
<polygon fill="#000000" stroke="#000000" points="1427.088,-262.4132 1423.5879,-252.4133 1420.088,-262.4133 1427.088,-262.4132"/>
</g>
<!-- 3&#45;&gt;16 -->
<g id="edge35" class="edge">
<title>3&#45;&gt;16</title>
<path fill="none" stroke="#000000" d="M1460.0374,-288.3868C1481.4469,-278.0413 1508.5872,-264.9265 1530.852,-254.1677"/>
<polygon fill="#000000" stroke="#000000" points="1532.5836,-257.2182 1540.0647,-249.7159 1529.538,-250.9155 1532.5836,-257.2182"/>
</g>
<!-- 3&#45;&gt;20 -->
<g id="edge36" class="edge">
<title>3&#45;&gt;20</title>
<path fill="none" stroke="#000000" d="M1490.9822,-289.9419C1535.2518,-279.3293 1594.4129,-265.0247 1646.5879,-252 1651.2142,-250.8451 1656.0095,-249.6365 1660.8215,-248.4155"/>
<polygon fill="#000000" stroke="#000000" points="1661.8477,-251.7659 1670.6739,-245.9052 1660.1193,-244.9827 1661.8477,-251.7659"/>
</g>
<!-- 3&#45;&gt;27 -->
<g id="edge37" class="edge">
<title>3&#45;&gt;27</title>
<path fill="none" stroke="#000000" d="M1541.5975,-295.0647C1710.2791,-279.434 2014.0193,-251.2882 2141.6123,-239.4649"/>
<polygon fill="#000000" stroke="#000000" points="2142.3142,-242.915 2151.9486,-238.5071 2141.6683,-235.9448 2142.3142,-242.915"/>
</g>
<!-- 3&#45;&gt;44 -->
<g id="edge38" class="edge">
<title>3&#45;&gt;44</title>
<path fill="none" stroke="#000000" d="M1559.4541,-298.8139C1724.9637,-289.693 2013.0179,-272.6366 2259.5879,-252 2274.6929,-250.7358 2290.5182,-249.2853 2306.217,-247.7682"/>
<polygon fill="#000000" stroke="#000000" points="2306.894,-251.2188 2316.5062,-246.7629 2306.2132,-244.2519 2306.894,-251.2188"/>
</g>
<!-- 3&#45;&gt;45 -->
<g id="edge39" class="edge">
<title>3&#45;&gt;45</title>
<path fill="none" stroke="#000000" d="M1571.0755,-304.257C1843.2856,-300.2152 2414.6282,-287.6566 2609.5879,-252 2613.4793,-251.2883 2617.4749,-250.3697 2621.4504,-249.3247"/>
<polygon fill="#000000" stroke="#000000" points="2622.5788,-252.642 2631.2205,-246.5125 2620.6425,-245.9151 2622.5788,-252.642"/>
</g>
<!-- 47 -->
<g id="node42" class="node">
<title>47</title>
<ellipse fill="none" stroke="#000000" cx="2834.5879" cy="-234" rx="105.8726" ry="18"/>
<text text-anchor="middle" x="2834.5879" y="-229.8" font-family="Times,serif" font-size="14.00" fill="#000000">parameter : String[] args</text>
</g>
<!-- 49 -->
<g id="node43" class="node">
<title>49</title>
<ellipse fill="none" stroke="#000000" cx="3126.5879" cy="-234" rx="168.3547" ry="18"/>
<text text-anchor="middle" x="3126.5879" y="-229.8" font-family="Times,serif" font-size="14.00" fill="#000000">declare variable : int result fibonacci(10)</text>
</g>
<!-- 46 -->
<g id="node44" class="node">
<title>46</title>
<ellipse fill="none" stroke="#000000" cx="2834.5879" cy="-306" rx="135.5181" ry="18"/>
<text text-anchor="middle" x="2834.5879" y="-301.8" font-family="Times,serif" font-size="14.00" fill="#000000">method : public static void main</text>
</g>
<!-- 46&#45;&gt;47 -->
<g id="edge40" class="edge">
<title>46&#45;&gt;47</title>
<path fill="none" stroke="#000000" d="M2834.5879,-287.8314C2834.5879,-280.131 2834.5879,-270.9743 2834.5879,-262.4166"/>
<polygon fill="#000000" stroke="#000000" points="2838.088,-262.4132 2834.5879,-252.4133 2831.088,-262.4133 2838.088,-262.4132"/>
</g>
<!-- 46&#45;&gt;49 -->
<g id="edge41" class="edge">
<title>46&#45;&gt;49</title>
<path fill="none" stroke="#000000" d="M2899.03,-290.1102C2943.4822,-279.1493 3002.786,-264.5265 3049.7076,-252.9568"/>
<polygon fill="#000000" stroke="#000000" points="3050.6512,-256.329 3059.5224,-250.5367 3048.9753,-249.5326 3050.6512,-256.329"/>
</g>
<!-- 1 -->
<g id="node45" class="node">
<title>1</title>
<ellipse fill="none" stroke="#000000" cx="1423.5879" cy="-378" rx="84.0078" ry="18"/>
<text text-anchor="middle" x="1423.5879" y="-373.8" font-family="Times,serif" font-size="14.00" fill="#000000">class : public Main</text>
</g>
<!-- 1&#45;&gt;2 -->
<g id="edge42" class="edge">
<title>1&#45;&gt;2</title>
<path fill="none" stroke="#000000" d="M1369.3575,-364.2029C1324.3872,-352.7617 1260.123,-336.4118 1211.1507,-323.9524"/>
<polygon fill="#000000" stroke="#000000" points="1211.8124,-320.5093 1201.2581,-321.4355 1210.0864,-327.2932 1211.8124,-320.5093"/>
</g>
<!-- 1&#45;&gt;3 -->
<g id="edge43" class="edge">
<title>1&#45;&gt;3</title>
<path fill="none" stroke="#000000" d="M1423.5879,-359.8314C1423.5879,-352.131 1423.5879,-342.9743 1423.5879,-334.4166"/>
<polygon fill="#000000" stroke="#000000" points="1427.088,-334.4132 1423.5879,-324.4133 1420.088,-334.4133 1427.088,-334.4132"/>
</g>
<!-- 1&#45;&gt;46 -->
<g id="edge44" class="edge">
<title>1&#45;&gt;46</title>
<path fill="none" stroke="#000000" d="M1505.5481,-373.8178C1738.7121,-361.92 2407.5578,-327.7903 2697.6388,-312.9882"/>
<polygon fill="#000000" stroke="#000000" points="2697.9882,-316.475 2707.7968,-312.4699 2697.6314,-309.4841 2697.9882,-316.475"/>
</g>
<!-- 0 -->
<g id="node46" class="node">
<title>0</title>
<ellipse fill="none" stroke="#000000" cx="1423.5879" cy="-450" rx="82.809" ry="18"/>
<text text-anchor="middle" x="1423.5879" y="-445.8" font-family="Times,serif" font-size="14.00" fill="#000000">package : mishdev</text>
</g>
<!-- 0&#45;&gt;1 -->
<g id="edge45" class="edge">
<title>0&#45;&gt;1</title>
<path fill="none" stroke="#000000" d="M1423.5879,-431.8314C1423.5879,-424.131 1423.5879,-414.9743 1423.5879,-406.4166"/>
<polygon fill="#000000" stroke="#000000" points="1427.088,-406.4132 1423.5879,-396.4133 1420.088,-406.4133 1427.088,-406.4132"/>
</g>
</g>
</svg>
