<svg width="2629px" height="1115px"
 viewBox="0.00 0.00 1971.68 836.00" xmlns="http://www.w3.org/2000/svg" xmlns:xlink="http://www.w3.org/1999/xlink">
<g id="graph0" class="graph" transform="scale(1.0 1.0) rotate(0) translate(4 832)">
<title>%0</title>
<polygon fill="#ffffff" stroke="transparent" points="-4,4 -4,-832 1967.6796,-832 1967.6796,4 -4,4"/>
<!-- 3 -->
<g id="node1" class="node">
<title>3</title>
<ellipse fill="none" stroke="#000000" cx="70.8429" cy="-594" rx="70.6862" ry="18"/>
<text text-anchor="middle" x="70.8429" y="-589.8" font-family="Times,serif" font-size="14.00" fill="#000000">modifier public</text>
</g>
<!-- 2 -->
<g id="node2" class="node">
<title>2</title>
<ellipse fill="none" stroke="#000000" cx="100.8429" cy="-666" rx="48.0897" ry="18"/>
<text text-anchor="middle" x="100.8429" y="-661.8" font-family="Times,serif" font-size="14.00" fill="#000000">modifiers</text>
</g>
<!-- 2&#45;&gt;3 -->
<g id="edge1" class="edge">
<title>2&#45;&gt;3</title>
<path fill="none" stroke="#000000" d="M93.4272,-648.2022C90.0632,-640.1287 86.0086,-630.3976 82.2688,-621.422"/>
<polygon fill="#000000" stroke="#000000" points="85.4587,-619.9777 78.3817,-612.0931 78.9972,-622.6701 85.4587,-619.9777"/>
</g>
<!-- 9 -->
<g id="node3" class="node">
<title>9</title>
<ellipse fill="none" stroke="#000000" cx="123.8429" cy="-522" rx="40.049" ry="18"/>
<text text-anchor="middle" x="123.8429" y="-517.8" font-family="Times,serif" font-size="14.00" fill="#000000">type int</text>
</g>
<!-- 8 -->
<g id="node4" class="node">
<title>8</title>
<ellipse fill="none" stroke="#000000" cx="229.8429" cy="-450" rx="73.532" ry="18"/>
<text text-anchor="middle" x="229.8429" y="-445.8" font-family="Times,serif" font-size="14.00" fill="#000000">modifier private</text>
</g>
<!-- 7 -->
<g id="node5" class="node">
<title>7</title>
<ellipse fill="none" stroke="#000000" cx="229.8429" cy="-522" rx="48.0897" ry="18"/>
<text text-anchor="middle" x="229.8429" y="-517.8" font-family="Times,serif" font-size="14.00" fill="#000000">modifiers</text>
</g>
<!-- 7&#45;&gt;8 -->
<g id="edge2" class="edge">
<title>7&#45;&gt;8</title>
<path fill="none" stroke="#000000" d="M229.8429,-503.8314C229.8429,-496.131 229.8429,-486.9743 229.8429,-478.4166"/>
<polygon fill="#000000" stroke="#000000" points="233.343,-478.4132 229.8429,-468.4133 226.343,-478.4133 233.343,-478.4132"/>
</g>
<!-- 6 -->
<g id="node6" class="node">
<title>6</title>
<ellipse fill="none" stroke="#000000" cx="229.8429" cy="-594" rx="69.5351" ry="18"/>
<text text-anchor="middle" x="229.8429" y="-589.8" font-family="Times,serif" font-size="14.00" fill="#000000">field classField</text>
</g>
<!-- 6&#45;&gt;9 -->
<g id="edge3" class="edge">
<title>6&#45;&gt;9</title>
<path fill="none" stroke="#000000" d="M204.9906,-577.1192C189.9144,-566.8787 170.5575,-553.7306 154.5305,-542.8444"/>
<polygon fill="#000000" stroke="#000000" points="156.2564,-539.7857 146.0176,-537.062 152.3232,-545.5762 156.2564,-539.7857"/>
</g>
<!-- 6&#45;&gt;7 -->
<g id="edge4" class="edge">
<title>6&#45;&gt;7</title>
<path fill="none" stroke="#000000" d="M229.8429,-575.8314C229.8429,-568.131 229.8429,-558.9743 229.8429,-550.4166"/>
<polygon fill="#000000" stroke="#000000" points="233.343,-550.4132 229.8429,-540.4133 226.343,-550.4133 233.343,-550.4132"/>
</g>
<!-- 4 -->
<g id="node7" class="node">
<title>4</title>
<ellipse fill="none" stroke="#000000" cx="229.8429" cy="-666" rx="32.4788" ry="18"/>
<text text-anchor="middle" x="229.8429" y="-661.8" font-family="Times,serif" font-size="14.00" fill="#000000">fields</text>
</g>
<!-- 4&#45;&gt;6 -->
<g id="edge5" class="edge">
<title>4&#45;&gt;6</title>
<path fill="none" stroke="#000000" d="M229.8429,-647.8314C229.8429,-640.131 229.8429,-630.9743 229.8429,-622.4166"/>
<polygon fill="#000000" stroke="#000000" points="233.343,-622.4132 229.8429,-612.4133 226.343,-622.4133 233.343,-622.4132"/>
</g>
<!-- 14 -->
<g id="node8" class="node">
<title>14</title>
<ellipse fill="none" stroke="#000000" cx="335.8429" cy="-522" rx="40.049" ry="18"/>
<text text-anchor="middle" x="335.8429" y="-517.8" font-family="Times,serif" font-size="14.00" fill="#000000">type int</text>
</g>
<!-- 17 -->
<g id="node9" class="node">
<title>17</title>
<ellipse fill="none" stroke="#000000" cx="399.8429" cy="-378" rx="40.049" ry="18"/>
<text text-anchor="middle" x="399.8429" y="-373.8" font-family="Times,serif" font-size="14.00" fill="#000000">type int</text>
</g>
<!-- 16 -->
<g id="node10" class="node">
<title>16</title>
<ellipse fill="none" stroke="#000000" cx="399.8429" cy="-450" rx="68.2957" ry="18"/>
<text text-anchor="middle" x="399.8429" y="-445.8" font-family="Times,serif" font-size="14.00" fill="#000000">parameter sum</text>
</g>
<!-- 16&#45;&gt;17 -->
<g id="edge6" class="edge">
<title>16&#45;&gt;17</title>
<path fill="none" stroke="#000000" d="M399.8429,-431.8314C399.8429,-424.131 399.8429,-414.9743 399.8429,-406.4166"/>
<polygon fill="#000000" stroke="#000000" points="403.343,-406.4132 399.8429,-396.4133 396.343,-406.4133 403.343,-406.4132"/>
</g>
<!-- 15 -->
<g id="node11" class="node">
<title>15</title>
<ellipse fill="none" stroke="#000000" cx="447.8429" cy="-522" rx="53.2859" ry="18"/>
<text text-anchor="middle" x="447.8429" y="-517.8" font-family="Times,serif" font-size="14.00" fill="#000000">parameters</text>
</g>
<!-- 15&#45;&gt;16 -->
<g id="edge7" class="edge">
<title>15&#45;&gt;16</title>
<path fill="none" stroke="#000000" d="M435.9778,-504.2022C430.3815,-495.8079 423.5908,-485.6218 417.4135,-476.3558"/>
<polygon fill="#000000" stroke="#000000" points="420.1972,-474.2216 411.738,-467.8425 414.3728,-478.1045 420.1972,-474.2216"/>
</g>
<!-- 12 -->
<g id="node12" class="node">
<title>12</title>
<ellipse fill="none" stroke="#000000" cx="556.8429" cy="-450" rx="70.6862" ry="18"/>
<text text-anchor="middle" x="556.8429" y="-445.8" font-family="Times,serif" font-size="14.00" fill="#000000">modifier public</text>
</g>
<!-- 13 -->
<g id="node13" class="node">
<title>13</title>
<ellipse fill="none" stroke="#000000" cx="712.8429" cy="-450" rx="67.1671" ry="18"/>
<text text-anchor="middle" x="712.8429" y="-445.8" font-family="Times,serif" font-size="14.00" fill="#000000">modifier static</text>
</g>
<!-- 11 -->
<g id="node14" class="node">
<title>11</title>
<ellipse fill="none" stroke="#000000" cx="566.8429" cy="-522" rx="48.0897" ry="18"/>
<text text-anchor="middle" x="566.8429" y="-517.8" font-family="Times,serif" font-size="14.00" fill="#000000">modifiers</text>
</g>
<!-- 11&#45;&gt;12 -->
<g id="edge8" class="edge">
<title>11&#45;&gt;12</title>
<path fill="none" stroke="#000000" d="M564.3195,-503.8314C563.25,-496.131 561.9783,-486.9743 560.7897,-478.4166"/>
<polygon fill="#000000" stroke="#000000" points="564.2428,-477.8367 559.4003,-468.4133 557.3094,-478.7997 564.2428,-477.8367"/>
</g>
<!-- 11&#45;&gt;13 -->
<g id="edge9" class="edge">
<title>11&#45;&gt;13</title>
<path fill="none" stroke="#000000" d="M596.0373,-507.6028C617.6357,-496.9515 647.3527,-482.2966 671.4069,-470.4342"/>
<polygon fill="#000000" stroke="#000000" points="673.2337,-473.4358 680.6544,-465.8738 670.1376,-467.1577 673.2337,-473.4358"/>
</g>
<!-- 21 -->
<g id="node15" class="node">
<title>21</title>
<ellipse fill="none" stroke="#000000" cx="728.8429" cy="-378" rx="40.049" ry="18"/>
<text text-anchor="middle" x="728.8429" y="-373.8" font-family="Times,serif" font-size="14.00" fill="#000000">type int</text>
</g>
<!-- 24 -->
<g id="node16" class="node">
<title>24</title>
<ellipse fill="none" stroke="#000000" cx="695.8429" cy="-234" rx="38.8249" ry="18"/>
<text text-anchor="middle" x="695.8429" y="-229.8" font-family="Times,serif" font-size="14.00" fill="#000000">const 5</text>
</g>
<!-- 25 -->
<g id="node17" class="node">
<title>25</title>
<ellipse fill="none" stroke="#000000" cx="790.8429" cy="-234" rx="38.8249" ry="18"/>
<text text-anchor="middle" x="790.8429" y="-229.8" font-family="Times,serif" font-size="14.00" fill="#000000">const 5</text>
</g>
<!-- 23 -->
<g id="node18" class="node">
<title>23</title>
<ellipse fill="none" stroke="#000000" cx="742.8429" cy="-306" rx="51.1369" ry="18"/>
<text text-anchor="middle" x="742.8429" y="-301.8" font-family="Times,serif" font-size="14.00" fill="#000000">operator +</text>
</g>
<!-- 23&#45;&gt;24 -->
<g id="edge10" class="edge">
<title>23&#45;&gt;24</title>
<path fill="none" stroke="#000000" d="M731.225,-288.2022C725.6629,-279.6817 718.8958,-269.315 712.775,-259.9385"/>
<polygon fill="#000000" stroke="#000000" points="715.5622,-257.8052 707.1651,-251.3446 709.7005,-261.6316 715.5622,-257.8052"/>
</g>
<!-- 23&#45;&gt;25 -->
<g id="edge11" class="edge">
<title>23&#45;&gt;25</title>
<path fill="none" stroke="#000000" d="M754.7081,-288.2022C760.3885,-279.6817 767.2996,-269.315 773.5506,-259.9385"/>
<polygon fill="#000000" stroke="#000000" points="776.645,-261.6066 779.2799,-251.3446 770.8206,-257.7236 776.645,-261.6066"/>
</g>
<!-- 22 -->
<g id="node19" class="node">
<title>22</title>
<ellipse fill="none" stroke="#000000" cx="849.8429" cy="-378" rx="62.192" ry="18"/>
<text text-anchor="middle" x="849.8429" y="-373.8" font-family="Times,serif" font-size="14.00" fill="#000000">assignment =</text>
</g>
<!-- 22&#45;&gt;23 -->
<g id="edge12" class="edge">
<title>22&#45;&gt;23</title>
<path fill="none" stroke="#000000" d="M825.026,-361.3008C810.2325,-351.3463 791.2848,-338.5964 775.3118,-327.8482"/>
<polygon fill="#000000" stroke="#000000" points="777.0398,-324.7924 766.7892,-322.1134 773.1318,-330.6 777.0398,-324.7924"/>
</g>
<!-- 20 -->
<g id="node20" class="node">
<title>20</title>
<ellipse fill="none" stroke="#000000" cx="876.8429" cy="-450" rx="79.2497" ry="18"/>
<text text-anchor="middle" x="876.8429" y="-445.8" font-family="Times,serif" font-size="14.00" fill="#000000">declare variable a</text>
</g>
<!-- 20&#45;&gt;21 -->
<g id="edge13" class="edge">
<title>20&#45;&gt;21</title>
<path fill="none" stroke="#000000" d="M843.2594,-433.6621C820.0698,-422.3806 789.2415,-407.3831 765.4281,-395.7982"/>
<polygon fill="#000000" stroke="#000000" points="766.8735,-392.6092 756.35,-391.3818 763.8112,-398.9038 766.8735,-392.6092"/>
</g>
<!-- 20&#45;&gt;22 -->
<g id="edge14" class="edge">
<title>20&#45;&gt;22</title>
<path fill="none" stroke="#000000" d="M870.0297,-431.8314C867.0332,-423.8406 863.4486,-414.2819 860.1372,-405.4514"/>
<polygon fill="#000000" stroke="#000000" points="863.3489,-404.0478 856.5605,-395.9134 856.7946,-406.5057 863.3489,-404.0478"/>
</g>
<!-- 29 -->
<g id="node21" class="node">
<title>29</title>
<ellipse fill="none" stroke="#000000" cx="872.8429" cy="-306" rx="60.7927" ry="18"/>
<text text-anchor="middle" x="872.8429" y="-301.8" font-family="Times,serif" font-size="14.00" fill="#000000">variable sum</text>
</g>
<!-- 30 -->
<g id="node22" class="node">
<title>30</title>
<ellipse fill="none" stroke="#000000" cx="989.8429" cy="-306" rx="38.8249" ry="18"/>
<text text-anchor="middle" x="989.8429" y="-301.8" font-family="Times,serif" font-size="14.00" fill="#000000">const 0</text>
</g>
<!-- 28 -->
<g id="node23" class="node">
<title>28</title>
<ellipse fill="none" stroke="#000000" cx="986.8429" cy="-378" rx="56.5279" ry="18"/>
<text text-anchor="middle" x="986.8429" y="-373.8" font-family="Times,serif" font-size="14.00" fill="#000000">operator ==</text>
</g>
<!-- 28&#45;&gt;29 -->
<g id="edge15" class="edge">
<title>28&#45;&gt;29</title>
<path fill="none" stroke="#000000" d="M961.2591,-361.8418C945.3829,-351.8147 924.778,-338.8011 907.4538,-327.8595"/>
<polygon fill="#000000" stroke="#000000" points="909.0597,-324.7341 898.7358,-322.3534 905.3217,-330.6526 909.0597,-324.7341"/>
</g>
<!-- 28&#45;&gt;30 -->
<g id="edge16" class="edge">
<title>28&#45;&gt;30</title>
<path fill="none" stroke="#000000" d="M987.6,-359.8314C987.9208,-352.131 988.3023,-342.9743 988.6589,-334.4166"/>
<polygon fill="#000000" stroke="#000000" points="992.1563,-334.5503 989.0757,-324.4133 985.1623,-334.2589 992.1563,-334.5503"/>
</g>
<!-- 53 -->
<g id="node24" class="node">
<title>53</title>
<ellipse fill="none" stroke="#000000" cx="981.8429" cy="-234" rx="60.7927" ry="18"/>
<text text-anchor="middle" x="981.8429" y="-229.8" font-family="Times,serif" font-size="14.00" fill="#000000">variable sum</text>
</g>
<!-- 55 -->
<g id="node25" class="node">
<title>55</title>
<ellipse fill="none" stroke="#000000" cx="981.8429" cy="-162" rx="60.7927" ry="18"/>
<text text-anchor="middle" x="981.8429" y="-157.8" font-family="Times,serif" font-size="14.00" fill="#000000">variable sum</text>
</g>
<!-- 56 -->
<g id="node26" class="node">
<title>56</title>
<ellipse fill="none" stroke="#000000" cx="1108.8429" cy="-162" rx="48.6739" ry="18"/>
<text text-anchor="middle" x="1108.8429" y="-157.8" font-family="Times,serif" font-size="14.00" fill="#000000">variable a</text>
</g>
<!-- 54 -->
<g id="node27" class="node">
<title>54</title>
<ellipse fill="none" stroke="#000000" cx="1108.8429" cy="-234" rx="48.6758" ry="18"/>
<text text-anchor="middle" x="1108.8429" y="-229.8" font-family="Times,serif" font-size="14.00" fill="#000000">operator &#45;</text>
</g>
<!-- 54&#45;&gt;55 -->
<g id="edge17" class="edge">
<title>54&#45;&gt;55</title>
<path fill="none" stroke="#000000" d="M1082.2196,-218.9064C1063.9278,-208.5363 1039.3884,-194.6242 1019.1519,-183.1516"/>
<polygon fill="#000000" stroke="#000000" points="1020.6202,-179.9607 1010.1948,-178.0735 1017.1679,-186.0501 1020.6202,-179.9607"/>
</g>
<!-- 54&#45;&gt;56 -->
<g id="edge18" class="edge">
<title>54&#45;&gt;56</title>
<path fill="none" stroke="#000000" d="M1108.8429,-215.8314C1108.8429,-208.131 1108.8429,-198.9743 1108.8429,-190.4166"/>
<polygon fill="#000000" stroke="#000000" points="1112.343,-190.4132 1108.8429,-180.4133 1105.343,-190.4133 1112.343,-190.4132"/>
</g>
<!-- 52 -->
<g id="node28" class="node">
<title>52</title>
<ellipse fill="none" stroke="#000000" cx="1108.8429" cy="-306" rx="62.192" ry="18"/>
<text text-anchor="middle" x="1108.8429" y="-301.8" font-family="Times,serif" font-size="14.00" fill="#000000">assignment =</text>
</g>
<!-- 52&#45;&gt;53 -->
<g id="edge19" class="edge">
<title>52&#45;&gt;53</title>
<path fill="none" stroke="#000000" d="M1080.3417,-289.8418C1062.2854,-279.6052 1038.7386,-266.2558 1019.1954,-255.1762"/>
<polygon fill="#000000" stroke="#000000" points="1020.6745,-251.9914 1010.2491,-250.1043 1017.2222,-258.0809 1020.6745,-251.9914"/>
</g>
<!-- 52&#45;&gt;54 -->
<g id="edge20" class="edge">
<title>52&#45;&gt;54</title>
<path fill="none" stroke="#000000" d="M1108.8429,-287.8314C1108.8429,-280.131 1108.8429,-270.9743 1108.8429,-262.4166"/>
<polygon fill="#000000" stroke="#000000" points="1112.343,-262.4132 1108.8429,-252.4133 1105.343,-262.4133 1112.343,-262.4132"/>
</g>
<!-- 51 -->
<g id="node29" class="node">
<title>51</title>
<ellipse fill="none" stroke="#000000" cx="1108.8429" cy="-378" rx="47.5557" ry="18"/>
<text text-anchor="middle" x="1108.8429" y="-373.8" font-family="Times,serif" font-size="14.00" fill="#000000">else body</text>
</g>
<!-- 51&#45;&gt;52 -->
<g id="edge21" class="edge">
<title>51&#45;&gt;52</title>
<path fill="none" stroke="#000000" d="M1108.8429,-359.8314C1108.8429,-352.131 1108.8429,-342.9743 1108.8429,-334.4166"/>
<polygon fill="#000000" stroke="#000000" points="1112.343,-334.4132 1108.8429,-324.4133 1105.343,-334.4133 1112.343,-334.4132"/>
</g>
<!-- 36 -->
<g id="node30" class="node">
<title>36</title>
<ellipse fill="none" stroke="#000000" cx="1126.8429" cy="-90" rx="40.049" ry="18"/>
<text text-anchor="middle" x="1126.8429" y="-85.8" font-family="Times,serif" font-size="14.00" fill="#000000">type int</text>
</g>
<!-- 38 -->
<g id="node31" class="node">
<title>38</title>
<ellipse fill="none" stroke="#000000" cx="1247.8429" cy="-18" rx="48.1388" ry="18"/>
<text text-anchor="middle" x="1247.8429" y="-13.8" font-family="Times,serif" font-size="14.00" fill="#000000">const 100</text>
</g>
<!-- 37 -->
<g id="node32" class="node">
<title>37</title>
<ellipse fill="none" stroke="#000000" cx="1247.8429" cy="-90" rx="62.192" ry="18"/>
<text text-anchor="middle" x="1247.8429" y="-85.8" font-family="Times,serif" font-size="14.00" fill="#000000">assignment =</text>
</g>
<!-- 37&#45;&gt;38 -->
<g id="edge22" class="edge">
<title>37&#45;&gt;38</title>
<path fill="none" stroke="#000000" d="M1247.8429,-71.8314C1247.8429,-64.131 1247.8429,-54.9743 1247.8429,-46.4166"/>
<polygon fill="#000000" stroke="#000000" points="1251.343,-46.4132 1247.8429,-36.4133 1244.343,-46.4133 1251.343,-46.4132"/>
</g>
<!-- 35 -->
<g id="node33" class="node">
<title>35</title>
<ellipse fill="none" stroke="#000000" cx="1255.8429" cy="-162" rx="79.8333" ry="18"/>
<text text-anchor="middle" x="1255.8429" y="-157.8" font-family="Times,serif" font-size="14.00" fill="#000000">declare variable k</text>
</g>
<!-- 35&#45;&gt;36 -->
<g id="edge23" class="edge">
<title>35&#45;&gt;36</title>
<path fill="none" stroke="#000000" d="M1225.9235,-145.3008C1206.5602,-134.4934 1181.2936,-120.3911 1161.1221,-109.1326"/>
<polygon fill="#000000" stroke="#000000" points="1162.69,-105.9994 1152.2522,-104.1819 1159.2784,-112.1118 1162.69,-105.9994"/>
</g>
<!-- 35&#45;&gt;37 -->
<g id="edge24" class="edge">
<title>35&#45;&gt;37</title>
<path fill="none" stroke="#000000" d="M1253.8242,-143.8314C1252.9686,-136.131 1251.9512,-126.9743 1251.0003,-118.4166"/>
<polygon fill="#000000" stroke="#000000" points="1254.4718,-117.9656 1249.8889,-108.4133 1247.5147,-118.7386 1254.4718,-117.9656"/>
</g>
<!-- 40 -->
<g id="node34" class="node">
<title>40</title>
<ellipse fill="none" stroke="#000000" cx="1377.8429" cy="-90" rx="49.2572" ry="18"/>
<text text-anchor="middle" x="1377.8429" y="-85.8" font-family="Times,serif" font-size="14.00" fill="#000000">variable k</text>
</g>
<!-- 41 -->
<g id="node35" class="node">
<title>41</title>
<ellipse fill="none" stroke="#000000" cx="1488.8429" cy="-90" rx="43.4812" ry="18"/>
<text text-anchor="middle" x="1488.8429" y="-85.8" font-family="Times,serif" font-size="14.00" fill="#000000">const 26</text>
</g>
<!-- 39 -->
<g id="node36" class="node">
<title>39</title>
<ellipse fill="none" stroke="#000000" cx="1442.8429" cy="-162" rx="56.5279" ry="18"/>
<text text-anchor="middle" x="1442.8429" y="-157.8" font-family="Times,serif" font-size="14.00" fill="#000000">operator &gt;=</text>
</g>
<!-- 39&#45;&gt;40 -->
<g id="edge25" class="edge">
<title>39&#45;&gt;40</title>
<path fill="none" stroke="#000000" d="M1427.1082,-144.5708C1419.0443,-135.6385 1409.0841,-124.6056 1400.2345,-114.8029"/>
<polygon fill="#000000" stroke="#000000" points="1402.7317,-112.346 1393.4327,-107.2687 1397.5358,-117.0368 1402.7317,-112.346"/>
</g>
<!-- 39&#45;&gt;41 -->
<g id="edge26" class="edge">
<title>39&#45;&gt;41</title>
<path fill="none" stroke="#000000" d="M1454.2137,-144.2022C1459.6171,-135.7448 1466.1825,-125.4685 1472.1379,-116.147"/>
<polygon fill="#000000" stroke="#000000" points="1475.1684,-117.9044 1477.6029,-107.593 1469.2696,-114.1356 1475.1684,-117.9044"/>
</g>
<!-- 43 -->
<g id="node37" class="node">
<title>43</title>
<ellipse fill="none" stroke="#000000" cx="1599.8429" cy="-90" rx="49.2572" ry="18"/>
<text text-anchor="middle" x="1599.8429" y="-85.8" font-family="Times,serif" font-size="14.00" fill="#000000">variable k</text>
</g>
<!-- 42 -->
<g id="node38" class="node">
<title>42</title>
<ellipse fill="none" stroke="#000000" cx="1578.8429" cy="-162" rx="52.105" ry="18"/>
<text text-anchor="middle" x="1578.8429" y="-157.8" font-family="Times,serif" font-size="14.00" fill="#000000">operator &#45;&#45;</text>
</g>
<!-- 42&#45;&gt;43 -->
<g id="edge27" class="edge">
<title>42&#45;&gt;43</title>
<path fill="none" stroke="#000000" d="M1584.1421,-143.8314C1586.4477,-135.9266 1589.2008,-126.4872 1591.7531,-117.7365"/>
<polygon fill="#000000" stroke="#000000" points="1595.1781,-118.4934 1594.6182,-107.9134 1588.4581,-116.5334 1595.1781,-118.4934"/>
</g>
<!-- 34 -->
<g id="node39" class="node">
<title>34</title>
<ellipse fill="none" stroke="#000000" cx="1442.8429" cy="-234" rx="76.3591" ry="18"/>
<text text-anchor="middle" x="1442.8429" y="-229.8" font-family="Times,serif" font-size="14.00" fill="#000000">cycle parameters</text>
</g>
<!-- 34&#45;&gt;35 -->
<g id="edge28" class="edge">
<title>34&#45;&gt;35</title>
<path fill="none" stroke="#000000" d="M1402.7267,-218.5542C1374.3533,-207.6297 1336.1165,-192.9075 1305.7685,-181.2227"/>
<polygon fill="#000000" stroke="#000000" points="1306.8048,-177.8713 1296.215,-177.5443 1304.2895,-184.4038 1306.8048,-177.8713"/>
</g>
<!-- 34&#45;&gt;39 -->
<g id="edge29" class="edge">
<title>34&#45;&gt;39</title>
<path fill="none" stroke="#000000" d="M1442.8429,-215.8314C1442.8429,-208.131 1442.8429,-198.9743 1442.8429,-190.4166"/>
<polygon fill="#000000" stroke="#000000" points="1446.343,-190.4132 1442.8429,-180.4133 1439.343,-190.4133 1446.343,-190.4132"/>
</g>
<!-- 34&#45;&gt;42 -->
<g id="edge30" class="edge">
<title>34&#45;&gt;42</title>
<path fill="none" stroke="#000000" d="M1474.0441,-217.4817C1493.9913,-206.9214 1519.9842,-193.1605 1541.0926,-181.9855"/>
<polygon fill="#000000" stroke="#000000" points="1542.9071,-184.9852 1550.1073,-177.213 1539.6318,-178.7986 1542.9071,-184.9852"/>
</g>
<!-- 46 -->
<g id="node40" class="node">
<title>46</title>
<ellipse fill="none" stroke="#000000" cx="1727.8429" cy="-90" rx="60.7927" ry="18"/>
<text text-anchor="middle" x="1727.8429" y="-85.8" font-family="Times,serif" font-size="14.00" fill="#000000">variable sum</text>
</g>
<!-- 48 -->
<g id="node41" class="node">
<title>48</title>
<ellipse fill="none" stroke="#000000" cx="1798.8429" cy="-18" rx="49.2572" ry="18"/>
<text text-anchor="middle" x="1798.8429" y="-13.8" font-family="Times,serif" font-size="14.00" fill="#000000">variable k</text>
</g>
<!-- 49 -->
<g id="node42" class="node">
<title>49</title>
<ellipse fill="none" stroke="#000000" cx="1914.8429" cy="-18" rx="48.6739" ry="18"/>
<text text-anchor="middle" x="1914.8429" y="-13.8" font-family="Times,serif" font-size="14.00" fill="#000000">variable a</text>
</g>
<!-- 47 -->
<g id="node43" class="node">
<title>47</title>
<ellipse fill="none" stroke="#000000" cx="1856.8429" cy="-90" rx="50.4027" ry="18"/>
<text text-anchor="middle" x="1856.8429" y="-85.8" font-family="Times,serif" font-size="14.00" fill="#000000">operator *</text>
</g>
<!-- 47&#45;&gt;48 -->
<g id="edge31" class="edge">
<title>47&#45;&gt;48</title>
<path fill="none" stroke="#000000" d="M1842.8027,-72.5708C1835.7309,-63.7919 1827.0246,-52.9841 1819.2309,-43.3093"/>
<polygon fill="#000000" stroke="#000000" points="1821.9538,-41.1101 1812.9548,-35.5182 1816.5025,-45.5015 1821.9538,-41.1101"/>
</g>
<!-- 47&#45;&gt;49 -->
<g id="edge32" class="edge">
<title>47&#45;&gt;49</title>
<path fill="none" stroke="#000000" d="M1870.8831,-72.5708C1878.0074,-63.7269 1886.7903,-52.8239 1894.628,-43.0945"/>
<polygon fill="#000000" stroke="#000000" points="1897.3844,-45.2519 1900.932,-35.2687 1891.9331,-40.8606 1897.3844,-45.2519"/>
</g>
<!-- 45 -->
<g id="node44" class="node">
<title>45</title>
<ellipse fill="none" stroke="#000000" cx="1727.8429" cy="-162" rx="62.192" ry="18"/>
<text text-anchor="middle" x="1727.8429" y="-157.8" font-family="Times,serif" font-size="14.00" fill="#000000">assignment =</text>
</g>
<!-- 45&#45;&gt;46 -->
<g id="edge33" class="edge">
<title>45&#45;&gt;46</title>
<path fill="none" stroke="#000000" d="M1727.8429,-143.8314C1727.8429,-136.131 1727.8429,-126.9743 1727.8429,-118.4166"/>
<polygon fill="#000000" stroke="#000000" points="1731.343,-118.4132 1727.8429,-108.4133 1724.343,-118.4133 1731.343,-118.4132"/>
</g>
<!-- 45&#45;&gt;47 -->
<g id="edge34" class="edge">
<title>45&#45;&gt;47</title>
<path fill="none" stroke="#000000" d="M1756.793,-145.8418C1775.6032,-135.3431 1800.2795,-121.5703 1820.4186,-110.3299"/>
<polygon fill="#000000" stroke="#000000" points="1822.2889,-113.2943 1829.3151,-105.3644 1818.8773,-107.1819 1822.2889,-113.2943"/>
</g>
<!-- 44 -->
<g id="node45" class="node">
<title>44</title>
<ellipse fill="none" stroke="#000000" cx="1651.8429" cy="-234" rx="30.2015" ry="18"/>
<text text-anchor="middle" x="1651.8429" y="-229.8" font-family="Times,serif" font-size="14.00" fill="#000000">body</text>
</g>
<!-- 44&#45;&gt;45 -->
<g id="edge35" class="edge">
<title>44&#45;&gt;45</title>
<path fill="none" stroke="#000000" d="M1667.9606,-218.7307C1677.8733,-209.3396 1690.7997,-197.0936 1702.1045,-186.3838"/>
<polygon fill="#000000" stroke="#000000" points="1704.7624,-188.687 1709.6149,-179.2687 1699.9482,-183.6053 1704.7624,-188.687"/>
</g>
<!-- 33 -->
<g id="node46" class="node">
<title>33</title>
<ellipse fill="none" stroke="#000000" cx="1442.8429" cy="-306" rx="45.1623" ry="18"/>
<text text-anchor="middle" x="1442.8429" y="-301.8" font-family="Times,serif" font-size="14.00" fill="#000000">cycle for</text>
</g>
<!-- 33&#45;&gt;34 -->
<g id="edge36" class="edge">
<title>33&#45;&gt;34</title>
<path fill="none" stroke="#000000" d="M1442.8429,-287.8314C1442.8429,-280.131 1442.8429,-270.9743 1442.8429,-262.4166"/>
<polygon fill="#000000" stroke="#000000" points="1446.343,-262.4132 1442.8429,-252.4133 1439.343,-262.4133 1446.343,-262.4132"/>
</g>
<!-- 33&#45;&gt;44 -->
<g id="edge37" class="edge">
<title>33&#45;&gt;44</title>
<path fill="none" stroke="#000000" d="M1477.355,-294.1107C1515.5635,-280.9479 1576.8746,-259.8264 1615.7187,-246.4447"/>
<polygon fill="#000000" stroke="#000000" points="1617.2468,-249.6202 1625.5614,-243.0539 1614.9667,-243.0019 1617.2468,-249.6202"/>
</g>
<!-- 31 -->
<g id="node47" class="node">
<title>31</title>
<ellipse fill="none" stroke="#000000" cx="1223.8429" cy="-378" rx="49.2842" ry="18"/>
<text text-anchor="middle" x="1223.8429" y="-373.8" font-family="Times,serif" font-size="14.00" fill="#000000">then body</text>
</g>
<!-- 31&#45;&gt;33 -->
<g id="edge38" class="edge">
<title>31&#45;&gt;33</title>
<path fill="none" stroke="#000000" d="M1260.9933,-365.7862C1298.8736,-353.3324 1357.6626,-334.0045 1398.085,-320.7149"/>
<polygon fill="#000000" stroke="#000000" points="1399.2806,-324.0063 1407.6872,-317.5581 1397.0943,-317.3564 1399.2806,-324.0063"/>
</g>
<!-- 27 -->
<g id="node48" class="node">
<title>27</title>
<ellipse fill="none" stroke="#000000" cx="1082.8429" cy="-450" rx="55.6591" ry="18"/>
<text text-anchor="middle" x="1082.8429" y="-445.8" font-family="Times,serif" font-size="14.00" fill="#000000">condition if</text>
</g>
<!-- 27&#45;&gt;28 -->
<g id="edge39" class="edge">
<title>27&#45;&gt;28</title>
<path fill="none" stroke="#000000" d="M1060.5773,-433.3008C1047.7339,-423.6682 1031.4005,-411.4182 1017.3725,-400.8972"/>
<polygon fill="#000000" stroke="#000000" points="1019.0878,-397.8087 1008.9878,-394.6087 1014.8878,-403.4087 1019.0878,-397.8087"/>
</g>
<!-- 27&#45;&gt;51 -->
<g id="edge40" class="edge">
<title>27&#45;&gt;51</title>
<path fill="none" stroke="#000000" d="M1089.4038,-431.8314C1092.2894,-423.8406 1095.7412,-414.2819 1098.9299,-405.4514"/>
<polygon fill="#000000" stroke="#000000" points="1102.2696,-406.5077 1102.3742,-395.9134 1095.6857,-404.1302 1102.2696,-406.5077"/>
</g>
<!-- 27&#45;&gt;31 -->
<g id="edge41" class="edge">
<title>27&#45;&gt;31</title>
<path fill="none" stroke="#000000" d="M1112.7454,-434.7307C1134.0602,-423.8465 1162.8855,-409.1272 1185.8328,-397.4094"/>
<polygon fill="#000000" stroke="#000000" points="1187.6336,-400.4198 1194.9479,-392.7549 1184.4501,-394.1856 1187.6336,-400.4198"/>
</g>
<!-- 58 -->
<g id="node49" class="node">
<title>58</title>
<ellipse fill="none" stroke="#000000" cx="1355.8429" cy="-378" rx="64.8293" ry="18"/>
<text text-anchor="middle" x="1355.8429" y="-373.8" font-family="Times,serif" font-size="14.00" fill="#000000">return value 0</text>
</g>
<!-- 57 -->
<g id="node50" class="node">
<title>57</title>
<ellipse fill="none" stroke="#000000" cx="1273.8429" cy="-450" rx="34.1871" ry="18"/>
<text text-anchor="middle" x="1273.8429" y="-445.8" font-family="Times,serif" font-size="14.00" fill="#000000">return</text>
</g>
<!-- 57&#45;&gt;58 -->
<g id="edge42" class="edge">
<title>57&#45;&gt;58</title>
<path fill="none" stroke="#000000" d="M1291.6357,-434.3771C1302.3775,-424.9453 1316.2881,-412.7311 1328.4138,-402.0841"/>
<polygon fill="#000000" stroke="#000000" points="1330.8679,-404.587 1336.0731,-395.3589 1326.2493,-399.3269 1330.8679,-404.587"/>
</g>
<!-- 19 -->
<g id="node51" class="node">
<title>19</title>
<ellipse fill="none" stroke="#000000" cx="979.8429" cy="-522" rx="30.2015" ry="18"/>
<text text-anchor="middle" x="979.8429" y="-517.8" font-family="Times,serif" font-size="14.00" fill="#000000">body</text>
</g>
<!-- 19&#45;&gt;20 -->
<g id="edge43" class="edge">
<title>19&#45;&gt;20</title>
<path fill="none" stroke="#000000" d="M959.9835,-508.1177C945.7462,-498.1654 926.2415,-484.531 909.702,-472.9694"/>
<polygon fill="#000000" stroke="#000000" points="911.5681,-470.0036 901.3668,-467.1429 907.5576,-475.7408 911.5681,-470.0036"/>
</g>
<!-- 19&#45;&gt;27 -->
<g id="edge44" class="edge">
<title>19&#45;&gt;27</title>
<path fill="none" stroke="#000000" d="M999.7024,-508.1177C1014.2384,-497.9566 1034.2651,-483.9573 1051.0208,-472.2446"/>
<polygon fill="#000000" stroke="#000000" points="1053.2476,-474.9584 1059.4384,-466.3604 1049.2371,-469.2211 1053.2476,-474.9584"/>
</g>
<!-- 19&#45;&gt;57 -->
<g id="edge45" class="edge">
<title>19&#45;&gt;57</title>
<path fill="none" stroke="#000000" d="M1008.0329,-515.0963C1060.2041,-502.3197 1172.0099,-474.9387 1232.666,-460.0841"/>
<polygon fill="#000000" stroke="#000000" points="1233.7777,-463.4154 1242.6581,-457.6371 1232.1126,-456.6163 1233.7777,-463.4154"/>
</g>
<!-- 10 -->
<g id="node52" class="node">
<title>10</title>
<ellipse fill="none" stroke="#000000" cx="447.8429" cy="-594" rx="55.0816" ry="18"/>
<text text-anchor="middle" x="447.8429" y="-589.8" font-family="Times,serif" font-size="14.00" fill="#000000">method foo</text>
</g>
<!-- 10&#45;&gt;14 -->
<g id="edge46" class="edge">
<title>10&#45;&gt;14</title>
<path fill="none" stroke="#000000" d="M422.7079,-577.8418C406.4512,-567.391 385.1478,-553.696 367.7069,-542.484"/>
<polygon fill="#000000" stroke="#000000" points="369.2902,-539.341 358.9857,-536.8775 365.5048,-545.2293 369.2902,-539.341"/>
</g>
<!-- 10&#45;&gt;15 -->
<g id="edge47" class="edge">
<title>10&#45;&gt;15</title>
<path fill="none" stroke="#000000" d="M447.8429,-575.8314C447.8429,-568.131 447.8429,-558.9743 447.8429,-550.4166"/>
<polygon fill="#000000" stroke="#000000" points="451.343,-550.4132 447.8429,-540.4133 444.343,-550.4133 451.343,-550.4132"/>
</g>
<!-- 10&#45;&gt;11 -->
<g id="edge48" class="edge">
<title>10&#45;&gt;11</title>
<path fill="none" stroke="#000000" d="M474.2529,-578.0209C491.4354,-567.6247 514.0163,-553.9623 532.5765,-542.7327"/>
<polygon fill="#000000" stroke="#000000" points="534.5796,-545.6115 541.3236,-537.4403 530.9559,-539.6224 534.5796,-545.6115"/>
</g>
<!-- 10&#45;&gt;19 -->
<g id="edge49" class="edge">
<title>10&#45;&gt;19</title>
<path fill="none" stroke="#000000" d="M499.3367,-587.0309C605.152,-572.7101 845.0652,-540.2406 940.0492,-527.3856"/>
<polygon fill="#000000" stroke="#000000" points="940.6654,-530.8342 950.1056,-526.0246 939.7265,-523.8975 940.6654,-530.8342"/>
</g>
<!-- 5 -->
<g id="node53" class="node">
<title>5</title>
<ellipse fill="none" stroke="#000000" cx="385.8429" cy="-666" rx="43.5214" ry="18"/>
<text text-anchor="middle" x="385.8429" y="-661.8" font-family="Times,serif" font-size="14.00" fill="#000000">methods</text>
</g>
<!-- 5&#45;&gt;10 -->
<g id="edge50" class="edge">
<title>5&#45;&gt;10</title>
<path fill="none" stroke="#000000" d="M400.5361,-648.937C408.2216,-640.0119 417.7765,-628.9159 426.283,-619.0373"/>
<polygon fill="#000000" stroke="#000000" points="428.9515,-621.3022 432.8246,-611.4407 423.6471,-616.7345 428.9515,-621.3022"/>
</g>
<!-- 1 -->
<g id="node54" class="node">
<title>1</title>
<ellipse fill="none" stroke="#000000" cx="229.8429" cy="-738" rx="52.7041" ry="18"/>
<text text-anchor="middle" x="229.8429" y="-733.8" font-family="Times,serif" font-size="14.00" fill="#000000">class Main</text>
</g>
<!-- 1&#45;&gt;2 -->
<g id="edge51" class="edge">
<title>1&#45;&gt;2</title>
<path fill="none" stroke="#000000" d="M202.1692,-722.5542C183.0805,-711.9 157.5202,-697.6338 136.8477,-686.0957"/>
<polygon fill="#000000" stroke="#000000" points="138.4659,-682.9906 128.0281,-681.1731 135.0543,-689.103 138.4659,-682.9906"/>
</g>
<!-- 1&#45;&gt;4 -->
<g id="edge52" class="edge">
<title>1&#45;&gt;4</title>
<path fill="none" stroke="#000000" d="M229.8429,-719.8314C229.8429,-712.131 229.8429,-702.9743 229.8429,-694.4166"/>
<polygon fill="#000000" stroke="#000000" points="233.343,-694.4132 229.8429,-684.4133 226.343,-694.4133 233.343,-694.4132"/>
</g>
<!-- 1&#45;&gt;5 -->
<g id="edge53" class="edge">
<title>1&#45;&gt;5</title>
<path fill="none" stroke="#000000" d="M261.4119,-723.4297C286.2305,-711.975 320.9099,-695.9691 347.3552,-683.7636"/>
<polygon fill="#000000" stroke="#000000" points="349.0792,-686.8227 356.6921,-679.4542 346.1458,-680.467 349.0792,-686.8227"/>
</g>
<!-- 0 -->
<g id="node55" class="node">
<title>0</title>
<ellipse fill="none" stroke="#000000" cx="229.8429" cy="-810" rx="77.6136" ry="18"/>
<text text-anchor="middle" x="229.8429" y="-805.8" font-family="Times,serif" font-size="14.00" fill="#000000">package mishdev</text>
</g>
<!-- 0&#45;&gt;1 -->
<g id="edge54" class="edge">
<title>0&#45;&gt;1</title>
<path fill="none" stroke="#000000" d="M229.8429,-791.8314C229.8429,-784.131 229.8429,-774.9743 229.8429,-766.4166"/>
<polygon fill="#000000" stroke="#000000" points="233.343,-766.4132 229.8429,-756.4133 226.343,-766.4133 233.343,-766.4132"/>
</g>
</g>
</svg>
